<svg xmlns="http://www.w3.org/2000/svg" xmlns:xlink="http://www.w3.org/1999/xlink" viewBox="0 0 441 126">
  <defs>
    <clipPath id="clip-path">
      <rect width="220.5" height="126" fill="none"/>
    </clipPath>
  </defs>
  <title>business-card</title>
  <g id="business_card" data-name="business card">
    <g id="front">
      <g clip-path="url(#clip-path)">
        <g opacity="0.6" style="isolation: isolate">
          <path d="M189.34,133.87c-31.59-82,41.31-81,27.22-116.26,24.74,36.3-55.77,42.54-9,116.21Zm32.94-48.23a2.66,2.66,0,0,0,.32-5.31l-20.12-.95a2.66,2.66,0,0,0-.32,5.31l20.12.95m-3-9.48a2.64,2.64,0,0,0,3.68-3.8L213,63a2.64,2.64,0,0,0-3.68,3.8l9.94,9.38M212.5,31.23l-14.85,5.69a42.82,42.82,0,0,1-.56-10.85L212,25.61a1.68,1.68,0,1,0-.08-3.35l-14.44.45a52.82,52.82,0,0,1,2.24-9.51l10.26,3.36A1.63,1.63,0,1,0,211,13.48l-10.21-3.34A46.11,46.11,0,0,1,204.43,3l3.79,4.06A1.57,1.57,0,1,0,210.56,5L206.26.37c3.34-4.41,7.3-7.44,11.41-8.17L210-7.88C192.36-.31,179.65,32.47,194,54.68c2.12-2,4.57-4.86,7.51-7.2a30.39,30.39,0,0,1-3.1-7.18l15.26-5.85a1.72,1.72,0,0,0-1.21-3.23m14,63.83a2.83,2.83,0,0,0-2-5.29L201.28,99a2.83,2.83,0,0,0,2,5.29l23.18-9.22m4.58,8.48a2.83,2.83,0,0,0-3.82-4.16l-19.12,18.25a2.83,2.83,0,0,0,3.82,4.16L231,103.54" fill="#efeff0"/>
        </g>
      </g>
      <rect width="220.5" height="126" fill="none" stroke="#231f20" stroke-width="0.5"/>
      <g id="card-text">
        <path id="name" d="M20.31,16.29V17h-2.7V19h2.14v.76H17.61v2.58H16.8v-6Zm1.9,0v6H21.4v-6Zm5.78,6H27l-1.56-2.26h-.77v2.26h-.82v-6h2.32A1.72,1.72,0,0,1,28,18.18,1.69,1.69,0,0,1,26.39,20ZM24.68,17V19.3h1.43a1,1,0,0,0,1-1.12,1,1,0,0,0-1-1.13ZM31,21.64a1.1,1.1,0,0,0,1.21-.88c.05-.65-.48-1-1-1.08l-.78-.19c-1.28-.32-1.47-1-1.47-1.57a1.82,1.82,0,0,1,1.95-1.7A1.78,1.78,0,0,1,32.85,18H32a1.15,1.15,0,0,0-2.26-.08c0,.26.1.66.86.84l.79.19c1.13.29,1.73.93,1.61,1.89a1.86,1.86,0,0,1-2,1.57,2,2,0,0,1-2.11-1.83h.81A1.22,1.22,0,0,0,31,21.64Zm7.14-5.35v.77H36.33v5.25H35.5V17.06H33.68v-.77Zm8.49,0h.74l.73,6h-.8l-.55-4.53-1.88,3.87h-.72l-1.9-3.87-.55,4.53h-.8l.73-6h.74l2.12,4.42Zm3.13,5a.56.56,0,0,1,.58.55.57.57,0,1,1-.58-.55Zm5.07-5v5.26H57.3v.76H54v-6Zm4.24,4.49-.59,1.53h-.87l2.29-6h.87l2.28,6h-.86l-.59-1.53ZM61.36,20l-1-2.68-1,2.68Zm4.32,1.59a1.1,1.1,0,0,0,1.21-.88c.05-.65-.48-1-1-1.08l-.78-.19c-1.28-.32-1.47-1-1.47-1.57a1.82,1.82,0,0,1,1.95-1.7A1.78,1.78,0,0,1,67.52,18H66.7a1.15,1.15,0,0,0-2.26-.08c0,.26.1.66.86.84l.79.19c1.13.29,1.73.93,1.61,1.89a1.86,1.86,0,0,1-2,1.57,2,2,0,0,1-2.11-1.83h.81A1.22,1.22,0,0,0,65.68,21.64Zm7.13-5.35v.77H71v5.25h-.82V17.06H68.33v-.77Zm-.1,6.94a3.07,3.07,0,0,0,.59-1.92h.84a3,3,0,0,1-.87,2.11Zm10.58-6.94H84l.73,6H84l-.55-4.53-1.88,3.87h-.72l-1.9-3.87-.55,4.53h-.8l.73-6H79l2.12,4.42Zm2.79,6v-6h2.33a2.73,2.73,0,0,1,2.71,3,2.71,2.71,0,0,1-2.71,3Zm2.33-.76c1.25,0,1.9-1,1.9-2.24S89.66,17,88.41,17H86.89v4.5Z" fill="#ac162c"/>
        <path id="title" d="M19.27,28.4l-.09.58H18L17.26,33h-.6L17.37,29h-1.2l.09-.58Zm.87,1.5L19.58,33H19l.55-3.15Zm-.49-1.15a.32.32,0,0,0,.33.4.47.47,0,0,0,.46-.4.31.31,0,0,0-.32-.4A.5.5,0,0,0,19.64,28.74Zm2.65,1.15-.08.48h-.57L21.17,33h-.59l.47-2.67h-.49l.08-.48h.49l.21-1.19h.59l-.21,1.19Zm1.41-1.71L22.84,33h-.59l.86-4.86Zm2.88,3.52H24.34c0,.51.26.82.69.82a1,1,0,0,0,.86-.47l.49.23a1.76,1.76,0,0,1-1.48.83c-.82,0-1.34-.65-1.17-1.65a1.85,1.85,0,0,1,1.75-1.63c.82,0,1.31.63,1.13,1.63C26.61,31.53,26.6,31.63,26.58,31.7Zm-.52-.45c0-.57-.25-.84-.67-.84a1,1,0,0,0-1,.84Zm3.37-2.91-.08.45c-.65,0-1.49,1.13-1.77,2.69s.16,2.69.81,2.69l-.07.45c-1,0-1.6-1.19-1.25-3.14S28.43,28.34,29.43,28.34Zm1.14,2.4c0-.27-.13-.37-.31-.37a.47.47,0,0,0-.43.26.39.39,0,0,0,0,.28.39.39,0,0,0,.26.2l.38.12a.77.77,0,0,1,.55.94,1.22,1.22,0,0,1-1.23.94.83.83,0,0,1-.86-1h.59a.36.36,0,0,0,.36.45.55.55,0,0,0,.58-.41.3.3,0,0,0-.24-.36l-.4-.13a.69.69,0,0,1-.57-.52,1,1,0,0,1,.09-.68,1.16,1.16,0,0,1,1-.64.73.73,0,0,1,.8.85v.07Zm.14,3.87.07-.45c.64,0,1.48-1.13,1.75-2.69s-.16-2.69-.81-2.69l.08-.45c1,0,1.59,1.19,1.25,3.14S31.69,34.61,30.71,34.61Z" fill="#ac162c"/>
        <path id="email-phone" d="M16.42,68.49a1.28,1.28,0,0,1,.71-1.16,1.11,1.11,0,0,1-.42-.84,1,1,0,1,1,2.08,0,1.11,1.11,0,0,1-.42.84,1.35,1.35,0,1,1-1.94,1.16Zm1.34-.9H17.7a.79.79,0,0,0-.69.86.75.75,0,1,0,1.47,0,.79.79,0,0,0-.69-.86Zm0-.53c.25,0,.43-.28.43-.57s-.2-.57-.45-.57-.45.22-.45.57.18.57.42.57h.05Zm3.44-1.7c1.11,0,1.42,1,1.42,2.27s-.31,2.26-1.42,2.26-1.43-1-1.43-2.26S20.1,65.37,21.21,65.37Zm0,4c.65,0,.84-.78.84-1.69s-.19-1.69-.84-1.69-.84.78-.84,1.69S20.55,69.32,21.21,69.32Zm2.69-3.13-.69.28v-.59l1.27-.54v4.49H23.9Zm2,2.86a.41.41,0,0,1,.41.42.41.41,0,1,1-.41-.42Zm2.53-3.68c1.11,0,1.42,1,1.42,2.27s-.31,2.26-1.42,2.26S27,68.87,27,67.63,27.3,65.37,28.4,65.37Zm0,4c.65,0,.84-.78.84-1.69s-.19-1.69-.84-1.69-.84.78-.84,1.69S27.75,69.32,28.4,69.32Zm3.65-4c1.11,0,1.42,1,1.42,2.27s-.31,2.26-1.42,2.26-1.43-1-1.43-2.26S30.95,65.37,32.05,65.37Zm0,4c.65,0,.84-.78.84-1.69s-.19-1.69-.84-1.69-.84.78-.84,1.69S31.4,69.32,32.05,69.32Zm3.65-4c1.11,0,1.42,1,1.42,2.27s-.31,2.26-1.42,2.26-1.43-1-1.43-2.26S34.6,65.37,35.71,65.37Zm0,4c.65,0,.84-.78.84-1.69s-.19-1.69-.84-1.69-.84.78-.84,1.69S35.05,69.32,35.71,69.32ZM38.22,69a.41.41,0,0,1,.41.42.41.41,0,1,1-.41-.42Zm2.53-3.68c1.11,0,1.42,1,1.42,2.27s-.31,2.26-1.42,2.26-1.43-1-1.43-2.26S39.65,65.37,40.76,65.37Zm0,4c.65,0,.84-.78.84-1.69s-.19-1.69-.84-1.69-.84.78-.84,1.69S40.1,69.32,40.76,69.32Zm3.65-4c1.11,0,1.42,1,1.42,2.27s-.31,2.26-1.42,2.26S43,68.87,43,67.63,43.3,65.37,44.41,65.37Zm0,4c.65,0,.84-.78.84-1.69s-.19-1.69-.84-1.69-.84.78-.84,1.69S43.76,69.32,44.41,69.32Zm3.65-4c1.11,0,1.42,1,1.42,2.27s-.31,2.26-1.42,2.26-1.43-1-1.43-2.26S47,65.37,48.06,65.37Zm0,4c.65,0,.84-.78.84-1.69s-.19-1.69-.84-1.69-.84.78-.84,1.69S47.41,69.32,48.06,69.32Zm3.65-4c1.11,0,1.42,1,1.42,2.27s-.31,2.26-1.42,2.26-1.43-1-1.43-2.26S50.61,65.37,51.71,65.37Zm0,4c.65,0,.84-.78.84-1.69s-.19-1.69-.84-1.69-.84.78-.84,1.69S51.06,69.32,51.71,69.32ZM19,76.57H16.81a.86.86,0,0,0,.84.82.85.85,0,0,0,.78-.47l.53.23a1.4,1.4,0,0,1-1.32.83,1.51,1.51,0,0,1-1.46-1.65,1.49,1.49,0,0,1,1.46-1.63,1.46,1.46,0,0,1,1.42,1.63C19.05,76.4,19.05,76.5,19,76.57Zm-.6-.45c-.08-.57-.4-.84-.82-.84s-.73.28-.82.84Zm3.75,0v1.79h-.59V76.08c0-.52-.24-.78-.63-.78s-.63.31-.63.83v1.79h-.59V74.76h.59v.48a.8.8,0,0,1,.76-.55.9.9,0,0,1,.91.6,1,1,0,0,1,1-.6c.69,0,1.07.51,1.07,1.4v1.82h-.59V76.1c0-.52-.26-.8-.62-.8S22.2,75.59,22.2,76.12ZM27,77.4a1,1,0,0,1-1,.58c-.76,0-1.34-.65-1.34-1.65s.58-1.64,1.34-1.64a1,1,0,0,1,1,.57v-.51h.59v3.15H27Zm-.86-2.11a.93.93,0,0,0-.84,1,1,1,0,0,0,.84,1.06c.46,0,.86-.39.86-1.06A.94.94,0,0,0,26.19,75.29Zm2.64-2.08a.4.4,0,0,1,0,.8.4.4,0,1,1,0-.8Zm-.29,1.55v3.15h.59V74.76ZM30.6,73v4.86H30V73Zm3.29,2.22a.89.89,0,0,0,0,1.73.77.77,0,0,0,.47-.12v.48a.82.82,0,0,1-.47.12,1.36,1.36,0,0,1,0-2.69,1.11,1.11,0,0,1,.82.37,1.41,1.41,0,0,1,.36.92v1c0,.38.2.45.38.45.52,0,.67-.9.67-1.44A2.27,2.27,0,0,0,34,73.69a2.3,2.3,0,0,0-2.07,2.48A2.27,2.27,0,0,0,34,78.63h.16v.48H34a3,3,0,1,1,2.65-3.05c0,.79-.32,1.92-1.15,1.92-.44,0-.86-.22-.86-1v-.87A.79.79,0,0,0,33.89,75.27ZM38,77.91h-.59V73H38v2.19a.93.93,0,0,1,.86-.55c.69,0,1.12.51,1.11,1.4v1.83h-.59V76.12c0-.52-.28-.84-.65-.84s-.74.32-.74,1Zm4.08-2.3c0-.27-.2-.37-.38-.37a.38.38,0,0,0-.38.26.38.38,0,0,0,0,.28.51.51,0,0,0,.3.2l.4.12a.93.93,0,0,1,.72.94,1,1,0,0,1-1.07.94,1,1,0,0,1-1-1h.59a.44.44,0,0,0,.44.45c.3,0,.51-.17.51-.41a.38.38,0,0,0-.3-.36l-.42-.13a.88.88,0,0,1-.65-.52,1,1,0,0,1,0-.68.94.94,0,0,1,.93-.64.9.9,0,0,1,1,.85s0,0,0,.07Zm2.66-.92a1.31,1.31,0,0,1,1.06.51l-.42.42a.88.88,0,0,0-.64-.34.94.94,0,0,0-.86,1,1,1,0,0,0,.86,1.07.85.85,0,0,0,.64-.35l.42.42a1.33,1.33,0,0,1-1.07.51,1.52,1.52,0,0,1-1.45-1.65A1.5,1.5,0,0,1,44.71,74.69Zm2.1,2.44a.41.41,0,0,1,.41.42.41.41,0,1,1-.82,0A.41.41,0,0,1,46.81,77.13Zm3.06-2.37h.59v3.15h-.59v-.42A.93.93,0,0,1,49,78c-.69,0-1.07-.51-1.07-1.4V74.76h.59v1.66c0,.67.17,1,.61,1s.73-.28.73-.89Zm2.83,0v.48h-.57v2.67h-.59V75.24h-.49v-.48h.49V73.57h.59v1.19Zm2.66,2.64a1,1,0,0,1-1,.58c-.75,0-1.33-.65-1.33-1.65s.58-1.64,1.33-1.64a1,1,0,0,1,1,.57v-.51H56v3.15h-.59Zm-.86-2.11a.93.93,0,0,0-.84,1,1,1,0,0,0,.84,1.06c.46,0,.86-.39.86-1.06A.94.94,0,0,0,54.5,75.29Zm2.94,2.62h-.59V73h.59v2.19a.93.93,0,0,1,.86-.55c.69,0,1.12.51,1.11,1.4v1.83h-.59V76.12c0-.52-.28-.84-.65-.84s-.74.32-.74,1Zm3.21-.78a.41.41,0,0,1,.41.42.41.41,0,1,1-.82,0A.41.41,0,0,1,60.65,77.13Zm3.86-.57H62.28a.85.85,0,0,0,1.62.35l.53.23A1.4,1.4,0,0,1,63.1,78a1.51,1.51,0,0,1-1.46-1.65,1.49,1.49,0,0,1,1.46-1.63,1.46,1.46,0,0,1,1.42,1.63C64.52,76.4,64.52,76.5,64.52,76.57Zm-.6-.45c-.08-.57-.4-.84-.82-.84s-.73.28-.82.84Zm3.46,1.27a1,1,0,0,1-1,.58c-.76,0-1.33-.65-1.33-1.65s.56-1.64,1.32-1.64a1.08,1.08,0,0,1,1,.57V73H68v4.86h-.59Zm-.86-2.11a.92.92,0,0,0-.84,1,1,1,0,0,0,.84,1.06c.46,0,.86-.39.86-1.06A.94.94,0,0,0,66.51,75.29Zm4.25-.53h.59v3.15h-.59v-.42a.93.93,0,0,1-.86.49c-.69,0-1.07-.51-1.07-1.4V74.76h.59v1.66c0,.67.17,1,.61,1s.73-.28.73-.89Z" fill="#414042"/>
        <path id="u-of-u-health" d="M113.9,68.21v-3h.72v3a1.72,1.72,0,0,1-3.45,0v-3h.73v3a1,1,0,0,0,2,0Zm2.57,1.61h-.69V66.67h.69v.47a1.09,1.09,0,0,1,1-.54c.76,0,1.2.49,1.2,1.38v1.83h-.69V68.07c0-.5-.26-.78-.66-.78a.76.76,0,0,0-.81.84ZM120,65a.44.44,0,1,1,0,.88.44.44,0,1,1,0-.88Zm.34,1.71h-.69v3.15h.69Zm.69,0h.73l.9,2.27.89-2.27h.74L123,69.82h-.64Zm6.83,1.82h-2.5a.91.91,0,0,0,1,.79,1,1,0,0,0,.86-.45l.57.25a1.65,1.65,0,1,1-1.46-2.47,1.53,1.53,0,0,1,1.58,1.63C127.88,68.31,127.88,68.43,127.87,68.49Zm-.67-.5a.86.86,0,0,0-.9-.78.88.88,0,0,0-.93.78Zm2.24,1.83h-.69V66.67h.69v.72c.16-.56.47-.79.86-.79a1.19,1.19,0,0,1,.56.12l-.11.64a1,1,0,0,0-.47-.11c-.59,0-.84.59-.84,1.43Zm2-2.39a1.06,1.06,0,0,1,1.13-.83,1,1,0,0,1,1.15.93H133a.41.41,0,0,0-.46-.34.57.57,0,0,0-.44.18.32.32,0,0,0,0,.28c0,.12.22.2.38.24L133,68a.92.92,0,0,1,.82.92c0,.61-.53,1-1.25,1a1.12,1.12,0,0,1-1.21-1H132c0,.27.26.45.62.45s.56-.14.56-.38-.21-.32-.44-.37l-.42-.1C131.63,68.28,131.38,67.94,131.42,67.44ZM135,65a.44.44,0,1,1,0,.88.44.44,0,1,1,0-.88Zm.34,1.71h-.69v3.15h.69Zm2,0H138v.57h-.67v2.58h-.69V67.25h-.57v-.57h.57V65.48h.69Zm2.48,4.69h-.73l.68-1.69-1.25-3h.74l.88,2.16.88-2.16h.74Zm4-3.12a1.65,1.65,0,0,1,3.29,0,1.65,1.65,0,1,1-3.29,0Zm2.6,0a1,1,0,0,0-1.91,0,1,1,0,1,0,1.91,0Zm3.41-2.61h-.34c-.46,0-.56.36-.56.76v.29h.71v.57h-.71v2.58h-.7V67.25h-.6v-.57h.6v-.29c0-.86.4-1.42,1.26-1.42h.34Zm5,2.58v-3h.72v3a1.72,1.72,0,0,1-3.45,0v-3h.73v3a1,1,0,0,0,2,0Zm2.78-1.54h.67v.57h-.67v2.58h-.69V67.25h-.57v-.57h.57V65.48h.69Zm3.83,2.7a1.26,1.26,0,0,1-1.06.52,1.64,1.64,0,0,1,0-3.28,1.25,1.25,0,0,1,1.06.51v-.45h.69v3.15h-.69Zm-1-.16a1,1,0,1,0-1-1A1,1,0,0,0,160.45,69.22Zm3.43.61h-.69V65h.69v2.19a1.12,1.12,0,0,1,1-.55c.8,0,1.27.53,1.27,1.42v1.79h-.69V68.07a.71.71,0,0,0-.7-.78.81.81,0,0,0-.88.84Zm8.57-4.65v4.65h-.73v-2h-2.1v2h-.71V65.18h.71v2h2.1v-2Zm4.21,3.32h-2.5a.91.91,0,0,0,1,.79,1,1,0,0,0,.86-.45l.57.25a1.65,1.65,0,1,1-1.46-2.47,1.53,1.53,0,0,1,1.58,1.63C176.67,68.31,176.67,68.43,176.66,68.49ZM176,68a.86.86,0,0,0-.9-.78.88.88,0,0,0-.93.78Zm4,1.38a1.26,1.26,0,0,1-1.06.52,1.64,1.64,0,0,1,0-3.28,1.25,1.25,0,0,1,1.06.51v-.45h.69v3.15H180Zm-1-.16a1,1,0,1,0-1-1A1,1,0,0,0,179,69.22ZM181.74,65h.69v4.86h-.69Zm2.7,1.71h.67v.57h-.67v2.58h-.69V67.25h-.57v-.57h.57V65.48h.69Zm2.09,3.15h-.69V65h.69v2.19a1.12,1.12,0,0,1,1-.55c.8,0,1.27.53,1.27,1.42v1.79h-.69V68.07a.71.71,0,0,0-.7-.78.81.81,0,0,0-.88.84Z" fill="#ac162c"/>
        <path id="dept-name" d="M111.29,77.91V73.26h1.81a2.34,2.34,0,0,1,0,4.65Zm.71-.66h1.09c.91,0,1.38-.73,1.38-1.65s-.47-1.67-1.38-1.67H112Zm7.14-.67h-2.5a.91.91,0,0,0,1,.79,1,1,0,0,0,.86-.45l.57.25a1.65,1.65,0,1,1-1.46-2.47,1.53,1.53,0,0,1,1.58,1.63C119.15,76.4,119.15,76.51,119.15,76.58Zm-.67-.51a.85.85,0,0,0-.9-.78.88.88,0,0,0-.93.78Zm2.23-.85a1.22,1.22,0,0,1,1.05-.53,1.64,1.64,0,0,1,0,3.28,1.18,1.18,0,0,1-1.05-.52v2H120V74.76h.69Zm1,2.08a.92.92,0,0,0,.94-1,1,1,0,1,0-.94,1Zm5,.15a1.26,1.26,0,0,1-1.06.52,1.64,1.64,0,0,1,0-3.28,1.25,1.25,0,0,1,1.06.51v-.45h.69v3.15h-.69Zm-1-.16a1,1,0,1,0-1-1A1,1,0,0,0,125.69,77.3Zm3.43.61h-.69V74.76h.69v.72c.16-.56.47-.79.86-.79a1.19,1.19,0,0,1,.56.12l-.11.64a1,1,0,0,0-.47-.11c-.59,0-.84.59-.84,1.43Zm3.2-3.15H133v.57h-.67v2.58h-.69V75.33h-.57v-.57h.57V73.56h.69Zm4.22,1.46v1.69h-.69V76.14c0-.49-.27-.77-.64-.77a.76.76,0,0,0-.8.84v1.69h-.69V74.76h.69v.47a1.11,1.11,0,0,1,1-.54,1,1,0,0,1,1,.63,1.14,1.14,0,0,1,1.06-.63c.78,0,1.21.51,1.21,1.4v1.81H138V76.15c0-.49-.26-.78-.67-.78A.76.76,0,0,0,136.54,76.22Zm6.16.36h-2.5a.91.91,0,0,0,1,.79,1,1,0,0,0,.86-.45l.57.25a1.65,1.65,0,1,1-1.46-2.47,1.53,1.53,0,0,1,1.58,1.63C142.7,76.4,142.7,76.51,142.69,76.58Zm-.67-.51a.85.85,0,0,0-.9-.78.88.88,0,0,0-.93.78Zm2.24,1.83h-.69V74.76h.69v.47a1.09,1.09,0,0,1,1-.54c.76,0,1.2.49,1.2,1.38v1.83h-.69V76.15c0-.5-.26-.78-.66-.78a.76.76,0,0,0-.81.84Zm4.09-3.15H149v.57h-.67v2.58h-.69V75.33h-.57v-.57h.57V73.56h.69Zm6.53,3.15h-.67l-2-3.33v3.33h-.71V73.26h.69l2,3.3v-3.3h.71Zm3.67-.45a1.26,1.26,0,0,1-1.06.52,1.64,1.64,0,0,1,0-3.28,1.25,1.25,0,0,1,1.06.51v-.45h.69v3.15h-.69Zm-1-.16a1,1,0,1,0-1-1A1,1,0,0,0,157.57,77.3Zm5.56-1.08v1.69h-.69V76.14c0-.49-.27-.77-.64-.77a.76.76,0,0,0-.8.84v1.69h-.69V74.76H161v.47a1.11,1.11,0,0,1,1-.54,1,1,0,0,1,1,.63,1.14,1.14,0,0,1,1.06-.63c.78,0,1.21.51,1.21,1.4v1.81h-.69V76.15c0-.49-.26-.78-.67-.78A.76.76,0,0,0,163.13,76.22Zm6.16.36h-2.5a.91.91,0,0,0,1,.79,1,1,0,0,0,.86-.45l.57.25a1.65,1.65,0,1,1-1.46-2.47,1.53,1.53,0,0,1,1.58,1.63C169.29,76.4,169.29,76.51,169.29,76.58Zm-.67-.51a.85.85,0,0,0-.9-.78.88.88,0,0,0-.93.78Z" fill="#565759"/>
        <path id="address" d="M111.42,84.79c.15.44.4.69.78.69a.86.86,0,0,0,.92-.9.78.78,0,0,0-.78-.87,1.15,1.15,0,0,0-.81.38l-.45-.31.32-2.19h2.06v.58h-1.57l-.23,1.32a1.08,1.08,0,0,1,.81-.33,1.25,1.25,0,0,1,1.21,1.41,1.41,1.41,0,0,1-1.48,1.48,1.34,1.34,0,0,1-1.28-1Zm4.37-3.26c1.11,0,1.42,1,1.42,2.27s-.31,2.26-1.42,2.26-1.43-1-1.43-2.26S114.68,81.54,115.79,81.54Zm0,4c.65,0,.84-.78.84-1.69s-.19-1.69-.84-1.69-.84.78-.84,1.69S115.13,85.49,115.79,85.49Zm6.06.51-1.74-3.43V86h-.6V81.35h.59l1.72,3.41V81.35h.6V86Zm2-.78a.41.41,0,0,1,.41.42.41.41,0,1,1-.82,0A.41.41,0,0,1,123.81,85.22Zm6.26-3.87h.56L131.1,86h-.59l-.35-3.42L129,85.48h-.54l-1.19-2.9L126.9,86h-.59l.48-4.65h.55l1.36,3.4Zm4.53,3.3h-2.24A.85.85,0,0,0,134,85l.53.23a1.4,1.4,0,0,1-1.32.83,1.51,1.51,0,0,1-1.46-1.65,1.49,1.49,0,0,1,1.46-1.63,1.46,1.46,0,0,1,1.42,1.63C134.6,84.48,134.6,84.58,134.59,84.65Zm-.6-.45c-.08-.57-.4-.84-.82-.84s-.73.28-.82.84Zm3.46,1.27a1,1,0,0,1-1,.58c-.76,0-1.33-.65-1.33-1.65s.56-1.64,1.32-1.64a1.08,1.08,0,0,1,1,.57V81.13H138V86h-.59Zm-.86-2.11a.92.92,0,0,0-.84,1,1,1,0,0,0,.84,1.06c.46,0,.86-.39.86-1.06A.94.94,0,0,0,136.59,83.37Zm2.64-2.08a.4.4,0,0,1,0,.8.4.4,0,1,1,0-.8Zm-.29,1.55V86h.59V82.84Zm2.75-.07a1.31,1.31,0,0,1,1.06.51l-.42.42a.88.88,0,0,0-.64-.34.94.94,0,0,0-.86,1,1,1,0,0,0,.86,1.07.85.85,0,0,0,.64-.35l.42.42a1.33,1.33,0,0,1-1.07.51,1.52,1.52,0,0,1-1.45-1.65A1.5,1.5,0,0,1,141.69,82.78Zm3.78,2.7a1,1,0,0,1-1,.58c-.75,0-1.33-.65-1.33-1.65s.58-1.64,1.33-1.64a1,1,0,0,1,1,.57v-.51h.59V86h-.59Zm-.86-2.11a.93.93,0,0,0-.84,1,1,1,0,0,0,.84,1.06c.46,0,.86-.39.86-1.06A.94.94,0,0,0,144.6,83.37Zm2.94-2.24V86H147V81.13ZM149.92,86V81.35h1.56c1.14,0,1.81,1,1.81,2.33S152.62,86,151.48,86Zm1.56-.59c.8,0,1.21-.75,1.21-1.73s-.41-1.75-1.21-1.75h-1v3.47Zm3.21.59h-.59V82.84h.59v.7c.1-.48.4-.77.71-.77a1,1,0,0,1,.5.13l-.09.58a.83.83,0,0,0-.42-.12c-.49,0-.7.49-.7,1.33Zm2.06-4.7a.4.4,0,0,1,0,.8.4.4,0,1,1,0-.8Zm-.29,1.55V86H157V82.84Zm1.79,0,.76,2.39.74-2.39h.66L159.29,86h-.57l-1.11-3.15Zm5.33,1.81h-2.24a.86.86,0,0,0,.84.82A.85.85,0,0,0,163,85l.53.23a1.4,1.4,0,0,1-1.32.83,1.51,1.51,0,0,1-1.46-1.65,1.49,1.49,0,0,1,1.46-1.63,1.46,1.46,0,0,1,1.42,1.63C163.58,84.48,163.58,84.58,163.58,84.65Zm-.6-.45c-.08-.57-.4-.84-.82-.84s-.73.28-.82.84Zm-51.35,8.54a.78.78,0,0,0,.8.82.77.77,0,0,0,.85-.69.8.8,0,0,0-.7-.83l-.51-.15a1.17,1.17,0,0,1-1-1.19,1.26,1.26,0,0,1,1.32-1.33,1.28,1.28,0,0,1,1.31,1.36h-.59a.72.72,0,0,0-.72-.78.68.68,0,0,0-.73.74c0,.21.08.49.57.63l.51.14a1.34,1.34,0,0,1-.31,2.66,1.36,1.36,0,0,1-1.39-1.4Zm5.13.82a1,1,0,0,1-1,.58c-.76,0-1.34-.65-1.34-1.65s.58-1.64,1.34-1.64a1,1,0,0,1,1,.57v-.51h.59v3.15h-.59Zm-.86-2.11a.93.93,0,0,0-.84,1,1,1,0,0,0,.84,1.06c.46,0,.86-.39.86-1.06A.94.94,0,0,0,115.9,91.45Zm2.94-2.24v4.86h-.59V89.22Zm2.23,1.71v.48h-.57v2.67h-.59V91.41h-.49v-.48h.49V89.74h.59v1.19Zm2.69-1.5v4.06h1.61v.59h-2.21V89.43Zm4.32,4.13a1,1,0,0,1-1,.58c-.75,0-1.33-.65-1.33-1.65s.58-1.64,1.33-1.64a1,1,0,0,1,1,.57v-.51h.59v3.15h-.59Zm-.86-2.11a.93.93,0,0,0-.84,1,1,1,0,0,0,.84,1.06c.46,0,.86-.39.86-1.06A.94.94,0,0,0,127.21,91.45Zm2.94,2.62h-.59V89.22h.59V92l.87-1h.73l-1.15,1.36L132,94.08h-.71l-1.17-1.47ZM135,92.74H132.8a.86.86,0,0,0,.84.82.85.85,0,0,0,.78-.47l.53.23a1.4,1.4,0,0,1-1.32.83,1.51,1.51,0,0,1-1.46-1.65,1.49,1.49,0,0,1,1.46-1.63A1.46,1.46,0,0,1,135,92.49C135,92.57,135,92.67,135,92.74Zm-.6-.45c-.08-.57-.4-.84-.82-.84s-.73.28-.82.84Zm4.47-2.91a1.8,1.8,0,0,1,1.5.8l-.44.38a1.29,1.29,0,0,0-1.06-.61c-.8,0-1.34.67-1.34,1.81s.54,1.8,1.34,1.8A1.29,1.29,0,0,0,140,93l.44.38a1.8,1.8,0,0,1-1.5.8c-1.13,0-1.94-.9-1.94-2.38S137.78,89.38,138.91,89.38Zm2.43,0a.4.4,0,0,1,0,.8.4.4,0,1,1,0-.8Zm-.29,1.55v3.15h.59V90.93Zm2.82,0v.48h-.57v2.67h-.59V91.41h-.49v-.48h.49V89.74h.59v1.19Zm.94,4.68.56-1.63-1.07-3.05h.63l.77,2.23.77-2.23h.62l-1.66,4.68Zm2.09-.69a2.56,2.56,0,0,0,.51-1.62H148a3,3,0,0,1-.72,1.77Zm5.82-2.33V89.43h.6V92.6a1.48,1.48,0,1,1-3,0V89.43h.6V92.6a.88.88,0,1,0,1.75,0Zm2.89-1.67v.48H155v2.67h-.59V91.41H154v-.48h.49V89.74H155v1.19Zm2.67,2.64a1,1,0,0,1-1,.58c-.76,0-1.34-.65-1.34-1.65s.58-1.64,1.34-1.64a1,1,0,0,1,1,.57v-.51h.59v3.15h-.59Zm-.86-2.11a.93.93,0,0,0-.84,1,1,1,0,0,0,.84,1.06c.46,0,.86-.39.86-1.06A.94.94,0,0,0,157.41,91.45Zm2.94,2.62h-.59V89.22h.59v2.19a.93.93,0,0,1,.86-.55c.69,0,1.12.51,1.11,1.4v1.83h-.59V92.29c0-.52-.28-.84-.65-.84s-.74.32-.74,1Zm4.1-1.33a1.28,1.28,0,0,1,.71-1.16,1.11,1.11,0,0,1-.42-.84,1,1,0,1,1,2.08,0,1.11,1.11,0,0,1-.42.84,1.35,1.35,0,1,1-1.94,1.16Zm1.34-.9h-.06a.79.79,0,0,0-.69.86.75.75,0,1,0,1.47,0,.79.79,0,0,0-.69-.86Zm0-.53c.25,0,.43-.28.43-.57s-.2-.57-.45-.57-.45.22-.45.57.18.57.42.57h.05Zm4.38,2.76h-.58v-.9h-1.94l2.08-3.49h.45V92.6h.54v.57h-.54Zm-.58-1.48V90.83l-1,1.77Zm2.2-2.16-.69.28v-.59l1.27-.54v4.49h-.58ZM174.4,92h-.34v-.53h.22a.63.63,0,0,0,.69-.68.6.6,0,0,0-.61-.62.72.72,0,0,0-.63.44l-.38-.35a1.19,1.19,0,0,1,1-.64,1.15,1.15,0,0,1,1.18,1.17,1.1,1.1,0,0,1-.53.93,1.21,1.21,0,0,1,.69,1.14,1.28,1.28,0,0,1-1.37,1.29,1.38,1.38,0,0,1-1.25-.92l.48-.32a.9.9,0,0,0,.77.69.72.72,0,0,0,.78-.73A.77.77,0,0,0,174.4,92Zm3.5-.36a1.24,1.24,0,0,0,.27-.72.68.68,0,0,0-.63-.74.75.75,0,0,0-.66.74l-.55-.16a1.24,1.24,0,0,1,1.21-1.15,1.22,1.22,0,0,1,1.21,1.3,2,2,0,0,1-.42,1.14l-1,1.43h1.49v.59h-2.42v-.26Z" fill="#414042"/>
      </g>
    </g>
    <g id="back">
      <rect x="220.5" width="220.5" height="126" fill="#fff"/>
      <rect x="220.5" width="220.5" height="126" fill="#ac162c"/>
      <rect x="220.5" width="220.5" height="126" fill="none" stroke="#231f20" stroke-width="0.5"/>
      <path d="M323.68,51.56V69h-3.27V61.81h-7V69h-3.22V51.56h3.22v7.33h7V51.56ZM328.5,69h11.06V66.14h-7.84V61.86h6.64V59h-6.64V54.45h7.58V51.56H328.5Zm26.42,0h3.42L351.8,51.56h-3.5L341.76,69h3.45l1.6-4.24h6.52Zm-4.87-13.74L352.26,62H347.9ZM361.21,69h10V66.14h-6.74V51.56h-3.24Zm10.24-14.5h4.92V69h3.27V54.53h4.92v-3H371.45Zm26.9-3v7.33h-7V51.56h-3.22V69h3.22V61.81h7V69h3.27V51.56ZM313.81,79.31V75.15h1v4.16a2.36,2.36,0,0,1-4.73,0V75.15h1v4.16a1.37,1.37,0,0,0,2.74,0m7.37-4.16h-1v4.52l-2.71-4.52h-.94v6.37h1V77l2.74,4.56h.91Zm1.6,6.37h1V75.15h-1ZM325,75.15l1.93,6.37h.92l1.92-6.37h-1l-1.37,4.74L326,75.15Zm5.91,6.37h3.93v-.9h-3V78.83h2.5v-.9h-2.5V76.05h2.86v-.91h-3.84Zm8.21-2.38a1.82,1.82,0,0,0,1.65-2,1.87,1.87,0,0,0-1.94-2h-2.49v6.37h1V79.18H338l1.59,2.34h1.19Zm-.33-3.09a1.12,1.12,0,0,1,0,2.23h-1.42V76.05Zm3.32,3.62a2.09,2.09,0,0,0,2.25,1.94,2,2,0,0,0,2.17-1.71c.1-.91-.43-1.64-1.72-2l-.81-.21c-.76-.19-.85-.58-.85-.83a1.12,1.12,0,0,1,2.21.08h1a1.89,1.89,0,0,0-2.07-1.89,1.94,1.94,0,0,0-2.1,1.82c0,.57.21,1.34,1.58,1.71l.8.2c.59.14,1,.44,1,1a1.08,1.08,0,0,1-1.2.87,1.19,1.19,0,0,1-1.27-1Zm5.71,1.85h1V75.15h-1Zm2.1-5.46h1.88v5.46h1V76.06h1.88v-.91h-4.75Zm8.79,5.46V78.6l2.45-3.46H360l-1.78,2.53-1.76-2.53h-1.17l2.42,3.45v2.92Zm8.64-6.45a3.27,3.27,0,1,0,3.24,3.27,3.22,3.22,0,0,0-3.24-3.27m0,5.58a2.31,2.31,0,1,1,2.25-2.3,2.25,2.25,0,0,1-2.25,2.3m4.47.87h1V78.83H375v-.9h-2.22V76.05h2.8v-.91h-3.78Zm11-2.21a1.37,1.37,0,0,1-2.74,0V75.15h-1v4.16a2.36,2.36,0,0,0,4.73,0V75.15h-1v4.16M385,76.06h1.88v5.46h1V76.06h1.88v-.91H385Zm9.55,5.46h1l-2.4-6.37h-1.06l-2.4,6.37h1l.61-1.59H394Zm-1.9-5.14,1,2.67h-1.91Zm8-1.23V77.9h-2.88V75.15h-1v6.37h1V78.8h2.88v2.72h1V75.15Zm-109.28-15c.56-.53,1.21-1.29,2-1.91M297.09,72l-3.31,1.33a.75.75,0,0,1-.53-1.4l3.84-1.53h0V68.29h0l-3.61-.17a.71.71,0,0,1,.08-1.41l3.52.16h0V65h0l-1.7-1.62a.7.7,0,0,1,1-1l.73.7V57.93c-3.09,4.52-9.49,9.11-3.92,20.15l3.92-3.88V72Zm-3-25.49a12.07,12.07,0,0,0-1,1.88l2.7.89a.43.43,0,1,1-.29.82l-2.72-.89a14,14,0,0,0-.6,2.52l3.83-.12a.44.44,0,1,1,0,.89l-3.94.12a11.33,11.33,0,0,0,.15,2.87L296.21,54a.46.46,0,0,1,.32.85l-4,1.56h0a8,8,0,0,0,.82,1.9c-.78.62-1.43,1.37-2,1.91-3.44-5.3-1-12.87,2.88-15.79h-12V55.58h3.73V70.41H274.75V55.58h3.73V44.39H259.88V55.58h3.73V74.19l7.46,7.42h18.56l.44-.51c-8.37-21.71,11-21.41,7.24-30.74a5.7,5.7,0,0,1,1,5.22h2.51V44.39h-4.88a7.07,7.07,0,0,0-1.37,1.4L295.71,47a.42.42,0,1,1-.62.56l-1-1.07" fill="#fff"/>
    </g>
  </g>
</svg>
