<svg xmlns="http://www.w3.org/2000/svg" xmlns:xlink="http://www.w3.org/1999/xlink" viewBox="0 0 295.11 203.13">
  <defs>
    <clipPath id="clip-path">
      <path d="M176.31,115.51a.87.87,0,0,1,.57-1,.35.35,0,0,0,.13-.1.13.13,0,0,0,0-.12l-.67-2.89a1.86,1.86,0,0,1,.29-1.41,1.23,1.23,0,0,1,1.12-.24.74.74,0,0,1,.54.32,2.15,2.15,0,0,1,.07,1.69l0,.08c0,.1-.49,1.44-.81,2.33l0,.08a.48.48,0,0,0,0,.19.33.33,0,0,0,.11.14.88.88,0,0,1-.26,1.61l-.18,0a.88.88,0,0,1-.86-.69m0-5.81a2.25,2.25,0,0,0-.39,1.77l.63,2.72a1.29,1.29,0,1,0,1.35.11c.81-2.3.83-2.4.83-2.43v0a2.52,2.52,0,0,0-.12-2,1.14,1.14,0,0,0-.81-.49,2.69,2.69,0,0,0-.42,0,1.41,1.41,0,0,0-1.06.4" fill="none"/>
    </clipPath>
    <clipPath id="clip-path-2">
      <path d="M177.34,95.32a5.18,5.18,0,1,0,5.2,5.17,5.18,5.18,0,0,0-5.2-5.17h0" fill="none"/>
    </clipPath>
    <radialGradient id="radial-gradient" cx="179.33" cy="92.95" r="9.37" gradientUnits="userSpaceOnUse">
      <stop offset="0" stop-color="#ac162c"/>
      <stop offset="0.52" stop-color="#b7142e" stop-opacity="0.86"/>
      <stop offset="1" stop-color="#c41230" stop-opacity="0.7"/>
    </radialGradient>
    <linearGradient id="linear-gradient" x1="180.05" y1="95.84" x2="174.66" y2="105.17" gradientUnits="userSpaceOnUse">
      <stop offset="0.15" stop-color="#ac162c"/>
      <stop offset="0.71" stop-color="#d62640"/>
    </linearGradient>
    <clipPath id="clip-path-3">
      <path d="M173.56,127.57V127a.41.41,0,0,1,.37-.44h6.27a.34.34,0,0,1,.26.13.48.48,0,0,1,.11.31v.52a.41.41,0,0,1-.37.44h-6.27a.41.41,0,0,1-.37-.44m-9.7-3.65a1.63,1.63,0,0,0-1.64,1.63v39a1.63,1.63,0,0,0,1.64,1.63h26.42a1.63,1.63,0,0,0,1.64-1.63v-39a1.63,1.63,0,0,0-1.64-1.62Z" fill="none"/>
    </clipPath>
    <radialGradient id="radial-gradient-2" cx="178.55" cy="123.47" r="144.47" gradientUnits="userSpaceOnUse">
      <stop offset="0" stop-color="#fff"/>
      <stop offset="0.39" stop-color="#333"/>
    </radialGradient>
    <clipPath id="clip-path-4">
      <path d="M163.92,124.2a.23.23,0,0,0-.23.23.23.23,0,0,0,.23.23h26.28a.23.23,0,0,0,.23-.23.23.23,0,0,0-.23-.23Z" fill="none"/>
    </clipPath>
    <radialGradient id="radial-gradient-3" cx="176.09" cy="119.39" r="51.54" gradientUnits="userSpaceOnUse">
      <stop offset="0" stop-color="#fff"/>
      <stop offset="0.39" stop-color="#808285"/>
    </radialGradient>
    <linearGradient id="linear-gradient-2" x1="177.17" y1="114.66" x2="177.17" y2="118.61" gradientUnits="userSpaceOnUse">
      <stop offset="0.68" stop-color="#e8e8e8"/>
      <stop offset="0.85" stop-color="#eaeaea"/>
      <stop offset="0.92" stop-color="#f1f1f1"/>
      <stop offset="0.96" stop-color="#fcfcfc"/>
      <stop offset="0.97" stop-color="#fff"/>
      <stop offset="0.98" stop-color="#e6e6e6"/>
      <stop offset="0.99" stop-color="#a6a6a6"/>
      <stop offset="1" stop-color="#6e6e6e"/>
    </linearGradient>
    <linearGradient id="linear-gradient-3" x1="179.52" y1="116.68" x2="179.52" y2="122.57" gradientUnits="userSpaceOnUse">
      <stop offset="0" stop-color="#d1d1d1"/>
      <stop offset="1" stop-color="#7a7a7a"/>
    </linearGradient>
    <linearGradient id="linear-gradient-4" x1="176.47" y1="114.74" x2="176.47" y2="120.69" gradientUnits="userSpaceOnUse">
      <stop offset="0" stop-color="#f7f7f7"/>
      <stop offset="1" stop-color="#e8e8e8"/>
    </linearGradient>
    <linearGradient id="linear-gradient-5" x1="178.09" y1="115.85" x2="176.35" y2="116.86" gradientUnits="userSpaceOnUse">
      <stop offset="0" stop-color="#424242"/>
      <stop offset="0.05" stop-color="#464646"/>
      <stop offset="0.11" stop-color="#535353"/>
      <stop offset="0.17" stop-color="#676767"/>
      <stop offset="0.22" stop-color="#848484"/>
      <stop offset="0.28" stop-color="#a9a9a9"/>
      <stop offset="0.34" stop-color="#d4d4d4"/>
      <stop offset="0.36" stop-color="silver"/>
      <stop offset="0.44" stop-color="#8d8d8d"/>
      <stop offset="0.52" stop-color="#636363"/>
      <stop offset="0.59" stop-color="#424242"/>
      <stop offset="0.66" stop-color="#2a2a2a"/>
      <stop offset="0.72" stop-color="#1c1c1c"/>
      <stop offset="0.78" stop-color="#171717"/>
    </linearGradient>
    <linearGradient id="linear-gradient-6" x1="177.49" y1="115.34" x2="176.95" y2="117.38" gradientUnits="userSpaceOnUse">
      <stop offset="0" stop-color="#e8e8e8"/>
      <stop offset="0.13" stop-color="#ccc"/>
      <stop offset="0.41" stop-color="#838383"/>
      <stop offset="0.81" stop-color="#0f0f0f"/>
    </linearGradient>
    <linearGradient id="linear-gradient-7" x1="177.22" y1="117.18" x2="177.22" y2="115.54" gradientUnits="userSpaceOnUse">
      <stop offset="0" stop-color="#fff"/>
      <stop offset="0.23" stop-color="#aeaeae"/>
      <stop offset="0.43" stop-color="#6d6d6d"/>
      <stop offset="0.6" stop-color="#3f3f3f"/>
      <stop offset="0.74" stop-color="#222"/>
      <stop offset="0.81" stop-color="#171717"/>
    </linearGradient>
    <linearGradient id="linear-gradient-8" x1="177.11" y1="118.18" x2="177.11" y2="127.25" gradientUnits="userSpaceOnUse">
      <stop offset="0" stop-color="#e8e8e8"/>
      <stop offset="0.46" stop-color="#eaeaea"/>
      <stop offset="0.63" stop-color="#f1f1f1"/>
      <stop offset="0.74" stop-color="#fcfcfc"/>
      <stop offset="0.76" stop-color="#fff"/>
      <stop offset="0.81" stop-color="#e6e6e6"/>
      <stop offset="0.92" stop-color="#a6a6a6"/>
      <stop offset="1" stop-color="#6e6e6e"/>
    </linearGradient>
    <linearGradient id="linear-gradient-9" x1="179.78" y1="120.47" x2="179.78" y2="127.17" xlink:href="#linear-gradient-3"/>
    <linearGradient id="linear-gradient-10" x1="176.31" y1="118.26" x2="176.31" y2="125.03" xlink:href="#linear-gradient-4"/>
    <linearGradient id="linear-gradient-11" x1="178.51" y1="119.65" x2="175.87" y2="121.18" xlink:href="#linear-gradient-5"/>
    <linearGradient id="linear-gradient-12" x1="177.6" y1="118.87" x2="176.77" y2="121.96" xlink:href="#linear-gradient-6"/>
    <linearGradient id="linear-gradient-13" x1="177.19" y1="121.66" x2="177.19" y2="119.17" xlink:href="#linear-gradient-7"/>
    <clipPath id="clip-path-5">
      <path d="M176.59,114.12a1.28,1.28,0,0,0,.61,2.42l0-.41a.87.87,0,0,1-.33-1.7.35.35,0,0,0,.13-.1.14.14,0,0,0,0-.12l-.37-1.64-.45-.14.38,1.69" fill="none"/>
    </clipPath>
    <symbol id="uhealth-block-red" data-name="uhealth-block-red" viewBox="0 0 8.23 8.66">
      <path id="uhealth-block-red-3" data-name="uhealth-block-red" d="M.42,8.46a.2.2,0,0,1-.21.21A.2.2,0,0,1,0,8.46V8.08H.09v.37a.12.12,0,0,0,.12.12.12.12,0,0,0,.12-.12V8.08H.42ZM1,8.08H.91v.41L.67,8.08H.58v.57H.67V8.24l.25.41H1Zm.14.57h.09V8.08H1.14Zm.63-.57H1.68l-.12.43-.12-.43H1.34l.17.57H1.6Zm.45,0H1.87v.57h.35V8.57H2V8.41h.22V8.33H2V8.16h.26Zm.37,0a.17.17,0,0,1,.17.18.16.16,0,0,1-.15.18l.15.21H2.65l-.14-.21H2.45v.21H2.36V8.08h.22m0,.28a.1.1,0,0,0,0-.2H2.45v.2Zm.5-.29a.18.18,0,0,0-.19.16c0,.05,0,.12.14.15l.07,0c.05,0,.09,0,.09.09a.1.1,0,0,1-.11.08A.11.11,0,0,1,3,8.49H2.88a.19.19,0,0,0,.2.17.18.18,0,0,0,.2-.15c0-.08,0-.15-.15-.18L3,8.31C3,8.3,3,8.26,3,8.24a.09.09,0,0,1,.1-.08.09.09,0,0,1,.1.09h.09a.17.17,0,0,0-.19-.17m.32.58h.09V8.08H3.39ZM4,8.08H3.58v.08h.17v.49h.09V8.16H4Zm.58,0H4.49l-.16.23-.16-.23H4.06l.22.31v.26h.09V8.39Zm.56,0a.29.29,0,1,1-.29.29.29.29,0,0,1,.29-.29m0,.5a.21.21,0,1,0-.2-.21.2.2,0,0,0,.2.21m.74-.49H5.55v.57h.09V8.41h.2V8.33h-.2V8.16h.25Zm.74,0H6.54v.37a.12.12,0,1,1-.25,0V8.08H6.2v.37a.21.21,0,0,0,.42,0Zm.54,0H6.74v.08h.17v.49H7V8.16h.17Zm.52.57H7.6l-.06-.14H7.31l-.05.14h-.1l.22-.57h.1Zm-.18-.22-.09-.24-.09.24Zm.72-.35H8.14v.25H7.89V8.08H7.8v.57h.09V8.41h.26v.24h.09Zm-7-.55H.93V6.88H.3v.65H0V6H.3v.66H.93V6h.29ZM2.63,6h-1V7.53h1V7.27h-.7V6.89h.6V6.63h-.6V6.22h.68ZM4.34,7.53H4l-.14-.38H3.3l-.14.38H2.85L3.44,6h.32ZM3.79,6.9l-.2-.6-.19.6ZM4.89,6H4.6V7.53h.9V7.27H4.89ZM6.7,6H5.52v.27H6v1.3h.29V6.23H6.7ZM8.23,6H7.94v.66H7.31V6H7V7.53h.29V6.88h.63v.65h.29Zm-2.76-4h0m.7-.27C5.8,2.23,5,2.8,5.7,4.16l.48-.48V3.41h0l-.41.16h0a.09.09,0,0,1-.09-.06.09.09,0,0,1,.05-.12l.47-.19V3l-.45,0a.09.09,0,0,1-.08-.09.09.09,0,0,1,.08-.08h0l.43,0h0V2.54h0L6,2.34A.09.09,0,0,1,6,2.2l.06,0,.09.09ZM6.64,0H6a.9.9,0,0,0-.17.17L6,.32V.4H5.93L5.81.26a1.53,1.53,0,0,0-.12.23L6,.6a.05.05,0,0,1,0,.07A.05.05,0,0,1,6,.71H6L5.65.59A1.67,1.67,0,0,0,5.58.9l.47,0h0a.06.06,0,0,1,.06.05A.05.05,0,0,1,6.05,1L5.57,1a1.35,1.35,0,0,0,0,.35l.48-.19h0a.06.06,0,0,1,.05,0,.06.06,0,0,1,0,.07l-.5.19a.94.94,0,0,0,.1.23c-.09.07-.17.16-.24.23h0A1.56,1.56,0,0,1,5.82,0H4.34V1.38H4.8V3.21H3.42V1.38h.46V0H1.59V1.38H2v2.3L3,4.59H5.26l.05-.06c-1-2.68,1.35-2.64.89-3.79a.7.7,0,0,1,.13.64h.31Z" fill="#ac162c"/>
    </symbol>
    <symbol id="uhealth-block-white" data-name="uhealth-block-white" viewBox="0 0 6.38 5.85">
      <path id="uhealth-block-white-3" data-name="uhealth-block-white" d="M4.86,2.54c.09-.08.19-.2.31-.29m.54,2.14-.52.2a.11.11,0,0,1-.14-.07.11.11,0,0,1,.07-.15l.6-.23V3.81h0l-.56,0a.11.11,0,0,1,0-.22l.55,0V3.3L5.48,3a.11.11,0,0,1,.15-.15L5.74,3l0-.8c-.49.69-1.5,1.38-.67,3.11l.62-.59V4.38Zm-.39-4a1.79,1.79,0,0,0-.15.29l.42.14a.07.07,0,1,1,0,.13L5.12.84a2.26,2.26,0,0,0-.1.39h.59a.07.07,0,0,1,.07.07.07.07,0,0,1-.07.07H5a1.74,1.74,0,0,0,0,.45l.61-.22a.07.07,0,0,1,0,.13L5.05,2a1.21,1.21,0,0,0,.12.3c-.12.09-.23.21-.32.29A2,2,0,0,1,5.35.1L3.49.07l0,1.73H4l0,2.3-1.73,0,0-2.3h.58l0-1.73L0,0,0,1.73H.58L.52,4.63,1.66,5.8l2.87.05.07-.08C3.37,2.39,6.36,2.49,5.81,1A.88.88,0,0,1,6,1.85h.39l0-1.73H5.62A1.11,1.11,0,0,0,5.4.32l.17.19a.07.07,0,0,1,0,.09.07.07,0,0,1-.09,0L5.33.43" fill="#fff"/>
    </symbol>
  </defs>
  <title>coat</title>
  <g id="coat">
    <g id="coat-body">
      <path d="M290.62,189c-1.3-6.52-8.64-43.42-11.62-54.64-1.23-4.6-1.58-9.18-2.92-13.92-3.18-11.32-14.14-67.21-14.73-68.17a17.6,17.6,0,0,0-3.61-4.21,20,20,0,0,0-3.5-2.36c-2.29-1.23-4.87-2.18-7.37-3.38a119.16,119.16,0,0,0-12-5c-6.27-2.11-11.63-4.23-17.85-5.57a35.84,35.84,0,0,1-10.9-4.54L185.34,8.86a15.24,15.24,0,0,0-2.43-2.15h0a15.06,15.06,0,0,0-1.69-1C177.11,3.49,174,3.54,168.78,3c-6.48-.68-13.08.28-19.64.62-4.67.24-9.57-.53-14.17.12s-7.34,1.58-9.7,3.77h0l-.08.08c-.25.24-.5.49-.75.76L105.59,27.47a101,101,0,0,1-13.79,6.28C85.27,36.26,79.63,39,72.54,40.31c-4.71.86-13.8,4.68-13.8,4.68.22-.08-.6,1.5-1.5,3.33l0-.25,0,.31C56.59,49.63,55.94,51,55.55,52,51.47,62.8,13,150.52,8.19,163.08c-1.65,4.31-5.09,13.06-5.74,17.27-.52,3.38.81,7.2,2,10.11A88.39,88.39,0,0,1,7.69,200.8H66.33c4.71-16.51,11.78-41.06,12.22-42.92.73,10.13-1.37,20.32-1.83,30.37-.19,4.17-.31,8.36-.41,12.54H292.41c-.82-5.67-1.49-10.28-1.79-11.78" fill="#fff"/>
      <path d="M125.66,7.51a68.73,68.73,0,0,0,5.5,25.27C135,42,150.25,94.59,155,111.16c1,3.6,3.92,10.79,3.92,10.79l-2.36,6.9s-6.08-8.8-9.11-13c-6-8.24-12.63-15.73-18.81-23.67-5-6.4-9.25-13-13.65-19.52-3.46-5.14-7.41-6.4-11.91-9.92,1.86-6.72,9.17-10.23,14.07-15.28-6.53-.44-13.12,1-19.78.46,3.75-3.23,6.91-12.34,8.54-20.47Z" fill="#fff"/>
      <path d="M183.3,6.7c.35,4.08.24,8.59.57,11.25,1.15,9.27-.52,17.56-3.47,26.42-4.88,14.64-18.25,59.93-20.64,69.18-2.3,8.89-4.51,17-8.74,25.25,5.7-6.69,10.62-15.17,15.44-22.09,4.49-6.44,21-27.59,26.39-32.39,6.93-6.19,19.6-20.66,18.41-21.48-3.31-2.27-5.25-5-7.52-7.56s-4.45-6.79-6.77-7.74c7,0,13.8,1.34,20.84,1.55a78.4,78.4,0,0,1-10.9-21.5Z" fill="#fff"/>
      <path d="M57.58,48.08c.34,6.41,1.19,17.74,3.73,23.41,2.89,6.45,7.26,13.28,9.45,20.53,2.79,9.24,2.11,20.37,2.64,30,1.18,21.48,4.49,30.45,5.55,35.88" fill="#fff"/>
      <path d="M57.58,48.08c.34,6.41,1.19,17.74,3.73,23.41,2.89,6.45,7.26,13.28,9.45,20.53,2.79,9.24,2.11,20.37,2.64,30,1.18,21.48,4.49,30.45,5.55,35.88" fill="none" stroke="#231f20" stroke-width="0.77"/>
      <path id="pocket" d="M186.64,126.64c7.89-3.57,47.32-.11,47.32-.11s-2.38,19.7-2.46,26.48c-.09,7.77.94,30.69.94,30.69s-11.59,4.84-20.24,5.45c-13.07-1.82-19.82-5.12-24.37-8.38-1.9-8.84-.25-19.5-.09-28.52.17-9.29-1.11-25.61-1.11-25.61" fill="none" stroke="#231f20" stroke-width="0.58"/>
      <path d="M165.54,154.93a5.48,5.48,0,1,1-5.48-5.31,5.39,5.39,0,0,1,5.48,5.31" fill="#fff"/>
      <ellipse cx="160.06" cy="154.93" rx="5.48" ry="5.31" fill="none" stroke="#231f20" stroke-width="0.77"/>
      <path id="button-holes" d="M159.75,153.82a.75.75,0,1,1-.75-.75.75.75,0,0,1,.75.75m2.12,0a.75.75,0,1,0-.75.75.75.75,0,0,0,.75-.75M159.75,156a.75.75,0,1,0-.75.75.75.75,0,0,0,.75-.75m2.12,0a.75.75,0,1,0-.75.75.75.75,0,0,0,.75-.75" fill="#231f20"/>
      <path d="M187.3,136.56c7.89-3.57,45.54-.07,45.54-.07" fill="none" stroke="#231f20" stroke-width="0.58"/>
      <path d="M242.28,121.95c.33,5.84.45,21.76,1,27.55,1.61,15.74-2.92,23.68-1.22,39.4a40.62,40.62,0,0,1-.44,11.91h51.14C292,195.13,291.3,190.52,291,189c-1.3-6.52-8.64-43.42-11.62-54.64-1.22-4.6-1.59-9.18-2.92-13.92-3.18-11.32-14.14-67.21-14.73-68.17a17.63,17.63,0,0,0-3.61-4.21c-3.38,12.92-2.59,26.79-7,38.82C246.08,100.92,241.42,106.68,242.28,121.95Z" fill="none" stroke="#231f20" stroke-width="0.77"/>
      <path d="M78.94,157.89c.73,10.13-1.37,20.33-1.83,30.37-.19,4.17-.31,8.36-.41,12.54H148.1c.25-19.22.41-32.93.41-36.73,0-11.17,2.49-25.27,2.49-25.27s-2.49,14.1-2.49,25.27c0,3.8-.16,17.51-.41,36.73h93.56a40.68,40.68,0,0,0,.45-11.91c-1.71-15.71,2.83-23.66,1.22-39.4-.59-5.79-.72-21.71-1-27.54-.86-15.26,3.8-21,8.89-35,4.37-12,3.58-25.9,7-38.82a20,20,0,0,0-3.5-2.36c-2.29-1.23-4.87-2.18-7.37-3.38a119.17,119.17,0,0,0-12-5c-6.27-2.1-11.63-4.23-17.85-5.57-6.71-1.44-11.41-4.92-16.84-8.16-4.95-3-6.72-2.5-9.76-7.37S186,8,181.61,5.67c-4.12-2.17-7.26-2.12-12.45-2.67-6.48-.68-13.08.28-19.64.62-4.67.24-9.57-.53-14.18.11-7.43,1-9.8,2.78-13.9,9.18-4.52,7-8.19,10.24-14.18,13.8a96,96,0,0,1-15.08,7C85.66,36.26,80,39,72.93,40.31c-4.7.86-13.8,4.68-13.8,4.68.38-.13-2.21,4.44-3.19,7C51.85,62.8,13.39,150.52,8.58,163.08c-1.65,4.31-5.1,13.06-5.74,17.27-.52,3.38.81,7.2,2,10.11A88.38,88.38,0,0,1,8.07,200.8H66.72C71.43,184.29,78.5,159.74,78.94,157.89Z" fill="none" stroke="#231f20" stroke-width="0.77"/>
      <path d="M125.66,7.51a68.73,68.73,0,0,0,5.5,25.27C135,42,150.25,94.59,155,111.16c1,3.6,3.92,10.79,3.92,10.79l-2.36,6.9s-6.08-8.8-9.11-13c-6-8.24-12.63-15.73-18.81-23.67-5-6.4-9.25-13-13.65-19.52-3.46-5.14-7.41-6.4-11.91-9.92,1.86-6.72,9.17-10.23,14.07-15.28-6.53-.44-13.12,1-19.78.46,3.75-3.23,6.91-12.34,8.54-20.47Z" fill="#fff"/>
      <path d="M183.3,6.7c.35,4.08.24,8.59.57,11.25,1.15,9.27-.52,17.56-3.47,26.42-4.88,14.64-18.25,59.93-20.64,69.18-2.3,8.89-4.51,17-8.74,25.25,5.7-6.69,10.62-15.17,15.44-22.09,4.49-6.44,21-27.59,26.39-32.39,6.93-6.19,19.6-20.66,18.41-21.48-3.31-2.27-5.25-5-7.52-7.56s-4.45-6.79-6.77-7.74c7,0,13.8,1.34,20.84,1.55a78.4,78.4,0,0,1-10.9-21.5Z" fill="#fff"/>
      <path id="collar" d="M125.66,7.51a68.73,68.73,0,0,0,5.5,25.27C135,42,150.25,94.59,155,111.16c.67,2.3,2.08,6.06,3,8.48l-2.35,7.92c-1.8-2.6-5.9-8.49-8.21-11.68-6-8.24-12.64-15.73-18.81-23.67-5-6.4-9.25-13-13.65-19.52-3.46-5.14-7.41-6.4-11.91-9.92,1.86-6.72,9.17-10.23,14.07-15.28-6.53-.44-13.12,1-19.78.46,3.75-3.23,6.91-12.34,8.54-20.47Zm57.64-.8c.35,4.08.24,8.59.57,11.25,1.15,9.27-.52,17.56-3.47,26.42-4.88,14.64-18.25,59.93-20.65,69.18-2.3,8.89-4.51,17-8.74,25.25,5.7-6.69,10.62-15.17,15.44-22.09,4.49-6.44,21-27.59,26.39-32.39,6.93-6.19,19.6-20.66,18.41-21.48-3.31-2.27-5.25-5-7.52-7.56s-4.45-6.79-6.77-7.74c7,0,13.8,1.34,20.84,1.55a78.39,78.39,0,0,1-10.9-21.5Z" fill="none" stroke="#231f20" stroke-width="0.77"/>
      <use id="uhealth-block-red-4" data-name="uhealth-block-red" width="8.23" height="8.66" transform="translate(90.56 93.23) scale(3.72)" xlink:href="#uhealth-block-red"/>
      <g id="name-dept">
        <text transform="translate(189.53 108.37)" font-size="5.59" fill="#ac162c" font-family="SofiaProSemiBold, Sofia Pro" font-weight="700"><tspan letter-spacing="0.02em">J</tspan><tspan x="1.79" y="0" letter-spacing="0.02em">o</tspan><tspan x="5.05" y="0" letter-spacing="0.02em">h</tspan><tspan x="8.44" y="0" letter-spacing="0em">n </tspan><tspan x="12.99" y="0" letter-spacing="0.06em">A</tspan><tspan x="16.97" y="0">. </tspan><tspan x="19.88" y="0" letter-spacing="0.02em">D</tspan><tspan x="23.99" y="0" letter-spacing="0.02em">o</tspan><tspan x="27.26" y="0" letter-spacing="0.01em">e</tspan><tspan x="30.42" y="0">, </tspan><tspan x="33.31" y="0" letter-spacing="0.02em">M</tspan><tspan x="38.59" y="0">D</tspan></text>
        <text transform="translate(199.87 113.95)" font-size="4.19" fill="#ac162c" font-family="SofiaProLight, Sofia Pro"><tspan letter-spacing="0.02em">C</tspan><tspan x="2.89" y="0" letter-spacing="0.02em">a</tspan><tspan x="5.55" y="0" letter-spacing="0.02em">r</tspan><tspan x="7.21" y="0" letter-spacing="0.02em">di</tspan><tspan x="10.92" y="0" letter-spacing="0.03em">ol</tspan><tspan x="14.55" y="0" letter-spacing="0.03em">o</tspan><tspan x="17.12" y="0" letter-spacing="0.03em">g</tspan><tspan x="19.79" y="0">y</tspan></text>
      </g>
    </g>
    <g id="badge">
      <g id="badge-clip-1">
        <g clip-path="url(#clip-path)">
          <g id="crookedgreyblack">
            <rect x="-251.07" y="157.76" width="1001.73" height="417.39" transform="translate(-193.63 358.75) rotate(-54.73)" fill="#808285"/>
            <rect x="-644.37" y="-184.83" width="1001.73" height="546.12" transform="matrix(0.58, -0.82, 0.82, 0.58, -132.67, -79.88)" fill="#ccc"/>
          </g>
        </g>
      </g>
      <path id="badge-cir-tab" d="M177.55,104.43h-.38a.78.78,0,0,0-.78.78v5a.78.78,0,0,0,.78.78h.38a.78.78,0,0,0,.78-.78v-5a.78.78,0,0,0-.78-.78Z" fill="#ac162c"/>
      <path id="badge-cir-3" d="M177.33,94.5a6,6,0,1,0,6,6,6,6,0,0,0-6-6Z" fill="#d62640"/>
      <g id="badge-cir-2">
        <g clip-path="url(#clip-path-2)">
          <g opacity="0.85">
            <path d="M177.34,95.32a5.18,5.18,0,1,0,5.2,5.17,5.18,5.18,0,0,0-5.2-5.17h0" fill="#c41230"/>
            <path d="M179.31,83.58a9.37,9.37,0,1,0,9.4,9.34,9.37,9.37,0,0,0-9.4-9.34h0" fill="url(#radial-gradient)"/>
          </g>
        </g>
      </g>
      <path id="badge-cir-1" d="M173.84,104a5,5,0,1,1,3.53,1.45h0a4.94,4.94,0,0,1-3.51-1.45m3.49-8.92a5.39,5.39,0,1,0,5.4,5.37,5.39,5.39,0,0,0-5.4-5.37Z" fill="url(#linear-gradient)"/>
      <use width="6.38" height="5.85" transform="translate(174.1 98.02)" xlink:href="#uhealth-block-white"/>
      <g id="badge-border">
        <g clip-path="url(#clip-path-3)">
          <rect x="54.05" y="-38.53" width="249" height="324" fill="url(#radial-gradient-2)"/>
          <g clip-path="url(#clip-path-4)">
            <rect x="131.68" y="61.6" width="88.82" height="115.58" fill="url(#radial-gradient-3)"/>
          </g>
        </g>
      </g>
      <g id="badge-slot">
        <path d="M189.3,125H164.83c-1.06,0-1.52.47-1.52,1.54v36.92c0,1.27.29,1.54,1.52,1.54H189.3c1.15,0,1.52-.45,1.52-1.54V126.53c0-1-.31-1.54-1.52-1.54m-8.73,2.57a.41.41,0,0,1-.37.44h-6.27a.41.41,0,0,1-.37-.44V127a.41.41,0,0,1,.37-.44h6.27a.41.41,0,0,1,.37.44Z" fill="#fff"/>
        <path d="M180.2,126.47h-6.26a.51.51,0,0,0-.48.54v.52a.51.51,0,0,0,.48.54h6.26a.51.51,0,0,0,.48-.54V127a.51.51,0,0,0-.48-.54m.27,1.06a.31.31,0,0,1-.27.34h-6.26a.31.31,0,0,1-.27-.34V127a.31.31,0,0,1,.27-.34h6.26a.31.31,0,0,1,.27.34Z" fill="#d1d3d4"/>
      </g>
      <g id="badge-2" data-name="badge">
        <path d="M190.81,130.34v-3.81c0-1-.31-1.54-1.52-1.54H164.83c-1.06,0-1.52.47-1.52,1.54v3.77m17.25-2.73a.41.41,0,0,1-.37.44h-6.27a.41.41,0,0,1-.37-.44V127a.41.41,0,0,1,.37-.44h6.27a.41.41,0,0,1,.37.44Z" fill="#c41230"/>
        <rect x="163.32" y="129.61" width="27.49" height="30.95" fill="#f1f2f2"/>
        <path id="badge-no" d="M174,162.62c.28,0,.35.23.35.51s-.07.51-.35.51-.35-.23-.35-.51.07-.51.35-.51m0,.92c.2,0,.25-.18.25-.41s0-.41-.25-.41-.26.18-.26.41.05.41.26.41m1-.92c.28,0,.35.23.35.51s-.07.51-.35.51-.35-.23-.35-.51.07-.51.35-.51m0,.92c.2,0,.25-.18.25-.41s0-.41-.25-.41-.26.18-.26.41.05.41.26.41m1-.92c.28,0,.35.23.35.51s-.07.51-.35.51-.35-.23-.35-.51.07-.51.35-.51m0,.92c.2,0,.25-.18.25-.41s0-.41-.25-.41-.25.18-.25.41.05.41.25.41m1.23.08h-.1v-.21h-.52l.54-.78h.07v.69h.15v.09h-.15Zm-.1-.3v-.49l-.34.49Zm.64.3h.1v-1l-.27.1v.09l.17-.06Zm.44-.19a.38.38,0,0,0,.33.21.32.32,0,0,0,.35-.33.3.3,0,0,0-.32-.31.44.44,0,0,0-.2.06l.06-.33h.4v-.1h-.48l-.09.49,0,.05a.53.53,0,0,1,.27-.08.21.21,0,0,1,.22.21.22.22,0,0,1-.25.22.28.28,0,0,1-.25-.17Zm1.09.19h.1v-1l-.27.1v.09l.17-.06Zm.79-1a.25.25,0,0,1,.26.24.23.23,0,0,1-.09.19.31.31,0,0,1,.17.27.33.33,0,0,1-.67,0,.31.31,0,0,1,.17-.27.23.23,0,0,1-.09-.19.24.24,0,0,1,.25-.24m0,.92a.22.22,0,0,0,.24-.22.23.23,0,0,0-.24-.22h0a.23.23,0,0,0-.23.22.22.22,0,0,0,.24.22m0-.53h0a.15.15,0,1,0,0-.29.15.15,0,1,0,0,.29" fill="#808285"/>
        <use width="8.23" height="8.66" transform="translate(179.47 134.78)" xlink:href="#uhealth-block-red"/>
        <path id="name" d="M173.74,146.19h1.11v.3h-.77V147h.61v.3h-.61V148h-.34Zm1.48,1.82h.34v-1.82h-.34Zm1.72-.66a.54.54,0,0,0,.46-.57.56.56,0,0,0-.58-.59h-.73V148h.34v-.65h.14l.43.65h.41Zm-.14-.86a.29.29,0,0,1,0,.57h-.37v-.57Zm.93,1a.6.6,0,0,0,.65.56.58.58,0,0,0,.64-.52c0-.21-.09-.45-.5-.56l-.23-.07c-.2-.05-.22-.15-.22-.21s.12-.21.27-.21a.24.24,0,0,1,.27.24H179a.55.55,0,0,0-.61-.55.56.56,0,0,0-.61.54c0,.16.06.39.46.51l.22.06c.18,0,.26.13.25.25s-.12.22-.3.22a.29.29,0,0,1-.32-.26Zm1.53-1h.51V148h.34V146.5h.52v-.31h-1.37Zm-7.68,3.14a.39.39,0,0,0,.42.38.37.37,0,0,0,.31-.15c0,.12.15.15.33.15v-.2c-.15,0-.18-.05-.18-.2v-.21h.15v-.18h-.15v-.15h-.21v.15H172a.15.15,0,0,1-.15-.15A.14.14,0,0,1,172,149a.16.16,0,0,1,.13.07l.19-.11a.4.4,0,0,0-.34-.17.35.35,0,0,0-.35.34.26.26,0,0,0,.13.24.33.33,0,0,0-.2.32m.23,0a.2.2,0,0,1,.21-.21h.23v.13a.23.23,0,0,1-.23.26.19.19,0,0,1-.21-.18m1.61.37h.65v-.19h-.44v-1h-.21Zm1.66,0h.22l-.43-1.14h-.23l-.43,1.14h.23l.11-.28H175Zm-.32-.9.14.43h-.28Zm.67.56a.37.37,0,0,0,.41.35.36.36,0,0,0,.4-.32c0-.13-.06-.28-.31-.35l-.14,0c-.12,0-.14-.09-.14-.13s.08-.14.17-.14a.15.15,0,0,1,.17.15h.21a.35.35,0,0,0-.38-.34.35.35,0,0,0-.38.33c0,.1,0,.25.29.32l.14,0c.11,0,.16.08.16.15s-.07.14-.19.14a.18.18,0,0,1-.2-.16Zm1-.61h.32V150h.21v-.95h.32v-.19h-.85Zm2.4-.19h-.21v.74l-.43-.74H178V150h.21v-.75l.44.75h.19Zm1.07,1.14h.22l-.43-1.14h-.23L179,150h.22l.11-.28h.42Zm-.32-.9.14.43h-.29Zm1.4.53-.36-.77h-.18l-.14,1.14h.21l.09-.76.3.63H181l.3-.63.09.76h.21l-.14-1.14h-.18Zm1,.37h.72v-.19h-.51v-.28h.43v-.19h-.43v-.3h.49v-.19h-.7Z" fill="#414042"/>
        <g id="title-dept">
          <path d="M188.29,152v4.82a.34.34,0,0,1-.33.34h-21.7a.34.34,0,0,1-.33-.34V152a.34.34,0,0,1,.33-.34h10.32l.59-.64.62.64H188A.34.34,0,0,1,188.29,152Zm-22.35,2.29h22.39" fill="none" stroke="#c41230" stroke-miterlimit="10" stroke-width="0.26"/>
          <path id="job-title" d="M173.59,153.68l.12,0c.1,0,.14-.08.14-.16v-1H174v1a.31.31,0,0,1-.33.34l-.14,0Zm1.18-1.19a.53.53,0,1,0,.52.53.52.52,0,0,0-.52-.53m0,.87a.34.34,0,1,1,.33-.34.33.33,0,0,1-.33.34m1.29-.38a.2.2,0,0,0,.14-.2.27.27,0,0,0-.3-.28h-.4v1h.43a.3.3,0,0,0,.32-.31.25.25,0,0,0-.19-.24m-.37-.07v-.24h.19a.11.11,0,0,1,.12.12.11.11,0,0,1-.11.12Zm.23.16a.14.14,0,0,1,.13.14.13.13,0,0,1-.13.14h-.23v-.28Zm.8-.4H177v.85h.19v-.85h.29v-.18h-.77Zm1,.85h.19v-1h-.19Zm.37-.85h.29v.85h.19v-.85h.29v-.18H178Zm1,.85h.59v-.17h-.4v-.86H179Zm.77,0h.65v-.17H180v-.25h.39v-.17H180v-.27h.44v-.17h-.63Z" fill="#c41230"/>
          <path id="dept" d="M172.45,156.26v-1h.39a.52.52,0,0,1,0,1Zm.1-.1h.29c.24,0,.36-.18.36-.41s-.12-.42-.36-.42h-.29Zm1-.93v1h.6v-.1h-.5v-.36h.43v-.1h-.43v-.38h.49v-.1Zm1.25,0a.31.31,0,0,1,0,.63h-.3v.4h-.1v-1Zm-.3.1v.43h.3a.22.22,0,0,0,0-.43Zm.63.93.39-1h.1l.4,1h-.11l-.1-.27h-.48l-.1.27Zm.45-.89-.2.53h.41Zm1.31.89h-.12l-.28-.4h-.17v.4h-.1v-1h.38a.32.32,0,0,1,0,.63Zm-.58-.93v.43h.27c.14,0,.19-.1.19-.21s0-.22-.18-.22Zm.7-.1v.1h.33v.93h.1v-.93h.33v-.1Zm1.5.8-.39-.8H178l-.12,1h.1l.1-.85.36.74h.1l.36-.74.1.85h.1l-.12-1h-.1Zm.87-.8v1h.6v-.1h-.5v-.36h.43v-.1h-.43v-.38H180v-.1Zm1.57,1v-1h-.1v.85l-.52-.85h-.11v1h.1v-.86l.52.86Zm.21-1v.1h.33v.93h.1v-.93h.33v-.1Z" fill="#c41230"/>
        </g>
        <rect x="166.83" y="133.24" width="9.59" height="11.22" fill="#ebebec"/>
        <path id="headshot" d="M175.77,143.57a1.39,1.39,0,0,1,0,.34.4.4,0,0,1-.36.16h-7.55a.36.36,0,0,1-.27-.09.35.35,0,0,1-.07-.27,12.7,12.7,0,0,1,.28-2.16,7.8,7.8,0,0,1,.34-1.18,1.27,1.27,0,0,1,.64-.68l.33-.14.34-.1.34-.1.13-.05a.16.16,0,0,1,.12,0,.1.1,0,0,1,0,0,.36.36,0,0,1,0,.09v.1a21.07,21.07,0,0,0,.68,2.22,3.77,3.77,0,0,0,.23.53l.09-.45.24-1.29a.3.3,0,0,0,0-.12,1,1,0,0,0,0-.14l0-.13a.18.18,0,0,1,.11-.26.37.37,0,0,1,.22-.08.42.42,0,0,1,.23.08.31.31,0,0,1,.11.1.18.18,0,0,1,0,.13.77.77,0,0,0-.05.34,2.71,2.71,0,0,0,.05.33l.06.33.22,1.13h0l0,0q-.05.11,0-.06a10.66,10.66,0,0,0,.39-1q.13-.4.3-1,.11-.38.2-.76s0-.06,0-.06h.07l.49.15.5.16a1.32,1.32,0,0,1,.85.83q.15.44.21.65a13.73,13.73,0,0,1,.33,1.78q.05.47.06.69Zm-6.4-6.65a.56.56,0,0,1,0-.47c0-.06.06-.09.11-.09l.06,0a.22.22,0,0,0,0-.06,3.36,3.36,0,0,1-.1-.87,1.66,1.66,0,0,1,.16-.62.7.7,0,0,1,.36-.34.17.17,0,0,0,.11-.08,1.76,1.76,0,0,1,1.73-.83,2.29,2.29,0,0,1,.79.19,1.83,1.83,0,0,1,.87.85.29.29,0,0,0,.07.1.5.5,0,0,1,.21.22,1.08,1.08,0,0,1,.08.29l0,.26a4.8,4.8,0,0,1-.1.82.13.13,0,0,0,0,.07s0,0,.07,0,.15,0,.16.15a.82.82,0,0,1,0,.27.4.4,0,0,1-.16.24l-.09.09-.11.09-.14,0h0l0,0v0a3.24,3.24,0,0,1-.81,1.27,1.49,1.49,0,0,1-.76.38,1.34,1.34,0,0,1-1.07-.33,2.59,2.59,0,0,1-.52-.58,5.32,5.32,0,0,1-.35-.69.45.45,0,0,0-.06-.11.22.22,0,0,0-.11-.06A.53.53,0,0,1,169.37,136.93Zm.6-1.28a1.16,1.16,0,0,0,0,.68.61.61,0,0,1,.17-.13.65.65,0,0,1,.22,0h.75a.24.24,0,0,1,.22.11.25.25,0,0,0,.26.12h.1a.14.14,0,0,0,.14-.06.3.3,0,0,1,.27-.16h.8a.63.63,0,0,1,.19,0,.34.34,0,0,1,.15.14,3.59,3.59,0,0,0,0-.66A1.81,1.81,0,0,0,173,135L173,135s0,0-.09,0a1.75,1.75,0,0,1-1.05.37,3,3,0,0,1-.68,0l.05,0a2.25,2.25,0,0,0,1.31,0h.13a.1.1,0,0,1,.07.07q.05.13-.14.18a1.92,1.92,0,0,1-.71.08,3,3,0,0,1-.84-.16,1.61,1.61,0,0,1-.68-.49l0,0,0,0A1.09,1.09,0,0,0,170,135.64Zm.2,1a.64.64,0,0,0,.11.29.32.32,0,0,0,.21.14.78.78,0,0,0,.75-.24.27.27,0,0,0,.08-.2.31.31,0,0,0-.08-.21l0,0,0,0-.08,0H171l0,0a0,0,0,0,0,0,0,.21.21,0,0,1,0,.16.16.16,0,0,1-.13.07.17.17,0,0,1-.14-.05.18.18,0,0,1,0-.15.1.1,0,0,0,0-.07l-.07,0a.13.13,0,0,1-.13,0s-.06,0-.12,0a.19.19,0,0,0-.11.21Zm2.88.6-.22.07h-.24a.94.94,0,0,1-.57-.2.79.79,0,0,1-.29-.52s0-.05,0-.05h-.13a0,0,0,0,0,0,.05.66.66,0,0,1-.45.61,1,1,0,0,1-.86,0v0a2.89,2.89,0,0,0,.74,1.08,1.08,1.08,0,0,0,.64.28,1,1,0,0,0,.64-.22,2.45,2.45,0,0,0,.64-.8A3,3,0,0,0,173.05,137.27Zm-.42-.15a.4.4,0,0,0,.26-.1.6.6,0,0,0,.18-.25.37.37,0,0,0,0-.28.14.14,0,0,0-.09-.11.13.13,0,0,0-.13,0,.16.16,0,0,1-.12,0h-.08s0,0,0,.08a.16.16,0,0,1,0,.12.17.17,0,0,1-.1.07.2.2,0,0,1-.14,0,.1.1,0,0,1-.07-.09.16.16,0,0,0-.05-.16.33.33,0,0,0-.16,0s-.07,0-.08,0a.39.39,0,0,0-.07.2.4.4,0,0,0,.17.29.84.84,0,0,0,.53.17Z" fill="#808285"/>
        <path id="barcode" d="M168.44,162.07h-.13v-3h.13Zm.29-3h-.06v3h.06Zm.59,0h-.21v3h.21Zm.75,0h-.28v3h.28Zm.34,0h-.06v3h.06Zm.46,0h-.21v3h.21Zm1.32,0H172v3h.13Zm-.39,0h-.13v3h.13Zm-.51,0h-.13v3h.13Zm1.77,0h-.2v3h.2Zm-.39,0h-.2v3h.2Zm.93,0h-.13v3h.13Zm.62,0H174v3h.21Zm.62,0h-.28v3h.28Zm.67,0h-.21v3h.21Zm-.26,0H175v3h.21Zm.54,0h-.13v3h.13Zm.71,0h-.4v3h.4Zm.86,0h-.06v3h.06Zm-.52,0h-.06v3h.06Zm.87,0h-.13v3h.13Zm.75,0h-.21v3h.21Zm.64,0h-.2v3h.2Zm.68,0h-.13v3h.13Zm-.39,0h-.13v3h.13Zm2,0h-.06v3h.06Zm-.26,0H181v3h.06Zm-.39,0h-.06v3h.06Zm-.26,0h-.06v3h.06Zm1.72,0h-.28v3h.28Zm.73,0h-.06v3h.06Zm-.39,0h-.06v3h.06Zm1.52,0h-.13v3H184Zm-.64,0h-.13v3h.13Zm1.39,0h-.21v3h.21Zm.31,0H185v3h.06Zm.36,0h-.13v3h.13Z"/>
      </g>
      <g id="badge-grom-sm-tab">
        <path d="M176.23,116.4a1,1,0,1,1,1,1,1,1,0,0,1-1-1m-1.42-1.74a.07.07,0,0,0-.07.07v3.81a.07.07,0,0,0,.07.07h4.72a.07.07,0,0,0,.07-.07v-3.81a.07.07,0,0,0-.07-.07Z" fill="url(#linear-gradient-2)"/>
        <path d="M179.48,116.77v5.71s0,.08,0,.09.05-.09.05-.09v-5.71s0-.09,0-.09,0,.09,0,.09" fill="url(#linear-gradient-3)"/>
        <path d="M174.88,114.79a.26.26,0,0,0,0,.18v5.62a.08.08,0,0,0,.05.09c.05,0,0-.09,0-.09V115c0-.07,0-.1,0-.12a.28.28,0,0,1,.13,0h3s.08,0,.08,0-.08,0-.08,0l-3,0c-.09,0-.16,0-.2,0" fill="url(#linear-gradient-4)"/>
      </g>
      <g id="badge-grom-sm">
        <path d="M178.23,116.56c.09-.12,0,.26-.09.39a1.07,1.07,0,0,1-1.86-1.08s0,1.19.61,1.39c.42.13,1.13-.44,1.33-.7" fill="#161515"/>
        <path id="_3" data-name="3" d="M176.82,117.05a.8.8,0,1,1,.4.11.79.79,0,0,1-.4-.11m-.47-1.2a1,1,0,1,0,.87-.5,1,1,0,0,0-.87.5" fill="url(#linear-gradient-5)"/>
        <path id="_2" data-name="2" d="M176.72,117.22a1,1,0,1,1,.5.13,1,1,0,0,1-.5-.13m-.41-1.4a1.06,1.06,0,0,0,.38,1.44,1.06,1.06,0,1,0-.38-1.44" fill="url(#linear-gradient-6)"/>
        <path id="_1" data-name="1" d="M176.83,117a.77.77,0,0,1-.36-.48.76.76,0,0,1,.08-.59.78.78,0,1,1,.28,1.07m-.32-1.09a.82.82,0,1,0,1.42.83.82.82,0,0,0-1.42-.83" fill="url(#linear-gradient-7)"/>
      </g>
      <g id="badge-grom-lg-tab">
        <path d="M175.62,120.42a1.56,1.56,0,1,1,1.56,1.56,1.56,1.56,0,0,1-1.56-1.56m-1.19-2.24a.08.08,0,0,0-.08.08v8.9a.08.08,0,0,0,.08.08h5.36a.08.08,0,0,0,.08-.08v-8.9a.08.08,0,0,0-.08-.08Z" fill="url(#linear-gradient-8)"/>
        <g>
          <path d="M179.73,120.57v6.5s0,.09,0,.1.06-.1.06-.1v-6.5s0-.11-.05-.11-.05.11-.05.11" fill="url(#linear-gradient-9)"/>
          <path d="M174.5,118.32a.29.29,0,0,0-.06.21v6.4a.09.09,0,0,0,.06.1c.06,0,.05-.1.05-.1v-6.4c0-.07,0-.12,0-.13a.32.32,0,0,1,.15,0l3.36,0s.09,0,.09-.05-.09-.06-.09-.06l-3.36,0c-.1,0-.18,0-.23.05" fill="url(#linear-gradient-10)"/>
        </g>
      </g>
      <g id="badge-grom-lg">
        <path d="M178.71,120.71c.14-.18,0,.39-.13.6a1.63,1.63,0,0,1-2.81-1.64s-.08,1.8.92,2.1c.63.19,1.71-.67,2-1.06" fill="#161515"/>
        <path id="_3-2" data-name="3" d="M176.57,121.47a1.21,1.21,0,1,1,.61.17,1.2,1.2,0,0,1-.61-.17m-.71-1.82a1.52,1.52,0,1,0,1.32-.76,1.53,1.53,0,0,0-1.32.76" fill="url(#linear-gradient-11)"/>
        <path id="_2-2" data-name="2" d="M176.43,121.72a1.52,1.52,0,1,1,.76.2,1.5,1.5,0,0,1-.76-.2m-.62-2.11a1.6,1.6,0,0,0,.58,2.19,1.6,1.6,0,1,0-.58-2.19" fill="url(#linear-gradient-12)"/>
        <path id="_1-2" data-name="1" d="M176.59,121.44a1.17,1.17,0,0,1-.55-.72,1.15,1.15,0,0,1,.12-.89,1.18,1.18,0,1,1,.43,1.61m-.48-1.65a1.25,1.25,0,1,0,2.15,1.25,1.25,1.25,0,0,0-2.15-1.25" fill="url(#linear-gradient-13)"/>
      </g>
      <g id="badge-clip-2">
        <g clip-path="url(#clip-path-5)">
          <g id="crookedgreyblack-2" data-name="crookedgreyblack">
            <rect x="-249.07" y="157.76" width="1001.73" height="417.39" transform="translate(-192.78 360.38) rotate(-54.73)" fill="#808285"/>
            <rect x="-642.37" y="-184.83" width="1001.73" height="546.12" transform="matrix(0.58, -0.82, 0.82, 0.58, -131.82, -78.25)" fill="#ccc"/>
          </g>
        </g>
      </g>
    </g>
  </g>
</svg>
