<svg xmlns="http://www.w3.org/2000/svg" viewBox="0 0 75 85">
  <title>dont-b3</title>
  <g id="b3">
    <g id="block-bevel">
      <path d="M53,7.16,50.08,9.34a7.07,7.07,0,0,1,1.37-1.42l2.88-2.18A7.07,7.07,0,0,0,53,7.16" fill="#730713"/>
      <polygon points="54.13 8.39 51.25 10.57 50.08 9.34 52.96 7.16 54.13 8.39" fill="#730713"/>
      <path d="M54.1,9,51.21,11.2l0,0a.43.43,0,0,0,0-.61l2.89-2.18a.43.43,0,0,1,0,.61l0,0" fill="#730713"/>
      <path d="M54.43,11.44l-2.88,2.18a.42.42,0,0,0,.15-.2.45.45,0,0,0-.29-.56l2.88-2.18a.45.45,0,0,1,.29.56.42.42,0,0,1-.15.2" fill="#730713"/>
      <path d="M56.88,17.08,54,19.26A5.84,5.84,0,0,0,52.9,14l2.89-2.18a5.84,5.84,0,0,1,1.1,5.29" fill="#730713"/>
      <path d="M54.85,13.84,52,16a.44.44,0,0,0,.18-.37.47.47,0,0,0-.47-.44L54.56,13a.47.47,0,0,1,.47.44.44.44,0,0,1-.18.37" fill="#730713"/>
      <path d="M51.55,9.77,48.66,12A12.15,12.15,0,0,1,49.6,10l2.89-2.18a12.2,12.2,0,0,0-.94,1.9" fill="#730713"/>
      <polygon points="54.29 10.67 51.41 12.85 48.66 11.95 51.55 9.77 54.29 10.67" fill="#730713"/>
      <polygon points="59.42 17.08 56.54 19.26 54 19.26 56.88 17.08 59.42 17.08" fill="#730713"/>
      <path d="M55.19,16.23,52.3,18.41a.46.46,0,0,0,.15-.53.47.47,0,0,0-.44-.3.44.44,0,0,0-.16,0l2.89-2.18a.44.44,0,0,1,.16,0,.47.47,0,0,1,.44.3.46.46,0,0,1-.15.53" fill="#730713"/>
      <path d="M50.69,13.15l-2.89,2.18a14.2,14.2,0,0,1,.56-2.55l2.89-2.18a14.29,14.29,0,0,0-.56,2.55" fill="#730713"/>
      <polygon points="54.56 13.03 51.68 15.21 47.81 15.33 50.7 13.15 54.56 13.03" fill="#730713"/>
      <path d="M50.81,17l-2.89,2.18a11.5,11.5,0,0,1-.19-2.91l2.88-2.18A11.5,11.5,0,0,0,50.81,17" fill="#730713"/>
      <polygon points="54.74 15.43 51.85 17.61 47.92 19.14 50.81 16.97 54.74 15.43" fill="#730713"/>
      <polyline points="50.81 16.97 50.8 16.97 50.81 16.97 50.81 16.97" fill="#730713"/>
      <polygon points="50.81 16.97 47.92 19.15 47.92 19.15 50.8 16.97 50.81 16.97" fill="#730713"/>
      <path d="M51.89,19.8,49,22a8.21,8.21,0,0,1-.86-1.93L51,17.88a8.2,8.2,0,0,0,.86,1.93" fill="#730713"/>
      <polygon points="55.77 24.67 52.88 26.85 52.13 26.14 55.02 23.96 55.77 24.67" fill="#730713"/>
      <path d="M55,24l-2.89,2.18a.68.68,0,0,0-.47-.19.7.7,0,0,0-.42.14l2.88-2.18a.7.7,0,0,1,.42-.14A.68.68,0,0,1,55,24" fill="#730713"/>
      <path d="M49.92,21.73,47,23.91c.61-.6,1.24-1.33,2-1.93l2.89-2.18c-.74.6-1.37,1.33-2,1.93" fill="#730713"/>
      <path d="M50,21.66l-.07.07Z" fill="#730713"/>
      <polygon points="55.82 28.53 52.94 30.71 49.38 30.55 52.27 28.37 55.82 28.53" fill="#730713"/>
      <path d="M52.27,28.37l-2.88,2.18a.73.73,0,0,0-.45.14l2.89-2.18a.72.72,0,0,1,.44-.14" fill="#730713"/>
      <polygon points="44.41 17.08 41.52 19.26 37.76 19.26 40.64 17.08 44.41 17.08" fill="#730713"/>
      <polygon points="40.64 17.08 37.76 19.26 37.59 7.91 40.48 5.74 40.64 17.08" fill="#730713"/>
      <polygon points="55.87 32.08 52.99 34.25 49.14 35.81 52.02 33.63 55.87 32.08" fill="#730713"/>
      <path d="M52,33.63l-2.89,2.18a.65.65,0,0,0-.17.09l2.89-2.18a.65.65,0,0,1,.17-.09" fill="#730713"/>
      <path d="M52,39.88l-2.88,2.18c-5.78-11.19.61-15.84,3.66-20.42l2.89-2.18c-3,4.58-9.44,9.23-3.66,20.42" fill="#730713"/>
      <polygon points="44.63 32.11 41.74 34.29 41.52 19.26 44.41 17.08 44.63 32.11" fill="#730713"/>
      <polygon points="36.88 17.08 33.99 19.26 30.22 19.26 33.11 17.08 36.88 17.08" fill="#730713"/>
      <polygon points="21.86 17.08 18.98 19.26 15.21 19.26 18.09 17.08 21.86 17.08" fill="#730713"/>
      <polygon points="18.09 17.08 15.21 19.26 15.04 7.91 17.93 5.74 18.09 17.08" fill="#730713"/>
      <polygon points="48.51 43.45 45.62 45.63 26.89 45.63 29.78 43.45 48.51 43.45" fill="#730713"/>
      <polygon points="22.14 35.94 19.25 38.12 18.98 19.26 21.86 17.08 22.14 35.94" fill="#730713"/>
      <polygon points="29.78 43.45 26.89 45.63 19.25 38.12 22.14 35.94 29.78 43.45" fill="#730713"/>
    </g>
    <path d="M55.69,19.46l.08,5.21L55,24a.68.68,0,0,0-.47-.19A.71.71,0,0,0,54,25l1.74,1.64,0,1.91-3.56-.17a.7.7,0,0,0-.72.67.72.72,0,0,0,.65.75l3.64.17,0,2.11L52,33.63a.74.74,0,0,0-.4,1,.77.77,0,0,0,.7.5.66.66,0,0,0,.24,0l3.32-1.35,0,2.24L52,39.88c-5.78-11.19.61-15.84,3.66-20.42M54.33,5.74A7.09,7.09,0,0,0,53,7.16l1.17,1.24a.43.43,0,0,1,0,.61.41.41,0,0,1-.27.1A.45.45,0,0,1,53.52,9l-1-1.09a12.07,12.07,0,0,0-.94,1.9l2.74.9a.45.45,0,0,1,.29.56.43.43,0,0,1-.41.29l-.15,0-2.76-.9a14.2,14.2,0,0,0-.56,2.55L54.56,13a.47.47,0,0,1,.47.44.45.45,0,0,1-.44.46l-4,.12A11.51,11.51,0,0,0,50.81,17l3.93-1.54a.44.44,0,0,1,.16,0,.47.47,0,0,1,.44.3.46.46,0,0,1-.26.6l-4,1.58a8.22,8.22,0,0,0,.86,1.92c-.74.6-1.36,1.33-2,1.93-3.55-5.37-1.24-13,2.67-16H40.47l.17,11.34h3.77l.22,15H33.33l-.22-15h3.77L36.71,5.74H17.93l.17,11.34h3.77l.28,18.86,7.64,7.51H48.51l.43-.52c-8.77-22,10.75-21.7,6.85-31.15a5.84,5.84,0,0,1,1.1,5.29h2.54L59.26,5.74H54.33" fill="#a41c2a"/>
    <path id="health-bevel" d="M12.76,60.31,9.87,62.49l-.08-5.41,2.89-2.18Zm.11,7.49L10,70h2.4l2.89-2.18Zm-.08-5.34L9.9,64.64,10,70l2.89-2.18Zm-5.15,0L4.76,64.64H9.9l2.89-2.18ZM5.35,67.8,2.47,70H4.84L7.72,67.8ZM5.17,54.9,2.28,57.08,2.47,70,5.35,67.8ZM70,54.9l-2.88,2.18.08,5.41,2.89-2.18Zm.19,12.9L67.3,70h2.4l2.89-2.18Zm-.08-5.34-2.89,2.18L67.3,70l2.88-2.18Zm-5.15,0-2.89,2.18h5.15l2.88-2.18ZM62.67,67.8,59.78,70h2.37L65,67.8Zm-.19-12.9-2.88,2.18L59.78,70l2.88-2.18Zm-6.21,2.19-2.89,2.18H57l2.89-2.18Zm-6,0-2.88,2.18H51l2.89-2.18Zm0-2.19-2.89,2.18,0,2.19,2.88-2.18ZM54,67.8,51.13,70h2.4l2.88-2.18Zm-.16-10.71L51,59.27,51.13,70,54,67.8Zm-11,10.71L40,70h7.35l2.89-2.18Zm-.19-12.9-2.89,2.18L40,70l2.89-2.18Zm-8.16,2.75-2.89,2.18,1.69,4.92,2.88-2.18ZM38.24,67.8,35.36,70h2.52l2.89-2.18ZM37,64.67l-2.89,2.18L35.36,70l2.88-2.18Zm-4.79,0-2.89,2.18h4.79L37,64.67ZM28.57,67.8,25.68,70h2.54L31.1,67.8Zm4.62-12.9L30.3,57.08,25.68,70l2.88-2.18ZM21,57l-2.89,2.18h5.58L26.6,57Zm.08,5.47-2.88,2.18h4.88L26,62.5Zm-2.29,5.3L15.93,70h8.13l2.88-2.18Zm-.19-12.9-2.88,2.18L15.93,70l2.88-2.18Z" fill="#730713"/>
    <path id="health" d="M15.08,54.9l.19,12.9H12.87l-.08-5.34H7.65l.08,5.34H5.36L5.17,54.9H7.53l.08,5.41h5.14l-.08-5.41ZM70,54.9l.08,5.41H64.93l-.08-5.41H62.48l.19,12.9H65L65,62.46H70.1l.08,5.34h2.41L72.4,54.9Zm-19.78,0,0,2.19h3.62L54,67.8h2.4l-.16-10.71h3.62l0-2.19Zm-7.53,0,.19,12.9h7.35l0-2.13h-5L45.07,54.9Zm-8.16,2.75,1.69,4.92H33ZM33.19,54.9,28.57,67.8H31.1l1.13-3.13H37l1.22,3.13h2.52l-5-12.9Zm-14.56,0,.19,12.9h8.13l0-2.13H21.15l0-3.16H26l0-2.12H21.08L21,57H26.6l0-2.14Z" fill="#a41c2a"/>
    <g>
      <polygon points="71.95 74.35 69.06 76.53 69.03 74.49 71.92 72.31 71.95 74.35" fill="#730713"/>
      <polygon points="72.72 77.02 69.83 79.2 69.1 79.2 71.99 77.02 72.72 77.02" fill="#730713"/>
      <polygon points="71.99 77.02 69.1 79.2 69.07 77.19 71.96 75.01 71.99 77.02" fill="#730713"/>
      <polygon points="71.96 75.01 69.07 77.19 66.95 77.19 69.84 75.01 71.96 75.01" fill="#730713"/>
      <polygon points="69.87 77.02 66.98 79.2 66.27 79.2 69.15 77.02 69.87 77.02" fill="#730713"/>
      <polygon points="69.15 77.02 66.27 79.2 66.2 74.49 69.08 72.31 69.15 77.02" fill="#730713"/>
      <polygon points="66.81 75.19 63.92 77.37 63.2 75.4 66.08 73.22 66.81 75.19" fill="#730713"/>
      <polygon points="68.29 77.02 65.41 79.2 64.65 79.2 67.53 77.02 68.29 77.02" fill="#730713"/>
      <polygon points="67.53 77.02 64.65 79.2 64.18 78.02 67.06 75.84 67.53 77.02" fill="#730713"/>
      <polygon points="67.06 75.84 64.18 78.02 62.29 78.02 65.17 75.84 67.06 75.84" fill="#730713"/>
      <polygon points="63.94 72.99 61.06 75.17 59.68 75.17 62.56 72.99 63.94 72.99" fill="#730713"/>
      <polygon points="64.74 77.02 61.86 79.2 61.09 79.2 63.98 77.02 64.74 77.02" fill="#730713"/>
      <polygon points="63.97 77.02 61.09 79.2 62.79 74.49 65.67 72.31 63.97 77.02" fill="#730713"/>
      <polygon points="61.83 72.99 58.94 75.17 57.56 75.17 60.45 72.99 61.83 72.99" fill="#730713"/>
      <polygon points="60.45 72.99 57.56 75.17 57.55 74.49 60.44 72.31 60.45 72.99" fill="#730713"/>
      <polygon points="61.89 77.02 59 79.2 58.94 75.17 61.83 72.99 61.89 77.02" fill="#730713"/>
      <polygon points="62.62 77.02 59.74 79.2 59 79.2 61.89 77.02 62.62 77.02" fill="#730713"/>
      <polygon points="58.82 75.39 55.94 77.57 55.89 74.49 58.78 72.31 58.82 75.39" fill="#730713"/>
      <path d="M58.45,76.19l-2.89,2.18a1,1,0,0,0,.38-.8l2.88-2.18a1,1,0,0,1-.38.8" fill="#730713"/>
      <polygon points="56.08 75.39 53.19 77.57 53.15 74.49 56.03 72.31 56.08 75.39" fill="#730713"/>
      <path d="M58.91,76.74,56,78.92a1.78,1.78,0,0,1-1.07.35,1.71,1.71,0,0,1-1.77-1.7l2.89-2.18a1.71,1.71,0,0,0,1.76,1.7,1.78,1.78,0,0,0,1.07-.35" fill="#730713"/>
      <polygon points="53.5 72.98 50.62 75.16 48.56 75.16 51.44 72.98 53.5 72.98" fill="#730713"/>
      <polygon points="53.1 75.04 50.22 77.22 48.59 77.22 51.47 75.04 53.1 75.04" fill="#730713"/>
      <polygon points="51.5 77.02 48.62 79.2 47.9 79.2 50.78 77.02 51.5 77.02" fill="#730713"/>
      <polygon points="50.78 77.02 47.9 79.2 47.83 74.49 50.71 72.31 50.78 77.02" fill="#730713"/>
      <path d="M48.46,76.05l-2.88,2.18a1.73,1.73,0,0,0-1-3.09,1.59,1.59,0,0,0-1,.32l2.88-2.18a1.59,1.59,0,0,1,1-.32,1.73,1.73,0,0,1,1,3.08" fill="#730713"/>
      <path d="M48.91,76.62,46,78.8a2.33,2.33,0,0,1-1.41.47,2.41,2.41,0,0,1-2.4-2.41,2.39,2.39,0,0,1,.93-2L46,72.72a2.38,2.38,0,0,0-.93,2,2.41,2.41,0,0,0,2.4,2.41,2.32,2.32,0,0,0,1.41-.47" fill="#730713"/>
      <polygon points="40.73 74.19 37.85 76.36 39.13 74.49 42.01 72.31 40.73 74.19" fill="#730713"/>
      <polygon points="40.37 74.86 37.49 77.04 35.67 74.49 38.55 72.31 40.37 74.86" fill="#730713"/>
      <polygon points="41.14 77.02 38.26 79.2 37.52 79.2 40.4 77.02 41.14 77.02" fill="#730713"/>
      <polygon points="40.4 77.02 37.52 79.2 37.49 77.04 40.37 74.86 40.4 77.02" fill="#730713"/>
      <polygon points="38.12 72.99 35.23 75.17 33.85 75.17 36.74 72.99 38.12 72.99" fill="#730713"/>
      <polygon points="36.01 72.99 33.12 75.17 31.74 75.17 34.62 72.99 36.01 72.99" fill="#730713"/>
      <polygon points="34.62 72.99 31.74 75.17 31.73 74.49 34.61 72.31 34.62 72.99" fill="#730713"/>
      <polygon points="36.8 77.02 33.91 79.2 33.18 79.2 36.06 77.02 36.8 77.02" fill="#730713"/>
      <polygon points="36.06 77.02 33.18 79.2 33.12 75.17 36.01 72.99 36.06 77.02" fill="#730713"/>
      <polygon points="33.86 77.02 30.98 79.2 30.25 79.2 33.14 77.02 33.86 77.02" fill="#730713"/>
      <polygon points="33.14 77.02 30.25 79.2 30.19 74.49 33.07 72.31 33.14 77.02" fill="#730713"/>
      <polygon points="32 73.65 29.12 75.83 28.39 75.83 31.28 73.65 32 73.65" fill="#730713"/>
      <path d="M31.28,73.65,28.4,75.83a.74.74,0,0,0-.83-.71.93.93,0,0,0-.56.17l2.89-2.18a.93.93,0,0,1,.56-.17.74.74,0,0,1,.83.71" fill="#730713"/>
      <path d="M31.46,75.78,28.58,78c0-.44-.32-.66-.75-.76L30.71,75c.43.1.77.33.75.76" fill="#730713"/>
      <path d="M31.19,76.25l-2.88,2.18a.68.68,0,0,0,.27-.47l2.89-2.18a.68.68,0,0,1-.27.47" fill="#730713"/>
      <polygon points="30.71 75.02 27.82 77.2 27.23 77.05 30.11 74.87 30.71 75.02" fill="#730713"/>
      <path d="M30.11,74.87,27.23,77c-1-.27-1.17-.85-1.18-1.26a1.24,1.24,0,0,1,.51-1l2.89-2.18a1.24,1.24,0,0,0-.51,1c0,.42.17,1,1.18,1.26" fill="#730713"/>
      <path d="M31.66,76.76l-2.89,2.18a1.75,1.75,0,0,1-1.07.32A1.56,1.56,0,0,1,26,77.83l2.88-2.18a1.56,1.56,0,0,0,1.67,1.43,1.75,1.75,0,0,0,1.07-.32" fill="#730713"/>
      <path d="M26.87,74.5,24,76.67a.83.83,0,0,0,.29-.69.75.75,0,0,0-.72-.82L26.44,73a.75.75,0,0,1,.72.82.83.83,0,0,1-.29.69" fill="#730713"/>
      <polygon points="26.44 72.98 23.56 75.16 22.48 75.16 25.37 72.98 26.44 72.98" fill="#730713"/>
      <path d="M27.4,75l-2.89,2.18a1.35,1.35,0,0,1-.68.25l2.88-2.18A1.35,1.35,0,0,0,27.4,75" fill="#730713"/>
      <polygon points="27.98 77.02 25.09 79.2 24.21 79.2 27.1 77.02 27.98 77.02" fill="#730713"/>
      <polygon points="27.1 77.02 24.21 79.2 23.02 77.47 25.91 75.29 27.1 77.02" fill="#730713"/>
      <polygon points="25.91 75.29 23.02 77.47 22.52 77.47 25.4 75.29 25.91 75.29" fill="#730713"/>
      <polygon points="25.43 77.02 22.54 79.2 21.82 79.2 24.7 77.02 25.43 77.02" fill="#730713"/>
      <polygon points="24.7 77.02 21.82 79.2 21.75 74.49 24.63 72.31 24.7 77.02" fill="#730713"/>
      <polygon points="23.47 72.98 20.59 75.16 18.48 75.16 21.37 72.98 23.47 72.98" fill="#730713"/>
      <polygon points="23.24 75.04 20.35 77.22 18.52 77.22 21.4 75.04 23.24 75.04" fill="#730713"/>
      <polygon points="23.6 77.02 20.71 79.2 17.82 79.2 20.71 77.02 23.6 77.02" fill="#730713"/>
      <polygon points="20.71 77.02 17.82 79.2 17.75 74.49 20.64 72.31 20.71 77.02" fill="#730713"/>
      <polygon points="18.1 75.81 15.21 77.99 16.17 74.49 19.05 72.31 18.1 75.81" fill="#730713"/>
      <polygon points="18.46 77.02 15.57 79.2 14.9 79.2 17.78 77.02 18.46 77.02" fill="#730713"/>
      <polygon points="17.78 77.02 14.9 79.2 13.41 74.49 16.29 72.31 17.78 77.02" fill="#730713"/>
      <polygon points="15.47 77.02 12.59 79.2 11.87 79.2 14.75 77.02 15.47 77.02" fill="#730713"/>
      <polygon points="14.75 77.02 11.87 79.2 11.8 74.49 14.68 72.31 14.75 77.02" fill="#730713"/>
      <polygon points="12.83 75.65 9.95 77.83 9.9 74.49 12.78 72.31 12.83 75.65" fill="#730713"/>
      <polygon points="13.57 77.02 10.69 79.2 10.01 79.2 12.9 77.02 13.57 77.02" fill="#730713"/>
      <polygon points="12.9 77.02 10.01 79.2 7.95 75.83 10.84 73.65 12.9 77.02" fill="#730713"/>
      <polygon points="10.89 77.02 8 79.2 7.28 79.2 10.16 77.02 10.89 77.02" fill="#730713"/>
      <polygon points="10.16 77.02 7.28 79.2 7.21 74.49 10.1 72.31 10.16 77.02" fill="#730713"/>
      <polygon points="8.13 75.39 5.24 77.57 5.2 74.49 8.08 72.31 8.13 75.39" fill="#730713"/>
      <path d="M7.75,76.19,4.87,78.37a1,1,0,0,0,.38-.8l2.89-2.18a1,1,0,0,1-.38.8" fill="#730713"/>
      <polygon points="5.38 75.39 2.5 77.57 2.45 74.49 5.34 72.31 5.38 75.39" fill="#730713"/>
      <path d="M8.22,76.74,5.34,78.92a1.77,1.77,0,0,1-1.07.35,1.71,1.71,0,0,1-1.77-1.7l2.89-2.18a1.71,1.71,0,0,0,1.76,1.7,1.77,1.77,0,0,0,1.08-.35" fill="#730713"/>
    </g>
    <path id="u-of-u" d="M72.65,72.31l.07,4.7H72l0-2H69.84l0,2h-.72l-.07-4.7h.72l0,2h2.12l0-2Zm-6.57.91.73,2h-1.4Zm-.41-.91L64,77h.77l.43-1.17h1.89L67.53,77h.76l-1.84-4.7Zm-5.24,0V73h1.38l.06,4h.74l-.06-4h1.38v-.68Zm-1.66,0,0,3.07a1,1,0,0,1-1,1,1,1,0,0,1-1-1l0-3.07H56l0,3.07a1.71,1.71,0,0,0,1.76,1.7,1.65,1.65,0,0,0,1.71-1.7l0-3.07Zm-8.07,0,.07,4.7h.72l0-2H53.1v-.66H51.46l0-1.39H53.5v-.67Zm-3.23,4.06a1.69,1.69,0,0,1-1.67-1.7A1.64,1.64,0,0,1,47.44,73a1.7,1.7,0,0,1,1.68,1.71,1.63,1.63,0,0,1-1.63,1.7m-.06-4.12a2.33,2.33,0,0,0-2.33,2.42,2.41,2.41,0,0,0,2.4,2.41,2.34,2.34,0,0,0,2.34-2.41,2.42,2.42,0,0,0-2.42-2.42M42,72.31l-1.28,1.87-1.32-1.87h-.86l1.82,2.55,0,2.16h.74l0-2.15,1.76-2.55Zm-7.4,0V73H36l.06,4h.73l-.06-4h1.38v-.68Zm-1.54,0L33.14,77h.72l-.07-4.71Zm-2.61-.06a1.41,1.41,0,0,0-1.52,1.35c0,.42.17,1,1.18,1.26l.6.15c.43.1.77.33.75.76a.78.78,0,0,1-.87.64.89.89,0,0,1-.94-.77h-.72a1.56,1.56,0,0,0,1.67,1.43,1.44,1.44,0,0,0,1.58-1.26c.07-.67-.34-1.21-1.29-1.46l-.6-.16c-.56-.14-.63-.43-.64-.61a.72.72,0,0,1,.8-.65.74.74,0,0,1,.83.71H32a1.42,1.42,0,0,0-1.54-1.39M25.37,73h1.07a.75.75,0,0,1,.72.82.72.72,0,0,1-.72.82h-1Zm1.35,2.28a1.31,1.31,0,0,0,1.19-1.46,1.4,1.4,0,0,0-1.45-1.49H24.63L24.7,77h.73l0-1.73h.5L27.1,77H28l-1.26-1.76m-6.08-2.95.07,4.7H23.6v-.66H21.42l0-1.32h1.84v-.66H21.39l0-1.39h2.1v-.67Zm-1.58,0-1,3.5-1-3.5h-.76L17.78,77h.67l1.35-4.7Zm-4.37,0L14.75,77h.72l-.07-4.71Zm-1.9,0,0,3.34-2-3.34H10.1l.07,4.7h.72l0-3.37L12.9,77h.67l-.07-4.7Zm-4.7,0,0,3.07a1,1,0,0,1-1,1,1,1,0,0,1-1-1l0-3.07H5.34l0,3.07a1.71,1.71,0,0,0,1.77,1.7,1.65,1.65,0,0,0,1.71-1.7l0-3.07Z" fill="#a41c2a"/>
  </g>
</svg>
