<svg xmlns="http://www.w3.org/2000/svg" xmlns:xlink="http://www.w3.org/1999/xlink" viewBox="0 0 75 85">
  <defs>
    <symbol id="u-block" data-name="u-block" viewBox="0 0 42.81 38.91">
      <path d="M32.89,16.5c.59-.56,1.27-1.35,2.08-2m3.93,14.34-3.46,1.39a.78.78,0,0,1-.55-1.46l4-1.6h0V25h0l-3.77-.18a.74.74,0,0,1,.09-1.47l3.68.17h0v-2h0l-1.78-1.69a.73.73,0,0,1,1-1.05l.77.73V14.16c-3.23,4.73-9.92,9.52-4.1,21.06l4.1-4.06V28.85ZM35.77,2.2a12.82,12.82,0,0,0-1,2l2.83.93a.45.45,0,1,1-.3.85L34.45,5a14.59,14.59,0,0,0-.62,2.63l4-.12a.46.46,0,1,1,0,.93l-4.12.13a11.89,11.89,0,0,0,.15,3L38,10a.48.48,0,1,1,.33.89l-4.21,1.63h0a8.4,8.4,0,0,0,.86,2c-.81.65-1.49,1.43-2.08,2C29.3,11,31.8,3,35.9,0H23.36V11.7h3.9V27.21H15.55V11.7h3.9V0H0V11.7H3.9V31.16l7.8,7.75h19.4l.46-.54C22.82,15.68,43,16,39.13,6.24a6,6,0,0,1,1.06,5.46h2.63V0h-5.1a7.4,7.4,0,0,0-1.44,1.47l1.19,1.27a.44.44,0,1,1-.65.58L35.77,2.2" fill="#ac162c"/>
    </symbol>
  </defs>
  <title>dont-b1</title>
  <g id="b1">
    <use width="42.81" height="38.91" transform="translate(15.82 8.16)" xlink:href="#u-block"/>
    <path id="u-of-u-health" d="M6.65,63.24V58.77H7.92v4.47a2.49,2.49,0,0,1-2.58,2.54,2.5,2.5,0,0,1-2.59-2.54V58.77H4v4.47a1.31,1.31,0,1,0,2.62,0m8-4.47H13.36v4.49l-2.6-4.49H9.59v6.91h1.25V61.13l2.63,4.54h1.15Zm1.72,6.91H17.6V58.77H16.35Zm2.21-6.91,2.07,6.91h1.14l2.06-6.91H22.52l-1.32,4.81-1.32-4.81Zm6.22,6.91h4.3V64.53H26V62.84h2.59V61.71H26V59.91h3V58.77H24.77Zm8.37-5.76A1,1,0,0,1,34.06,61a1,1,0,0,1-1,1.07H31.74V59.91Zm.5,3.26A2,2,0,0,0,35.38,61a2.09,2.09,0,0,0-2.17-2.24H30.48v6.91h1.26V63.22h.52l1.6,2.46h1.52Zm2.69.49a2.23,2.23,0,0,0,2.44,2.13,2.17,2.17,0,0,0,2.39-2c.06-.81-.34-1.68-1.86-2.11l-.84-.25c-.73-.2-.81-.57-.81-.79,0-.49.45-.81,1-.81a.9.9,0,0,1,1,.9H41a2.07,2.07,0,0,0-2.26-2.09,2.12,2.12,0,0,0-2.29,2c0,.61.24,1.48,1.72,1.93l.84.22c.66.18,1,.48.94.94s-.44.83-1.13.83a1.07,1.07,0,0,1-1.17-1Zm6.16,2h1.25V58.77H42.5Zm2.22-5.74h1.92v5.74h1.27V59.94h1.91V58.77h-5.1Zm9.55,5.74V62.55l2.63-3.78H55.38l-1.77,2.66-1.75-2.66h-1.5L53,62.53v3.15Zm9.06-1.16a2.28,2.28,0,1,1,2.19-2.28,2.22,2.22,0,0,1-2.19,2.28m0-5.82a3.55,3.55,0,1,0,3.46,3.55,3.47,3.47,0,0,0-3.46-3.55m4.76,7h1.26V62.85h2.29V61.71H69.35V59.91h2.89V58.77H68.09ZM10.16,74.3a1.31,1.31,0,1,1-2.62,0V69.83H6.26V74.3a2.5,2.5,0,0,0,2.59,2.54,2.49,2.49,0,0,0,2.58-2.54V69.83H10.16V74.3M12.38,71h1.92v5.74h1.27V71h1.92V69.83h-5.1Zm7.92.3.86,2.64h-1.7Zm1.9,5.43h1.33L21,69.83H19.61l-2.55,6.91h1.34L19,75.07h2.54Zm6.17-6.91v2.9H25.63v-2.9H24.38v6.91h1.25V73.88h2.72v2.86h1.27V69.83Zm9.59,0v2.9H35.23v-2.9H34v6.91h1.25V73.88H38v2.86h1.27V69.83Zm3,6.91h4.3V75.6H42.2V73.9h2.59V72.77H42.2V71h3V69.83H40.95Zm8.21-5.43L50,73.94h-1.7Zm1.9,5.43h1.33l-2.55-6.91H48.48l-2.55,6.91h1.34l.62-1.67h2.54Zm2.19,0h3.89V75.6H54.51V69.83H53.24ZM56.82,71h1.92v5.74H60V71h1.91V69.83h-5.1Zm10.06-1.17v2.9H64.16v-2.9H62.9v6.91h1.25V73.88h2.72v2.86h1.27V69.83Z" fill="#ac162c"/>
  </g>
</svg>
