<svg xmlns="http://www.w3.org/2000/svg" viewBox="0 0 75 85">
  <title>dont-a2</title>
  <g id="a2">
    <path d="M12.94,53.64V64.39h-2.5V59.94H5.1v4.45H2.64V53.64H5.1v4.51h5.34V53.64Zm3.68,10.75h8.44V62.61h-6V60h5.07V58.21H19.08V55.42h5.79V53.64H16.62Zm16.45-8.45L34.76,60H31.43Zm3.72,8.45H39.4l-5-10.75H31.74l-5,10.75h2.63l1.22-2.61h5Zm4.8,0h7.63V62.61H44.07v-9H41.59Zm7.82-8.92h3.76v8.92h2.5V55.47h3.76V53.64h-10Zm20.54-1.83v4.51H64.61V53.64H62.15V64.39h2.46V59.94h5.34v4.45h2.5V53.64ZM5.41,70.71a.94.94,0,0,1-1,.84.94.94,0,0,1-1-.84V68.15H2.56v2.56c0,.86.83,1.42,1.81,1.42s1.8-.56,1.8-1.42V68.15H5.41v2.56M11,68.15h-.75v2.78L8.22,68.15H7.5v3.92h.75v-2.8l2.09,2.8H11Zm1.22,3.92H13V68.15h-.75Zm1.67-3.92,1.48,3.92h.7l1.47-3.92H16.8l-1,2.91-1-2.91Zm4.51,3.92h3v-.55H19.19v-1.1H21.1v-.55H19.19V68.71h2.18v-.56H18.44Zm6-3.36a.67.67,0,0,1,.73.69.68.68,0,0,1-.76.68H23.34V68.71Zm.25,1.9A1.21,1.21,0,0,0,26,69.39c0-.62-.44-1.25-1.48-1.25h-1.9v3.92h.76V70.63h.52l1.21,1.44H26Zm2.28.32c0,.64.71,1.2,1.72,1.2s1.59-.44,1.66-1.05-.33-1-1.31-1.22l-.62-.13c-.58-.12-.65-.36-.65-.51,0-.32.4-.54.84-.54s.85.23.85.59h.75c0-.72-.68-1.16-1.58-1.16s-1.6.45-1.6,1.12c0,.35.16.83,1.21,1.05l.61.13c.45.08.8.27.77.64s-.35.54-.92.54-1-.32-1-.64Zm4.36,1.14h.75V68.15h-.75ZM33,68.71h1.43v3.36h.76V68.71h1.43v-.56H33Zm6.71,3.36V70.28l1.87-2.13h-.9l-1.36,1.56-1.34-1.56H37l1.85,2.12v1.8Zm6.59-.54A1.44,1.44,0,1,1,48,70.12a1.57,1.57,0,0,1-1.72,1.42m0-3.43a2.05,2.05,0,1,0,2.47,2,2.25,2.25,0,0,0-2.47-2m3.41,4h.75V70.42h1.7v-.55h-1.7V68.71h2.14v-.56H49.67ZM58,70.71a1.07,1.07,0,0,1-2.09,0V68.15h-.76v2.56c0,.86.83,1.42,1.81,1.42s1.8-.56,1.8-1.42V68.15H58v2.56m1.72-2H61.2v3.36H62V68.71h1.43v-.56H59.76Zm5.85.19.73,1.64H64.88Zm1.45,3.16h.79L66,68.15H65.2l-1.84,3.92h.8l.47-1h2Zm4.63-3.92v1.7h-2.2v-1.7h-.75v3.92h.75V70.4h2.2v1.67h.76V68.15Z" fill="#ac162c"/>
    <path d="M49,26.2c.59-.45,1.27-1.09,2.08-1.61M55,36.17,51.54,37.3a.83.83,0,0,1-1-.38.59.59,0,0,1,.43-.8l4-1.29h0V33.06h0l-3.78-.14a.64.64,0,0,1-.67-.63.68.68,0,0,1,.76-.56l3.69.14h0V30.27h0l-1.78-1.36a.51.51,0,0,1,0-.82.85.85,0,0,1,1,0l.77.59V24.31c-3.24,3.82-9.94,7.69-4.11,17L55,38V36.17ZM51.86,14.65a9.73,9.73,0,0,0-1,1.59l2.83.75a.36.36,0,0,1,.29.47.5.5,0,0,1-.59.22l-2.85-.75a10,10,0,0,0-.62,2.13l4-.1a.44.44,0,0,1,.49.36.43.43,0,0,1-.46.38l-4.13.1A7.76,7.76,0,0,0,50,22.23h0L54.08,21a.52.52,0,0,1,.62.23.37.37,0,0,1-.28.5L50.2,23h0a6.17,6.17,0,0,0,.86,1.6c-.81.52-1.49,1.16-2.08,1.61-3.6-4.48-1.09-10.87,3-13.33H39.42v9.45h3.91V34.85H31.6V22.33h3.91V12.88H16v9.45h3.91V38l7.82,6.26H47.19l.46-.43c-8.77-18.33,11.49-18.08,7.58-26,1.42,1.7,1.58,3.1,1.06,4.41h2.63V12.88H53.8a6.87,6.87,0,0,0-1.44,1.18l1.2,1a.31.31,0,0,1,0,.51.53.53,0,0,1-.63,0l-1.05-.91" fill="#ac162c"/>
  </g>
</svg>
