<svg xmlns="http://www.w3.org/2000/svg" xmlns:xlink="http://www.w3.org/1999/xlink" viewBox="0 0 75 85">
  <defs>
    <symbol id="health" data-name="health" viewBox="0 0 69.32 13.24">
      <path id="health-3" data-name="health" d="M10.23,0V13.25H7.75V7.77H2.44v5.48H0V0H2.44V5.56H7.75V0Zm3.65,13.24h8.38V11.05H16.32V7.81h5V5.63h-5V2.19h5.75V0H13.88ZM30.22,2.83l1.67,5.06H28.59Zm3.69,10.42h2.6L31.55,0H28.89l-5,13.25h2.61L27.76,10H32.7Zm4.77,0h7.57V11.05H41.14V0H38.68Zm7.77-11h3.73v11h2.48v-11h3.73V0H46.45ZM66.84,0V5.56H61.54V0H59.09V13.25h2.44V7.77h5.31v5.48h2.48V0Z" fill="#ac162c"/>
    </symbol>
  </defs>
  <title>dont-a1</title>
  <g id="a1">
    <path d="M49.08,21c.58-.55,1.26-1.34,2.07-2m3.92,14.27-3.44,1.38a.78.78,0,0,1-.55-1.46l4-1.6h0V29.43h0l-3.75-.17a.73.73,0,0,1,.09-1.46l3.66.17h0V26h0l-1.77-1.68a.73.73,0,0,1,1-1l.76.73V18.65c-3.21,4.7-9.87,9.48-4.08,21l4.08-4v-2.3ZM51.94,6.75a12.7,12.7,0,0,0-1,2l2.81.92a.45.45,0,1,1-.3.85l-2.83-.93A14.63,14.63,0,0,0,50,12.17l4-.12A.46.46,0,1,1,54,13l-4.1.13a11.78,11.78,0,0,0,.15,3h0l4.08-1.58a.47.47,0,0,1,.33.89L50.29,17h0a8.37,8.37,0,0,0,.86,2c-.81.64-1.48,1.43-2.07,2-3.58-5.52-1.08-13.4,3-16.43H39.58V16.21h3.88V31.64H31.82V16.21H35.7V4.56H16.34V16.21h3.89V35.57L28,43.29H47.3l.46-.53c-8.71-22.59,11.41-22.28,7.53-32a5.94,5.94,0,0,1,1.05,5.43h2.62V4.56H53.87A7.38,7.38,0,0,0,52.44,6l1.19,1.27a.43.43,0,1,1-.64.58l-1-1.12" fill="#e3b5ba"/>
    <use width="69.32" height="13.25" transform="translate(3.06 54.8)" xlink:href="#health"/>
    <path d="M9.82,73.28q-.54.79-.91,1.44a9.4,9.4,0,0,0-.55,1.1,2,2,0,0,0-.18.67q0,.41.36.41a4.61,4.61,0,0,0,1.72-1v.38Q8.69,77.82,8,77.82t-.86-.89a3.6,3.6,0,0,1,.52-1.52,27.41,27.41,0,0,1,1.6-2.54Q8,74.26,7.12,75.14T5.37,76.86L5,77.24a1.7,1.7,0,0,1-.35.26.79.79,0,0,1-.39.1.68.68,0,0,1-.54-.25,1.08,1.08,0,0,1-.22-.72,1.73,1.73,0,0,1,.18-.69A6.08,6.08,0,0,1,4.2,75q.36-.52.88-1.15.85-1,1.17-1.44a1.46,1.46,0,0,0,.33-.53c0-.06,0-.08-.09-.08a1.13,1.13,0,0,0-.35.1,6.23,6.23,0,0,0-.65.31q-.4.22-1,.62a5.89,5.89,0,0,1-.93.48,2.11,2.11,0,0,1-.65.18.28.28,0,0,1-.19-.06.19.19,0,0,1-.07-.15,1.41,1.41,0,0,1,.12-.43,4.55,4.55,0,0,1,.3-.62,2.87,2.87,0,0,1,.33-.48A3.52,3.52,0,0,1,4.45,71a7.31,7.31,0,0,1,1.42-.52,5.16,5.16,0,0,1,1.2-.18.88.88,0,0,1,.52.12.45.45,0,0,1,.16.39,2.24,2.24,0,0,1-.15.91,6.31,6.31,0,0,1-.5.84q-.13.2-.38.54l-.51.67-.42.55-.34.49-.61.91a.7.7,0,0,0-.13.35c0,.13.06.19.18.19a.52.52,0,0,0,.32-.12l.66-.56q.58-.5,1.14-1.05t1-1l1.15-1.29q.78-.9,1-1.13c.14-.15.26-.23.35-.23s.15.07.22.2a1.27,1.27,0,0,1,.1.55,1.06,1.06,0,0,1-.19.5Q10.44,72.37,9.82,73.28Zm4.09,1.61q-1,1.08-1,1.5c0,.16.06.24.19.24a.83.83,0,0,0,.42-.17q.26-.17.8-.6v.38q-.78.77-1.2,1.11a1.22,1.22,0,0,1-.68.34q-.45,0-.45-.6a1.13,1.13,0,0,1,.06-.35,2.25,2.25,0,0,1,.15-.36l.29-.53.46-.78a3.46,3.46,0,0,0-.79.63,6.25,6.25,0,0,0-.52.56l-.46.6a4.77,4.77,0,0,1-.36.44.33.33,0,0,1-.23.11q-.18,0-.33-.37a2.29,2.29,0,0,1-.15-.86,1.31,1.31,0,0,1,.07-.47,3.16,3.16,0,0,1,.27-.49,5.33,5.33,0,0,1,.66-.86.78.78,0,0,1,.53-.27.58.58,0,0,1,.28.06.2.2,0,0,1,.11.19.25.25,0,0,1,0,.12l-.07.11-.17.19q-.87,1-.87,1.25c0,.11,0,.16.1.16s.13-.07.26-.21l.49-.56a9,9,0,0,1,.71-.72,7.62,7.62,0,0,1,.93-.72.92.92,0,0,1,.48-.2c.06,0,.12.08.17.24a1.48,1.48,0,0,1,.09.49Q14.15,74.64,13.91,74.89Zm3,1v.4a5.62,5.62,0,0,1-1,1,1.41,1.41,0,0,1-.79.35.71.71,0,0,1-.67-.47,2.42,2.42,0,0,1-.22-1,1.83,1.83,0,0,1,0-.41,1.54,1.54,0,0,1,.1-.32c0-.08.12-.22.23-.4q.78-1.22,1.43-1.22.34,0,.34.26a1.3,1.3,0,0,1-.22.55,2.41,2.41,0,0,1-.39.54,8.89,8.89,0,0,0-.63.64.64.64,0,0,0-.15.41.42.42,0,0,0,.15.33.56.56,0,0,0,.39.13,1.11,1.11,0,0,0,.57-.19A7.05,7.05,0,0,0,17,75.88Zm-.37-2.46a.4.4,0,0,1-.26-.11A.33.33,0,0,1,16.2,73a.92.92,0,0,1,.23-.54.63.63,0,0,1,.48-.3.39.39,0,0,1,.28.1.38.38,0,0,1,.11.29.88.88,0,0,1-.23.52A.63.63,0,0,1,16.58,73.42Zm1,2.47-.1.46a.82.82,0,0,0,0,.2c0,.2.08.3.25.3s.54-.31,1.15-.93a1.8,1.8,0,0,1,.27-.83,4.53,4.53,0,0,1,.58-.82q.32-.35.47-.35t.24.32a1.53,1.53,0,0,1-.09.47,3.54,3.54,0,0,1-.28.6,5.51,5.51,0,0,1-.45.66c.09.17.19.25.28.25a.53.53,0,0,0,.27-.09,3.15,3.15,0,0,0,.37-.26v.37a3,3,0,0,1-.49.33,1,1,0,0,1-.46.09,1.1,1.1,0,0,1-.4-.15,11.54,11.54,0,0,1-.91.89,1,1,0,0,1-.57.29.76.76,0,0,1-.65-.45,1.94,1.94,0,0,1-.27-1,3,3,0,0,1,.83-1.76,2.53,2.53,0,0,1,.4-.42.56.56,0,0,1,.34-.11.81.81,0,0,1,.31.06c.1,0,.15.09.15.14a1.67,1.67,0,0,1-.37.81A4.43,4.43,0,0,1,17.63,75.89Zm3.81.19v.14a.74.74,0,0,0,.16.51.53.53,0,0,0,.42.18,1.38,1.38,0,0,0,.56-.13,3,3,0,0,0,.58-.34q.29-.21.7-.56v.34a6.86,6.86,0,0,1-1.17,1.15,1.86,1.86,0,0,1-1.11.4.92.92,0,0,1-.78-.38,1.7,1.7,0,0,1-.29-1,2.08,2.08,0,0,1,.27-1,4,4,0,0,1,.88-1,3.44,3.44,0,0,1,.83-.54,1.87,1.87,0,0,1,.74-.18.65.65,0,0,1,.41.12.42.42,0,0,1,.15.36,1.14,1.14,0,0,1-.26.69,3,3,0,0,1-.79.68A8.09,8.09,0,0,1,21.44,76.08Zm.05-.36a3.16,3.16,0,0,0,.85-.48,2.44,2.44,0,0,0,.52-.55.86.86,0,0,0,.17-.38c0-.08,0-.13-.12-.13a.79.79,0,0,0-.32.13,2.64,2.64,0,0,0-.45.33,2.44,2.44,0,0,0-.41.48A1.56,1.56,0,0,0,21.49,75.72Zm2.3.58v-.36a5.44,5.44,0,0,0,.45-.6A.61.61,0,0,1,24,75.2a.38.38,0,0,1-.08-.26,1.12,1.12,0,0,1,.17-.5,2.85,2.85,0,0,1,.41-.57,1.26,1.26,0,0,1,.44-.34.32.32,0,0,1,.15,0c.07,0,.11,0,.11.1A1.05,1.05,0,0,1,25,74a13.25,13.25,0,0,1,1.43-.18.4.4,0,0,1,.16,0,.39.39,0,0,1,.15.23,1.14,1.14,0,0,1,.06.36.43.43,0,0,1-.1.25,5.11,5.11,0,0,1-.35.39,3.27,3.27,0,0,0-.49.68,1.35,1.35,0,0,0-.2.56c0,.17.11.26.32.26a2.53,2.53,0,0,0,1.17-.68v.37q-.46.48-.76.75a4,4,0,0,1-.55.44.86.86,0,0,1-.45.16.46.46,0,0,1-.39-.21,1,1,0,0,1-.15-.61,1.47,1.47,0,0,1,.12-.54,3.77,3.77,0,0,1,.36-.66,8.23,8.23,0,0,1,.53-.71l-.35.07-.41.07-.33.06A4,4,0,0,1,23.8,76.31ZM27.13,76V75.9q1.42-1.5,2-2.1.12-.68.58-.68a.56.56,0,0,1,.25.07l0,.1a.61.61,0,0,0,0,.19,1.77,1.77,0,0,0,.08.39q.08.28.12.48a2,2,0,0,1,0,.44,1.55,1.55,0,0,1-.17.7,2.37,2.37,0,0,1-.48.64,5.19,5.19,0,0,1-.81.63l.31,0a1.23,1.23,0,0,0,.49-.11,3.06,3.06,0,0,0,.53-.3q.27-.19.64-.49v.37a8.26,8.26,0,0,1-1.26,1,1.88,1.88,0,0,1-1,.36,1.34,1.34,0,0,1-1-.44,1.19,1.19,0,0,1-.32-.51A2.72,2.72,0,0,1,27.13,76Zm2.06-.84-.1-.8q-.34.39-1.46,1.48a.94.94,0,0,1,.45.19,3.08,3.08,0,0,1,.34.47,1.33,1.33,0,0,0,.58-.42,1.18,1.18,0,0,0,.2-.73s0-.07,0-.1Zm4.12.69v.4a5.62,5.62,0,0,1-1,1,1.41,1.41,0,0,1-.79.35.71.71,0,0,1-.67-.47,2.42,2.42,0,0,1-.22-1,1.83,1.83,0,0,1,0-.41,1.54,1.54,0,0,1,.1-.32c0-.08.12-.22.23-.4q.78-1.22,1.43-1.22.34,0,.34.26a1.3,1.3,0,0,1-.22.55,2.41,2.41,0,0,1-.39.54,8.89,8.89,0,0,0-.63.64.64.64,0,0,0-.15.41.42.42,0,0,0,.15.33.56.56,0,0,0,.39.13,1.11,1.11,0,0,0,.57-.19A7.05,7.05,0,0,0,33.3,75.88Zm-.37-2.46a.4.4,0,0,1-.26-.11.33.33,0,0,1-.12-.26.92.92,0,0,1,.23-.54.63.63,0,0,1,.48-.3.39.39,0,0,1,.28.1.38.38,0,0,1,.11.29.88.88,0,0,1-.23.52A.63.63,0,0,1,32.93,73.42Zm2.26-.4h.24a3.09,3.09,0,0,1,.53-.74.78.78,0,0,1,.54-.22q.3,0,.3.14a1.1,1.1,0,0,1-.24.36,4.89,4.89,0,0,0-.36.49l.33,0,.23,0a8.7,8.7,0,0,1-.79,1.2l-.26,0-.21,0-.26,0q-.3.48-.5.86a4.76,4.76,0,0,0-.31.69,1.84,1.84,0,0,0-.11.6q0,.38.3.38a1.1,1.1,0,0,0,.55-.22q.34-.22.91-.69v.37q-1.49,1.62-2.2,1.62a.48.48,0,0,1-.4-.19.78.78,0,0,1-.15-.5,1.69,1.69,0,0,1,.09-.48q.08-.28.31-.85l-.15.13-.13.12-.12.11-.13.12v-.38a8.54,8.54,0,0,0,1.4-1.7h-.33a2,2,0,0,0-.49,0l-.12,0-.08,0s0,0,0,0a1.22,1.22,0,0,1,.23-.55,2,2,0,0,1,.34-.46.85.85,0,0,1,.4-.2A3.16,3.16,0,0,1,35.19,73Zm3.43,3.08-1,.83q-.7.61-.94.61T36.25,77a2,2,0,0,1-.24-.86,1.31,1.31,0,0,1,.1-.53,3.76,3.76,0,0,1,.33-.56,7.51,7.51,0,0,1,.64-.79,4.75,4.75,0,0,1,.55-.5.74.74,0,0,1,.33-.18.4.4,0,0,1,.29.15.47.47,0,0,1,.14.32.75.75,0,0,1-.15.34,4.87,4.87,0,0,1-.48.59,10.9,10.9,0,0,1-.91.85l-.1.3a.36.36,0,0,0,0,.15.13.13,0,0,0,.15.15,2.08,2.08,0,0,0,.72-.39A9.19,9.19,0,0,0,38.81,75q.26-.26.43-.46l.31-.37a3,3,0,0,1,.23-.26.29.29,0,0,1,.16-.09.21.21,0,0,1,.21.12.75.75,0,0,1-.06.76q-.13.22-.5.76t-.73,1.11q-.36.58-.74,1.3l.34-.33.68-.66.59-.55.58-.48v.37q-.74.8-1.35,1.52t-.93,1.15l-.38.5-.27.36-.2.26c-.05.06-.1.09-.13.09s-.15-.08-.21-.23a1.12,1.12,0,0,1-.09-.4.62.62,0,0,1,.06-.28A30.29,30.29,0,0,1,38.62,76.1Zm8.4-.23v.37a2.93,2.93,0,0,1-.58.44,1.3,1.3,0,0,1-.63.09q-.72.85-1.26.85a.88.88,0,0,1-.56-.2,1.41,1.41,0,0,1-.41-.56,2,2,0,0,1-.15-.79,1.66,1.66,0,0,1,.23-.78,3.5,3.5,0,0,1,.61-.8,3.46,3.46,0,0,1,.8-.6,1.68,1.68,0,0,1,.79-.23.87.87,0,0,1,.41.08.25.25,0,0,1,.15.22.41.41,0,0,1-.13.25.47.47,0,0,1,.29.15.65.65,0,0,1,.08.37,2.37,2.37,0,0,1-.12.67,3.35,3.35,0,0,1-.34.75l.1.1h.08a.4.4,0,0,0,.18,0l.16-.1Zm-1.14-1.45q-.46.28-.78.5a3.81,3.81,0,0,0-.55.45,1.21,1.21,0,0,0-.3.46c-.09.41-.14.63-.14.67q0,.36.51.36a1.74,1.74,0,0,0,.79-.41,1.46,1.46,0,0,1-.09-.5,1.91,1.91,0,0,1,.14-.71A5.84,5.84,0,0,1,45.89,74.42Zm4.19,1.46v.38l-.5.48a2.44,2.44,0,0,1-.47.3,6.33,6.33,0,0,1,0,.85,2.83,2.83,0,0,1-.22.74,4.18,4.18,0,0,1-.53.85,3.43,3.43,0,0,1-.69.7,1,1,0,0,1-.53.25q-.21,0-.4-.35a1.89,1.89,0,0,1-.18-.88,3.62,3.62,0,0,1,.17-1.06q.17-.56.53-1.44a1.15,1.15,0,0,1-.27-.7.6.6,0,0,1,.14-.43,1.35,1.35,0,0,1,.41-.27,5.46,5.46,0,0,1,.37-.52l.47-.56a22.78,22.78,0,0,1,1.34-2.76q.22-.37.31-.5a.26.26,0,0,1,.2-.13q.09,0,.17.14a.77.77,0,0,1,.07.36,2,2,0,0,1-.06.5,2.55,2.55,0,0,1-.17.45q-.11.23-.3.55l-.23.4L49,74.31l-.55.93-.29.51a6.2,6.2,0,0,1,.47.45,1.86,1.86,0,0,1,.3.45,1.9,1.9,0,0,0,.34-.17,3.84,3.84,0,0,0,.36-.27Zm-1.65,1.48v-.12h-.25l-.22,0-.19-.07-.15-.07a4.71,4.71,0,0,0-.42,1.7,1.44,1.44,0,0,0,.1.57q.1.24.24.24t.36-.25a2.19,2.19,0,0,0,.38-.75A4,4,0,0,0,48.43,77.36Zm11.48-4.08q-.54.79-.91,1.44a9.4,9.4,0,0,0-.55,1.1,2,2,0,0,0-.18.67q0,.41.36.41a4.61,4.61,0,0,0,1.72-1v.38q-1.55,1.58-2.27,1.58t-.86-.89a3.6,3.6,0,0,1,.52-1.52,27.41,27.41,0,0,1,1.6-2.54q-1.26,1.38-2.11,2.27t-1.75,1.72l-.39.37a1.7,1.7,0,0,1-.35.26.79.79,0,0,1-.39.1.68.68,0,0,1-.54-.25,1.08,1.08,0,0,1-.22-.72,1.73,1.73,0,0,1,.18-.69,6.08,6.08,0,0,1,.53-.92q.36-.52.88-1.15.85-1,1.17-1.44a1.46,1.46,0,0,0,.33-.53c0-.06,0-.08-.09-.08a1.13,1.13,0,0,0-.35.1,6.23,6.23,0,0,0-.65.31q-.4.22-1,.62a5.89,5.89,0,0,1-.93.48,2.11,2.11,0,0,1-.65.18.28.28,0,0,1-.19-.06.19.19,0,0,1-.07-.15,1.41,1.41,0,0,1,.12-.43,4.55,4.55,0,0,1,.3-.62,2.87,2.87,0,0,1,.33-.48A3.52,3.52,0,0,1,54.54,71,7.31,7.31,0,0,1,56,70.46a5.16,5.16,0,0,1,1.2-.18.88.88,0,0,1,.52.12.45.45,0,0,1,.16.39,2.24,2.24,0,0,1-.15.91,6.31,6.31,0,0,1-.5.84q-.13.2-.38.54l-.51.67-.42.55-.34.49-.61.91a.7.7,0,0,0-.13.35c0,.13.06.19.18.19a.52.52,0,0,0,.32-.12l.66-.56q.58-.5,1.14-1.05t1-1l1.15-1.29q.78-.9,1-1.13c.14-.15.26-.23.35-.23s.15.07.22.2a1.27,1.27,0,0,1,.1.55,1.06,1.06,0,0,1-.19.5Q60.54,72.37,59.91,73.28ZM62.23,73h.24a3.09,3.09,0,0,1,.53-.74.78.78,0,0,1,.54-.22q.3,0,.3.14a1.1,1.1,0,0,1-.24.36,4.89,4.89,0,0,0-.36.49l.33,0,.23,0a8.7,8.7,0,0,1-.79,1.2l-.26,0-.21,0-.26,0q-.3.48-.5.86a4.76,4.76,0,0,0-.31.69,1.84,1.84,0,0,0-.11.6q0,.38.3.38a1.1,1.1,0,0,0,.55-.22q.34-.22.91-.69v.37q-1.49,1.62-2.2,1.62a.48.48,0,0,1-.4-.19.78.78,0,0,1-.15-.5,1.69,1.69,0,0,1,.09-.48q.08-.28.31-.85l-.15.13-.13.12-.12.11-.13.12v-.38a8.54,8.54,0,0,0,1.4-1.7h-.33a2,2,0,0,0-.49,0l-.12,0-.08,0s0,0,0,0a1.22,1.22,0,0,1,.23-.55,2,2,0,0,1,.34-.46.85.85,0,0,1,.4-.2A3.16,3.16,0,0,1,62.23,73Zm1.53,1.87a6.7,6.7,0,0,1,1.63-1.13,3.18,3.18,0,0,1,1.22-.37.3.3,0,0,1,.21.1.74.74,0,0,1,.16.22.53.53,0,0,1,.06.19.16.16,0,0,1-.08.15l-.27.11.1.23.09.22a.43.43,0,0,1,0,.15,1.17,1.17,0,0,1-.27.49c-.18.24-.3.42-.37.53a.77.77,0,0,0-.11.42q0,.41.37.41a2.38,2.38,0,0,0,1.21-.72v.34q-1.39,1.55-2,1.55a.34.34,0,0,1-.31-.14.77.77,0,0,1-.09-.42A3.93,3.93,0,0,1,65.67,76q-.8.89-1.2,1.27a1.08,1.08,0,0,1-.64.38c-.08,0-.18-.07-.3-.21a2,2,0,0,1-.32-.54,1.76,1.76,0,0,1-.14-.69,1.62,1.62,0,0,1,0-.43,1.06,1.06,0,0,1,.19-.36A4.93,4.93,0,0,1,63.76,74.9Zm2.64-.61a12,12,0,0,0-2,1.11,1.24,1.24,0,0,0-.61.94.61.61,0,0,0,.06.29.18.18,0,0,0,.17.11.6.6,0,0,0,.22-.08,4.34,4.34,0,0,0,1.06-.89Q65.73,75.23,66.4,74.29Zm5.42,1.59v.35q-.48.49-.83.8a4.43,4.43,0,0,1-.61.47.89.89,0,0,1-.44.16q-.43,0-.43-.51a2.18,2.18,0,0,1,.27-.95,10.65,10.65,0,0,1,.77-1.26,3.25,3.25,0,0,0-.86.69l-.29.33q-.36.4-.69.82t-.45.55a.32.32,0,0,1-.22.13q-.43,0-.43-1.06a3.18,3.18,0,0,1,.1-.77,3.94,3.94,0,0,1,.56-1.11q1-1.44,1.65-2.36a15.38,15.38,0,0,1,1.14-1.39q.45-.47.61-.46a.87.87,0,0,1,.31.08c.08,0,.12.09.12.14a1.09,1.09,0,0,1-.19.46q-.19.32-.65,1l-.71,1-.63.82-.76.95q-.34.42-.79.9v.66q.74-.82,1.28-1.34a8.54,8.54,0,0,1,.91-.79,1.18,1.18,0,0,1,.55-.27.39.39,0,0,1,.31.2.6.6,0,0,1,.14.32.27.27,0,0,1-.06.14q-.4.47-.63.79a4.07,4.07,0,0,0-.36.56,1,1,0,0,0-.13.42c0,.17.08.26.25.26A3.08,3.08,0,0,0,71.82,75.88Z" fill="#ac162c"/>
  </g>
</svg>
