<svg id="health-feed-mark" xmlns="http://www.w3.org/2000/svg" viewBox="0 0 612 216">
  <defs>
    <style>
      .cls-1 {
        fill: #929497;
      }

      .cls-2 {
        fill: #aa182c;
      }
    </style>
  </defs>
  <title>health-feed</title>
  <path id="health" class="cls-1" d="M130.92,125h-4V106.39H104.28V125h-4V83.71h4v19H127v-19h4Zm40.49-41.33v4H151.79v15.12H169v4H151.79v14.33h20.28v4H147.83V83.71ZM182.56,125l15.9-41.33h4.2L218.56,125H214.3l-4.2-10.85H191L186.82,125Zm18-35.81-8.16,21.23h16.32Zm33.72-5.52v37.37H251.8v4H230.32V83.71Zm50.85,0v4H271.87V125h-4V87.67H254.65v-4ZM327.73,125h-4V106.39H301.09V125h-4V83.71h4v19h22.68v-19h4Z"/>
  <path id="feed" class="cls-2" d="M344.37,83.71h24.54v5.88H350.73v12.24h14.4v5.82h-14.4V125h-6.36Zm35.86,0h24.9v5.88H386.59v12.24h16.2v5.82h-16.2v11.57h19.14V125h-25.5Zm39,0h24.9v5.88H425.56v12.24h16.2v5.82h-16.2v11.57H444.7V125H419.2Zm39,41.33V83.71h16.08c11.75,0,18.59,9,18.59,20.76S486,125,474.25,125Zm6.36-5.87h9.72c8.09,0,12.23-6.48,12.23-14.7s-4.14-14.82-12.23-14.82h-9.72Z"/>
</svg>
