<svg xmlns="http://www.w3.org/2000/svg" viewBox="0 0 252 108">
  <defs>
    <style>
      .cls-1 {
        fill: #aa182c;
      }

      .cls-2 {
        fill: #939598;
      }
    </style>
  </defs>
  <title>ipc-2-compact</title>
  <g id="_2-line-compact" data-name="2-line-compact">
    <path id="imagine" class="cls-1" d="M35.76,28.91h4.05V55.25H35.76Zm37.74,0h3.63l3.21,26.34h-4L74,36.44,66.31,52.31H62.87L55.11,36.44,52.86,55.25h-4L52,28.91h3.59l8.94,18.77Zm30.74,19.77H93.61l-2.52,6.57H86.77l9.94-26.34h4.4L111,55.25h-4.28ZM95,45h7.87L98.93,34ZM135.17,35A9,9,0,0,0,129,32.47a9.43,9.43,0,0,0-9.29,9.67A9.43,9.43,0,0,0,129,51.81c4.28,0,7.72-2.52,7.91-6.46h-7.38V41.87h12c0,9.4-5,13.76-12.57,13.76a13.51,13.51,0,0,1,0-27,12.86,12.86,0,0,1,9.17,3.71Zm14.67-6h4V55.25h-4Zm33.57,26.34h-3.79L168.31,36.41V55.25h-4.05V28.91h3.9l11.2,18.69V28.91h4Zm10.44-26.34h15.86v3.75H197.9v7.8h10.32v3.7H197.9v7.38h12.19v3.71H193.85Z"/>
    <path id="perfect-care" class="cls-2" d="M40.83,63.31c3.21,0,4.44,2.41,4.44,4.84S44,72.94,40.83,72.94H36.15v6.17H34.61V63.31Zm-4.68,1.52v6.6h4.56c2.22,0,3-1.6,3-3.28s-.83-3.32-2.93-3.32Zm23.32-1.52v1.52H52V70.6h6.56v1.52H52V77.6h7.76v1.51H50.46V63.31Zm16,15.8H73.61l-4.36-6.17H66.59v6.17H65.05V63.31h5.87c3.21,0,4.38,2.41,4.38,4.84s-1.12,4.7-4.19,4.79ZM66.59,64.83v6.6h4.22c2.22,0,3-1.6,3-3.28s-.76-3.32-2.87-3.32Zm23.46-1.52v1.52H82.69V70.6h5.85v1.52H82.69v7H81.18V63.31Zm14,0v1.52h-7.5V70.6h6.56v1.52H96.51V77.6h7.75v1.51H95V63.31ZM121.63,77A7.82,7.82,0,0,1,116,79.34c-4.47,0-7.66-3.62-7.66-8.09s3.19-8.12,7.66-8.12a7.73,7.73,0,0,1,5.62,2.36l-1,1.06A6.39,6.39,0,0,0,116,64.64c-3.64,0-6.14,3-6.14,6.61s2.5,6.58,6.14,6.58a6.38,6.38,0,0,0,4.59-1.93Zm15.63-13.67v1.52h-5.07V79.11h-1.51V64.83h-5.07V63.31Zm25,13.67a7.78,7.78,0,0,1-5.64,2.36c-4.47,0-7.66-3.62-7.66-8.09s3.19-8.12,7.66-8.12a7.73,7.73,0,0,1,5.62,2.36l-1.06,1.06a6.37,6.37,0,0,0-4.56-1.91c-3.65,0-6.15,3-6.15,6.61s2.5,6.58,6.15,6.58a6.39,6.39,0,0,0,4.59-1.93Zm3.66,2.13L172,63.31h1.6l6.08,15.8H178L176.42,75H169.1l-1.58,4.15Zm6.88-13.69-3.12,8.12h6.24Zm22.09,13.69H193l-4.36-6.17H186v6.17h-1.53V63.31h5.87c3.21,0,4.38,2.41,4.38,4.84s-1.13,4.7-4.2,4.79ZM186,64.83v6.6h4.22c2.23,0,3-1.6,3-3.28s-.75-3.32-2.86-3.32Zm23.61-1.52v1.52h-7.5V70.6h6.55v1.52h-6.55V77.6h7.75v1.51h-9.27V63.31Zm6-.15A2.85,2.85,0,1,1,212.82,66,2.83,2.83,0,0,1,215.64,63.16Zm0,5.2A2.35,2.35,0,1,0,213.31,66,2.33,2.33,0,0,0,215.64,68.36Zm.43-1.94a.85.85,0,0,0,.62-.88.89.89,0,0,0-.92-.94h-1.1v2.85h.55v-1h.19l.71,1h.68Zm-.3-1.27a.36.36,0,0,1,.37.39.37.37,0,0,1-.38.38h-.54v-.77Z"/>
  </g>
</svg>
