<svg xmlns="http://www.w3.org/2000/svg" viewBox="0 0 252 144">
  <defs>
    <style>
      .cls-1 {
        fill: #aa182c;
      }

      .cls-2 {
        fill: #939598;
      }
    </style>
  </defs>
  <title>ipc-3-compact</title>
  <g id="_3-line-compact" data-name="3-line-compact">
    <path id="imagine" class="cls-1" d="M48,25h3.57V48.19H48ZM81.3,25h3.2l2.83,23.21H83.76l-2-16.58L75,45.6h-3l-6.84-14-2,16.58H59.53L62.36,25h3.17l7.88,16.54ZM108.44,42.4H99.07l-2.22,5.79H93L101.8,25h3.87l8.76,23.21h-3.77Zm-8.16-3.21h7l-3.48-9.73Zm35.48-8.89a7.9,7.9,0,0,0-5.46-2.19,8.31,8.31,0,0,0-8.19,8.52,8.32,8.32,0,0,0,8.19,8.53c3.77,0,6.8-2.23,7-5.7h-6.5V36.4h10.61c0,8.29-4.45,12.13-11.08,12.13a11.91,11.91,0,0,1,0-23.82A11.32,11.32,0,0,1,138.38,28Zm13-5.32h3.57V48.19h-3.57Zm29.63,23.21H175l-10-16.61V48.19h-3.57V25h3.43l9.87,16.47V25h3.57ZM187.61,25h14v3.3H191.18v6.87h9.1v3.27h-9.1v6.5h10.75v3.27H187.61Z"/>
    <path id="perfect-care" class="cls-2" d="M57.45,58.67c4.72,0,6.54,3.53,6.54,7.1s-1.82,7-6.54,7H50.58v9.06H48.32V58.67Zm-6.87,2.22v9.7h6.7c3.27,0,4.48-2.36,4.48-4.82s-1.21-4.88-4.31-4.88Zm34.14-2.22v2.22h-11v8.49h9.64V71.6H73.7v8.06H85.09v2.22H71.48V58.67Zm23.35,23.21h-2.73l-6.4-9.06H95v9.06H92.77V58.67h8.63c4.71,0,6.43,3.53,6.43,7.1s-1.65,6.91-6.16,7Zm-13-21v9.7h6.2c3.27,0,4.38-2.36,4.38-4.82s-1.11-4.88-4.21-4.88Zm34.35-2.22v2.22H118.56v8.49h8.59V71.6h-8.59V81.88h-2.22V58.67Zm20.36,0v2.22h-11v8.49h9.64V71.6h-9.64v8.06h11.39v2.22H136.5V58.67Zm25.74,20.08a11.49,11.49,0,0,1-8.29,3.47c-6.57,0-11.25-5.33-11.25-11.9s4.68-11.92,11.25-11.92a11.38,11.38,0,0,1,8.26,3.47l-1.55,1.55a9.38,9.38,0,0,0-6.71-2.8c-5.35,0-9,4.35-9,9.7s3.68,9.67,9,9.67a9.36,9.36,0,0,0,6.74-2.83Zm22.85-20.08v2.22h-7.45v21h-2.22v-21h-7.45V58.67Zm-132,53.76A11.45,11.45,0,0,1,58,115.9c-6.57,0-11.25-5.32-11.25-11.89S51.45,92.08,58,92.08a11.42,11.42,0,0,1,8.26,3.47L64.73,97.1A9.43,9.43,0,0,0,58,94.31c-5.35,0-9,4.34-9,9.7s3.68,9.67,9,9.67a9.38,9.38,0,0,0,6.74-2.83Zm4.55,3.14,8.93-23.22h2.35l8.93,23.22H88.68l-2.36-6.1H75.58l-2.33,6.1ZM81,95.45l-4.59,11.93h9.17Zm32.31,20.12h-2.73l-6.4-9.07h-3.9v9.07H98V92.35h8.62c4.72,0,6.44,3.54,6.44,7.11s-1.65,6.91-6.17,7Zm-13-21v9.7h6.19c3.27,0,4.38-2.36,4.38-4.82s-1.11-4.88-4.21-4.88Zm34.54-2.23v2.23h-11v8.49h9.63v2.22h-9.63v8h11.38v2.23H121.55V92.35Zm6.59,0a2.74,2.74,0,1,1-2.71,2.74A2.72,2.72,0,0,1,141.38,92.33Zm0,5a2.26,2.26,0,1,0-2.23-2.26A2.23,2.23,0,0,0,141.38,97.33Zm.42-1.87a.82.82,0,0,0,.59-.85.85.85,0,0,0-.88-.9h-1.06v2.74H141v-1h.18l.68,1h.65Zm-.29-1.22a.36.36,0,0,1,.36.37.37.37,0,0,1-.38.37H141v-.74Z"/>
  </g>
</svg>
