<svg id="letterhead" xmlns="http://www.w3.org/2000/svg" xmlns:xlink="http://www.w3.org/1999/xlink" viewBox="0 0 289.98 375.27">
  <defs>
    <clipPath id="clip-path">
      <rect width="289.98" height="375.27" fill="none"/>
    </clipPath>
    <clipPath id="clip-path-2">
      <rect x="225.73" y="171.15" width="64.26" height="204.12" fill="none"/>
    </clipPath>
  </defs>
  <title>letterhead</title>
  <g id="letterhead-clip">
    <g clip-path="url(#clip-path)">
      <g id="dna-clip">
        <g clip-path="url(#clip-path-2)">
          <path id="helix" d="M243.22,396.59C184.9,268.43,292.67,270,273.65,222.44c33.4,48.95-75.3,57.36-12.12,156.71Zm38.15-82.4a3.59,3.59,0,0,0,.43-7.16l-27.17-1.28a3.59,3.59,0,0,0-.43,7.16l27.17,1.28m-4.07-12.78a3.57,3.57,0,0,0,5-5.12l-13.42-12.65a3.57,3.57,0,0,0-5,5.12l13.42,12.65M287,326.88a3.81,3.81,0,0,0-2.68-7.13L253,332.19a3.81,3.81,0,0,0,2.68,7.13L287,326.88m6.19,11.43A3.81,3.81,0,0,0,288,332.7l-25.82,24.62a3.81,3.81,0,0,0,5.15,5.61l25.82-24.62m-23.39-93.16a2.32,2.32,0,1,0-1.64-4.35l-19.78,7.57a55,55,0,0,1-1.56-14.48l20.61-.66a2.26,2.26,0,1,0-.11-4.52l-20.17.64A59.36,59.36,0,0,1,249.37,219q.42-1.38.88-2.67L264.7,221a2.2,2.2,0,1,0,1.46-4.15l-14.28-4.67a67.62,67.62,0,0,1,5.21-9.59l5.29,5.63a2.12,2.12,0,1,0,3.16-2.83l-6-6.4c7.61-10.75,14.23-16.79,6-27.87,3.73,14.16-3.24,13.75-16.85,32-8.13,10.87-23.65,40.78-5.36,69.59,1.31-1.3,6.59-6.73,10.11-9.68a90.27,90.27,0,0,1-3.87-10.15Z" fill="#efeff0"/>
        </g>
      </g>
      <path id="header-line" d="M7.16,36.44H32.47m82.6,0h76m83,0h25.31" fill="none" stroke="#ac162c" stroke-width="0.24"/>
      <polyline id="left-border" points="1.66 -4.26 1.66 31.53 6.55 36.44 1.66 41.43 1.66 379.54" fill="none" stroke="#ac162c" stroke-width="3.32"/>
    </g>
  </g>
  <rect id="border" width="289.98" height="375.27" fill="none" stroke="#231f20" stroke-width="0.5"/>
  <text transform="translate(41.44 97.82)" font-size="5.2" fill="#231f20" font-family="SofiaProLight, Sofia Pro" letter-spacing="0em">a<tspan x="3.19" y="0" letter-spacing="0em">p</tspan><tspan x="6.35" y="0" letter-spacing="-0.01em">t</tspan><tspan x="7.9" y="0">en</tspan><tspan x="13.71" y="0" letter-spacing="-0.02em">t</tspan><tspan x="15.21" y="0" letter-spacing="-0.01em"> </tspan><tspan x="16.54" y="0" letter-spacing="-0.01em">t</tspan><tspan x="18.1" y="0">aciti sociosqu ad li</tspan><tspan x="61.23" y="0" letter-spacing="-0.01em">t</tspan><tspan x="62.79" y="0" letter-spacing="0em">o</tspan><tspan x="65.84" y="0" letter-spacing="-0.01em">r</tspan><tspan x="67.73" y="0">a</tspan><tspan x="70.92" y="0" letter-spacing="-0.01em"> </tspan><tspan x="72.24" y="0" letter-spacing="-0.01em">t</tspan><tspan x="73.8" y="0">o</tspan><tspan x="76.85" y="0" letter-spacing="-0.01em">r</tspan><tspan x="78.75" y="0">quen</tspan><tspan x="90.64" y="0" letter-spacing="-0.02em">t</tspan><tspan x="92.15" y="0">, </tspan><tspan x="94.81" y="0" letter-spacing="-0.01em">c</tspan><tspan x="97.35" y="0">onsec</tspan><tspan x="111.04" y="0" letter-spacing="-0.01em">t</tspan><tspan x="112.6" y="0">etu</tspan><tspan x="120.01" y="0" letter-spacing="-0.02em">r</tspan><tspan x="121.85" y="0" xml:space="preserve" letter-spacing="0em"> adipiscing eli</tspan><tspan x="153.96" y="0" letter-spacing="-0.02em">t</tspan><tspan x="155.46" y="0">. In</tspan><tspan x="162.47" y="0" letter-spacing="-0.01em">t</tspan><tspan x="164.03" y="0">ege</tspan><tspan x="173.01" y="0" letter-spacing="-0.02em">r</tspan><tspan x="174.85" y="0" xml:space="preserve" letter-spacing="0em"> rutrum</tspan><tspan x="192.22" y="0" letter-spacing="-0.02em"> </tspan><tspan x="193.48" y="0" letter-spacing="-0.01em">v</tspan><tspan x="196.05" y="0" letter-spacing="0em">el es</tspan><tspan x="206.63" y="0" letter-spacing="-0.02em">t</tspan><tspan x="208.14" y="0" xml:space="preserve"> a</tspan><tspan x="212.71" y="0" letter-spacing="-0.02em">t</tspan><tspan x="214.21" y="0"> </tspan><tspan x="0" y="6.61">iaculis. C</tspan><tspan x="20.66" y="6.61" letter-spacing="-0.01em">r</tspan><tspan x="22.55" y="6.61">as</tspan><tspan x="27.95" y="6.61" letter-spacing="-0.01em"> </tspan><tspan x="29.27" y="6.61" letter-spacing="-0.01em">t</tspan><tspan x="30.83" y="6.61" letter-spacing="0em">or</tspan><tspan x="35.85" y="6.61" letter-spacing="-0.01em">t</tspan><tspan x="37.41" y="6.61" letter-spacing="0em">o</tspan><tspan x="40.46" y="6.61" letter-spacing="-0.02em">r</tspan><tspan x="42.3" y="6.61" xml:space="preserve"> nisi, pellen</tspan><tspan x="68.11" y="6.61" letter-spacing="-0.01em">t</tspan><tspan x="69.67" y="6.61">esque non e</tspan><tspan x="98.31" y="6.61" letter-spacing="-0.01em">r</tspan><tspan x="100.2" y="6.61" letter-spacing="0em">os eu, sempe</tspan><tspan x="131.15" y="6.61" letter-spacing="-0.02em">r</tspan><tspan x="132.99" y="6.61" xml:space="preserve"> p</tspan><tspan x="137.56" y="6.61" letter-spacing="-0.01em">r</tspan><tspan x="139.45" y="6.61">etium</tspan><tspan x="152.7" y="6.61" letter-spacing="-0.02em"> </tspan><tspan x="153.96" y="6.61" letter-spacing="-0.01em">v</tspan><tspan x="156.53" y="6.61">eli</tspan><tspan x="161.81" y="6.61" letter-spacing="-0.02em">t</tspan><tspan x="163.31" y="6.61">. Quisque nec dolo</tspan><tspan x="207.17" y="6.61" letter-spacing="-0.02em">r</tspan><tspan x="209.01" y="6.61"> </tspan><tspan x="0" y="13.21">quam. Nunc ullam</tspan><tspan x="43.14" y="13.21" letter-spacing="-0.01em">c</tspan><tspan x="45.69" y="13.21">orpe</tspan><tspan x="56.79" y="13.21" letter-spacing="-0.02em">r</tspan><tspan x="58.63" y="13.21" xml:space="preserve"> diam magna,</tspan><tspan x="91.99" y="13.21" letter-spacing="-0.02em"> </tspan><tspan x="93.24" y="13.21" letter-spacing="0em">vi</tspan><tspan x="97.06" y="13.21" letter-spacing="-0.01em">t</tspan><tspan x="98.62" y="13.21">ae lacinia o</tspan><tspan x="126" y="13.21" letter-spacing="-0.01em">r</tspan><tspan x="127.9" y="13.21" letter-spacing="0em">ci rutrum ege</tspan><tspan x="159.46" y="13.21" letter-spacing="-0.02em">t</tspan><tspan x="160.96" y="13.21" letter-spacing="0em">. </tspan><tspan x="163.68" y="13.21" letter-spacing="-0.01em">M</tspan><tspan x="168.56" y="13.21" letter-spacing="0em">ae</tspan><tspan x="174.64" y="13.21" letter-spacing="-0.01em">c</tspan><tspan x="177.19" y="13.21" letter-spacing="0em">enas</tspan><tspan x="188.39" y="13.21" letter-spacing="-0.02em"> </tspan><tspan x="189.65" y="13.21" letter-spacing="-0.01em">v</tspan><tspan x="192.21" y="13.21" letter-spacing="0em">el auc</tspan><tspan x="206.41" y="13.21" letter-spacing="-0.01em">t</tspan><tspan x="207.96" y="13.21">o</tspan><tspan x="211.02" y="13.21" letter-spacing="-0.02em">r</tspan><tspan x="212.85" y="13.21"> </tspan><tspan letter-spacing="-0.01em"><tspan x="0" y="19.82">t</tspan><tspan x="1.56" y="19.82" letter-spacing="0em">or</tspan><tspan x="6.57" y="19.82" letter-spacing="-0.01em">t</tspan><tspan x="8.13" y="19.82" letter-spacing="0em">o</tspan><tspan x="11.18" y="19.82" letter-spacing="-0.05em">r</tspan><tspan x="12.86" y="19.82" letter-spacing="0em">, sed sodales urna.</tspan><tspan x="56.8" y="19.82" letter-spacing="-0.03em"> </tspan><tspan x="58.03" y="19.82" letter-spacing="0em">Aliquam</tspan><tspan x="77.65" y="19.82" letter-spacing="-0.02em"> </tspan><tspan x="78.91" y="19.82" letter-spacing="0em">vi</tspan><tspan x="82.73" y="19.82">t</tspan><tspan x="84.29" y="19.82" letter-spacing="0em">ae ligula u</tspan><tspan x="108.9" y="19.82" letter-spacing="-0.02em">t</tspan><tspan x="110.4" y="19.82" xml:space="preserve" letter-spacing="0em"> risus p</tspan><tspan x="126.84" y="19.82" letter-spacing="-0.01em">r</tspan><tspan x="128.73" y="19.82" letter-spacing="0em">etium sollicitudin. Quisque ege</tspan><tspan x="200.34" y="19.82" letter-spacing="-0.02em">t</tspan><tspan x="201.84" y="19.82" xml:space="preserve" letter-spacing="0em"> luctus </tspan></tspan><tspan x="0" y="26.42">purus. Cu</tspan><tspan x="22.24" y="26.42" letter-spacing="-0.01em">r</tspan><tspan x="24.13" y="26.42">abitu</tspan><tspan x="36.21" y="26.42" letter-spacing="-0.02em">r</tspan><tspan x="38.05" y="26.42" letter-spacing="-0.02em"> </tspan><tspan x="39.35" y="26.42" letter-spacing="-0.01em">f</tspan><tspan x="41.01" y="26.42" letter-spacing="0em">acilisis, lacus pha</tspan><tspan x="81.44" y="26.42" letter-spacing="-0.01em">r</tspan><tspan x="83.33" y="26.42">et</tspan><tspan x="87.84" y="26.42" letter-spacing="-0.01em">r</tspan><tspan x="89.73" y="26.42">a aliquam lobortis, neque e</tspan><tspan x="154.37" y="26.42" letter-spacing="-0.01em">r</tspan><tspan x="156.26" y="26.42">os</tspan><tspan x="161.52" y="26.42" letter-spacing="-0.02em"> </tspan><tspan x="162.78" y="26.42" letter-spacing="-0.01em">v</tspan><tspan x="165.35" y="26.42">estibulum sapien, ac </tspan><tspan x="0" y="33.03">aliquam dolo</tspan><tspan x="31.35" y="33.03" letter-spacing="-0.02em">r</tspan><tspan x="33.19" y="33.03" letter-spacing="-0.01em"> </tspan><tspan x="34.52" y="33.03" letter-spacing="-0.01em">t</tspan><tspan x="36.08" y="33.03" letter-spacing="0em">ellus ac dui. Donec mollis dolo</tspan><tspan x="107.02" y="33.03" letter-spacing="-0.02em">r</tspan><tspan x="108.86" y="33.03" xml:space="preserve"> a a</tspan><tspan x="118" y="33.03" letter-spacing="-0.01em">c</tspan><tspan x="120.55" y="33.03">cumsan</tspan><tspan x="139.02" y="33.03" letter-spacing="-0.02em"> </tspan><tspan x="140.32" y="33.03" letter-spacing="-0.01em">f</tspan><tspan x="141.99" y="33.03" letter-spacing="0em">ermentum. Donec posue</tspan><tspan x="200.05" y="33.03" letter-spacing="-0.01em">r</tspan><tspan x="201.94" y="33.03" letter-spacing="0em">e </tspan><tspan x="0" y="39.64">portti</tspan><tspan x="12.6" y="39.64" letter-spacing="-0.01em">t</tspan><tspan x="14.16" y="39.64" letter-spacing="0em">o</tspan><tspan x="17.21" y="39.64" letter-spacing="-0.02em">r</tspan><tspan x="19.05" y="39.64" letter-spacing="0em"> </tspan><tspan x="20.44" y="39.64" letter-spacing="-0.01em">c</tspan><tspan x="22.99" y="39.64">onsequa</tspan><tspan x="43.33" y="39.64" letter-spacing="-0.02em">t</tspan><tspan x="44.83" y="39.64">. C</tspan><tspan x="51" y="39.64" letter-spacing="-0.01em">r</tspan><tspan x="52.89" y="39.64" letter-spacing="0em">as e</tspan><tspan x="62.58" y="39.64" letter-spacing="-0.02em">t</tspan><tspan x="64.08" y="39.64" xml:space="preserve"> in</tspan><tspan x="69.56" y="39.64" letter-spacing="-0.01em">t</tspan><tspan x="71.12" y="39.64" letter-spacing="0em">e</tspan><tspan x="74.02" y="39.64" letter-spacing="-0.01em">r</tspan><tspan x="75.91" y="39.64">dum massa, ege</tspan><tspan x="115.11" y="39.64" letter-spacing="-0.02em">t</tspan><tspan x="116.61" y="39.64" xml:space="preserve" letter-spacing="0em"> in</tspan><tspan x="122.1" y="39.64" letter-spacing="-0.01em">t</tspan><tspan x="123.65" y="39.64">e</tspan><tspan x="126.55" y="39.64" letter-spacing="-0.01em">r</tspan><tspan x="128.45" y="39.64">dum</tspan><tspan x="139.18" y="39.64" letter-spacing="-0.01em"> </tspan><tspan x="140.51" y="39.64" letter-spacing="-0.01em">t</tspan><tspan x="142.07" y="39.64" letter-spacing="0em">ellus. </tspan><tspan x="155.17" y="39.64" letter-spacing="-0.01em">E</tspan><tspan x="158.02" y="39.64" letter-spacing="0em">tiam purus sem,</tspan><tspan x="195.62" y="39.64" letter-spacing="-0.02em"> </tspan><tspan x="196.87" y="39.64" letter-spacing="-0.01em">v</tspan><tspan x="199.44" y="39.64" letter-spacing="0em">olutpa</tspan><tspan x="214.56" y="39.64" letter-spacing="-0.02em">t</tspan><tspan x="216.07" y="39.64"> </tspan><tspan letter-spacing="-0.01em"><tspan x="0" y="46.24">v</tspan><tspan x="2.57" y="46.24" letter-spacing="0em">el bibendum a</tspan><tspan x="36.72" y="46.24" letter-spacing="-0.02em">t</tspan><tspan x="38.23" y="46.24" letter-spacing="0em">, blandi</tspan><tspan x="55.73" y="46.24" letter-spacing="-0.02em">t</tspan><tspan x="57.23" y="46.24" xml:space="preserve" letter-spacing="0em"> non leo. </tspan><tspan x="78.72" y="46.24" letter-spacing="-0.01em">N</tspan><tspan x="82.24" y="46.24" letter-spacing="0em">am nec sagittis lacus. In finibus nibh ege</tspan><tspan x="176.99" y="46.24" letter-spacing="-0.02em">t</tspan><tspan x="178.49" y="46.24" xml:space="preserve" letter-spacing="0em"> libe</tspan><tspan x="188.34" y="46.24" letter-spacing="-0.01em">r</tspan><tspan x="190.23" y="46.24" letter-spacing="0em">o rutrum </tspan></tspan><tspan x="0" y="52.85">finibus. </tspan><tspan x="18.22" y="52.85" letter-spacing="-0.01em">M</tspan><tspan x="23.1" y="52.85" letter-spacing="0em">auris iaculis eges</tspan><tspan x="63.01" y="52.85" letter-spacing="-0.01em">t</tspan><tspan x="64.57" y="52.85">as eli</tspan><tspan x="76.63" y="52.85" letter-spacing="-0.02em">t</tspan><tspan x="78.13" y="52.85" xml:space="preserve" letter-spacing="0em"> id bibendum.</tspan><tspan x="110.71" y="52.85" letter-spacing="-0.03em"> </tspan><tspan x="111.94" y="52.85" letter-spacing="0em">Aliquam</tspan><tspan x="131.56" y="52.85" letter-spacing="-0.02em"> </tspan><tspan x="132.82" y="52.85" letter-spacing="-0.01em">v</tspan><tspan x="135.39" y="52.85">ehicula dictum</tspan><tspan x="169.83" y="52.85" letter-spacing="-0.02em"> </tspan><tspan x="171.13" y="52.85" letter-spacing="-0.01em">f</tspan><tspan x="172.8" y="52.85" letter-spacing="0em">elis, e</tspan><tspan x="185.85" y="52.85" letter-spacing="-0.02em">t</tspan><tspan x="187.35" y="52.85" letter-spacing="0em"> </tspan><tspan x="0" y="59.46">ullam</tspan><tspan x="13.12" y="59.46" letter-spacing="-0.01em">c</tspan><tspan x="15.66" y="59.46">orpe</tspan><tspan x="26.76" y="59.46" letter-spacing="-0.02em">r</tspan><tspan x="28.6" y="59.46" xml:space="preserve"> ipsum alique</tspan><tspan x="60.07" y="59.46" letter-spacing="-0.02em">t</tspan><tspan x="61.57" y="59.46" xml:space="preserve"> nec.</tspan><tspan letter-spacing="0em"><tspan x="0" y="71.87">P</tspan><tspan x="3.1" y="71.87" letter-spacing="-0.01em">r</tspan><tspan x="4.99" y="71.87" letter-spacing="0em">oin</tspan><tspan x="12.13" y="71.87" letter-spacing="-0.02em"> </tspan><tspan x="13.39" y="71.87" letter-spacing="-0.01em">v</tspan><tspan x="15.96" y="71.87" letter-spacing="0em">el in</tspan><tspan x="25.53" y="71.87" letter-spacing="-0.01em">t</tspan><tspan x="27.09" y="71.87" letter-spacing="0em">e</tspan><tspan x="29.99" y="71.87" letter-spacing="-0.01em">r</tspan><tspan x="31.88" y="71.87" letter-spacing="0em">dum neque, si</tspan><tspan x="64.86" y="71.87" letter-spacing="-0.02em">t</tspan><tspan x="66.36" y="71.87" xml:space="preserve" letter-spacing="0em"> ame</tspan><tspan x="78.48" y="71.87" letter-spacing="-0.02em">t</tspan><tspan x="79.99" y="71.87" xml:space="preserve" letter-spacing="0em"> portti</tspan><tspan x="93.98" y="71.87" letter-spacing="-0.01em">t</tspan><tspan x="95.53" y="71.87" letter-spacing="0em">o</tspan><tspan x="98.59" y="71.87" letter-spacing="-0.02em">r</tspan><tspan x="100.42" y="71.87" xml:space="preserve" letter-spacing="0em"> mi. Phasellus p</tspan><tspan x="136.76" y="71.87" letter-spacing="-0.01em">r</tspan><tspan x="138.65" y="71.87" letter-spacing="0em">etium</tspan><tspan x="151.9" y="71.87" letter-spacing="-0.02em"> </tspan><tspan x="153.15" y="71.87" letter-spacing="-0.01em">v</tspan><tspan x="155.72" y="71.87" letter-spacing="0em">eli</tspan><tspan x="161" y="71.87" letter-spacing="-0.02em">t</tspan><tspan x="162.5" y="71.87" xml:space="preserve" letter-spacing="0em"> ligula, ege</tspan><tspan x="188.37" y="71.87" letter-spacing="-0.02em">t</tspan><tspan x="189.88" y="71.87" xml:space="preserve" letter-spacing="0em"> auc</tspan><tspan x="199.98" y="71.87" letter-spacing="-0.01em">t</tspan><tspan x="201.54" y="71.87" letter-spacing="0em">o</tspan><tspan x="204.59" y="71.87" letter-spacing="-0.02em">r</tspan><tspan x="206.43" y="71.87" letter-spacing="0em"> </tspan></tspan><tspan x="0" y="78.47">dolo</tspan><tspan x="10.48" y="78.47" letter-spacing="-0.02em">r </tspan><tspan x="13.57" y="78.47">vulpu</tspan><tspan x="26.39" y="78.47" letter-spacing="-0.01em">t</tspan><tspan x="27.95" y="78.47" letter-spacing="0em">a</tspan><tspan x="31.14" y="78.47" letter-spacing="-0.01em">t</tspan><tspan x="32.69" y="78.47">e eu.</tspan><tspan x="44.11" y="78.47" letter-spacing="-0.03em"> </tspan><tspan x="45.34" y="78.47" letter-spacing="-0.05em">V</tspan><tspan x="47.97" y="78.47" letter-spacing="0em">estibulum nulla</tspan><tspan x="83.47" y="78.47" letter-spacing="-0.02em"> </tspan><tspan x="84.73" y="78.47" letter-spacing="-0.01em">v</tspan><tspan x="87.29" y="78.47">eli</tspan><tspan x="92.57" y="78.47" letter-spacing="-0.02em">t</tspan><tspan x="94.08" y="78.47">, elei</tspan><tspan x="104.92" y="78.47" letter-spacing="-0.01em">f</tspan><tspan x="106.59" y="78.47" letter-spacing="0em">end quis</tspan><tspan x="126.46" y="78.47" letter-spacing="-0.01em"> </tspan><tspan x="127.78" y="78.47" letter-spacing="-0.01em">t</tspan><tspan x="129.34" y="78.47" letter-spacing="0em">or</tspan><tspan x="134.36" y="78.47" letter-spacing="-0.01em">t</tspan><tspan x="135.92" y="78.47">o</tspan><tspan x="138.97" y="78.47" letter-spacing="-0.02em">r</tspan><tspan x="140.81" y="78.47" xml:space="preserve"> eu, mattis hend</tspan><tspan x="178.39" y="78.47" letter-spacing="-0.01em">r</tspan><tspan x="180.28" y="78.47">eri</tspan><tspan x="186.33" y="78.47" letter-spacing="-0.02em">t</tspan><tspan x="187.83" y="78.47" xml:space="preserve" letter-spacing="0em"> leo. U</tspan><tspan x="202.58" y="78.47" letter-spacing="-0.02em">t</tspan><tspan x="204.08" y="78.47" letter-spacing="0em"> </tspan><tspan x="0" y="85.08">s</tspan><tspan x="2.21" y="85.08" letter-spacing="-0.01em">c</tspan><tspan x="4.75" y="85.08">elerisque</tspan><tspan x="26.1" y="85.08" letter-spacing="-0.01em"> </tspan><tspan x="27.42" y="85.08" letter-spacing="0em">tristique</tspan><tspan x="46.18" y="85.08" letter-spacing="-0.02em"> </tspan><tspan x="47.44" y="85.08" letter-spacing="-0.01em">v</tspan><tspan x="50" y="85.08" letter-spacing="0em">ehicula. In e</tspan><tspan x="78.2" y="85.08" letter-spacing="-0.02em">t</tspan><tspan x="79.7" y="85.08" letter-spacing="-0.01em"> </tspan><tspan x="81.02" y="85.08">turpis quis massa luctus</tspan><tspan x="136.61" y="85.08" letter-spacing="-0.01em"> </tspan><tspan x="137.94" y="85.08" letter-spacing="-0.01em">t</tspan><tspan x="139.5" y="85.08">empo</tspan><tspan x="153.28" y="85.08" letter-spacing="-0.02em">r</tspan><tspan x="155.12" y="85.08" xml:space="preserve"> si</tspan><tspan x="159.9" y="85.08" letter-spacing="-0.02em">t</tspan><tspan x="161.41" y="85.08" xml:space="preserve"> ame</tspan><tspan x="173.53" y="85.08" letter-spacing="-0.02em">t</tspan><tspan x="175.03" y="85.08" xml:space="preserve"> a lo</tspan><tspan x="185.23" y="85.08" letter-spacing="-0.01em">r</tspan><tspan x="187.12" y="85.08">em. In eu </tspan><tspan x="0" y="91.69">jus</tspan><tspan x="6.31" y="91.69" letter-spacing="-0.01em">t</tspan><tspan x="7.87" y="91.69" letter-spacing="0em">o</tspan><tspan x="10.92" y="91.69" letter-spacing="-0.01em"> </tspan><tspan x="12.24" y="91.69">tincidun</tspan><tspan x="30.76" y="91.69" letter-spacing="-0.02em">t</tspan><tspan x="32.26" y="91.69" letter-spacing="0em">,</tspan><tspan x="33.54" y="91.69" letter-spacing="-0.01em"> </tspan><tspan x="34.86" y="91.69">tincidun</tspan><tspan x="53.37" y="91.69" letter-spacing="-0.02em">t</tspan><tspan x="54.88" y="91.69" xml:space="preserve" letter-spacing="0em"> massa sed,</tspan><tspan x="82.65" y="91.69" letter-spacing="-0.01em"> </tspan><tspan x="83.98" y="91.69" letter-spacing="-0.01em">t</tspan><tspan x="85.54" y="91.69">empus magna.</tspan><tspan x="121.2" y="91.69" letter-spacing="-0.03em"> </tspan><tspan x="122.42" y="91.69" letter-spacing="-0.01em">A</tspan><tspan x="125.7" y="91.69">enean eu</tspan><tspan x="147.69" y="91.69" letter-spacing="-0.02em"> </tspan><tspan x="148.95" y="91.69" letter-spacing="-0.01em">v</tspan><tspan x="151.52" y="91.69" letter-spacing="0em">enenatis leo. In </tspan><tspan x="188.24" y="91.69" letter-spacing="-0.01em">c</tspan><tspan x="190.78" y="91.69">ongue </tspan><tspan x="0" y="98.29">nunc in</tspan><tspan x="16.82" y="98.29" letter-spacing="-0.02em"> </tspan><tspan x="18.12" y="98.29" letter-spacing="-0.01em">f</tspan><tspan x="19.79" y="98.29" letter-spacing="0em">eugia</tspan><tspan x="33.15" y="98.29" letter-spacing="-0.02em">t</tspan><tspan x="34.65" y="98.29" xml:space="preserve" letter-spacing="0em"> molestie.</tspan><tspan x="57.06" y="98.29" letter-spacing="-0.03em"> </tspan><tspan x="58.28" y="98.29" letter-spacing="0em">Aliquam e</tspan><tspan x="82.19" y="98.29" letter-spacing="-0.01em">r</tspan><tspan x="84.09" y="98.29">a</tspan><tspan x="87.27" y="98.29" letter-spacing="-0.02em">t</tspan><tspan x="88.77" y="98.29" letter-spacing="-0.02em"> </tspan><tspan x="90.03" y="98.29" letter-spacing="-0.01em">v</tspan><tspan x="92.6" y="98.29" letter-spacing="0em">olutpa</tspan><tspan x="107.72" y="98.29" letter-spacing="-0.02em">t</tspan><tspan x="109.23" y="98.29" letter-spacing="0em">. Duis leo</tspan><tspan x="130.53" y="98.29" letter-spacing="-0.01em"> </tspan><tspan x="131.86" y="98.29" letter-spacing="-0.01em">t</tspan><tspan x="133.42" y="98.29">or</tspan><tspan x="138.43" y="98.29" letter-spacing="-0.01em">t</tspan><tspan x="139.99" y="98.29">o</tspan><tspan x="143.04" y="98.29" letter-spacing="-0.06em">r</tspan><tspan x="144.71" y="98.29">, eges</tspan><tspan x="158.56" y="98.29" letter-spacing="-0.01em">t</tspan><tspan x="160.12" y="98.29" letter-spacing="0em">as in malesuada </tspan><tspan x="0" y="104.9">malesuada, alique</tspan><tspan x="43.81" y="104.9" letter-spacing="-0.02em">t</tspan><tspan x="45.31" y="104.9" letter-spacing="-0.02em"> </tspan><tspan x="46.57" y="104.9" letter-spacing="-0.01em">v</tspan><tspan x="49.14" y="104.9">el augue. </tspan><tspan x="72.4" y="104.9" letter-spacing="0em">P</tspan><tspan x="75.5" y="104.9" letter-spacing="-0.01em">r</tspan><tspan x="77.39" y="104.9" letter-spacing="0em">oin mollis libe</tspan><tspan x="109.26" y="104.9" letter-spacing="-0.01em">r</tspan><tspan x="111.15" y="104.9">o quis </tspan><tspan x="126.46" y="104.9" letter-spacing="-0.01em">c</tspan><tspan x="129.01" y="104.9">o</tspan><tspan x="132.06" y="104.9" letter-spacing="-0.01em">n</tspan><tspan x="134.92" y="104.9" letter-spacing="-0.01em">v</tspan><tspan x="137.49" y="104.9">allis por</tspan><tspan x="156.04" y="104.9" letter-spacing="-0.01em">t</tspan><tspan x="157.6" y="104.9">a. Nullam sapien sapien, </tspan><tspan x="0" y="111.51">sollicitudin ege</tspan><tspan x="34.8" y="111.51" letter-spacing="-0.02em">t</tspan><tspan x="36.31" y="111.51" xml:space="preserve"> por</tspan><tspan x="45.89" y="111.51" letter-spacing="-0.01em">t</tspan><tspan x="47.45" y="111.51">a id, </tspan><tspan x="59.06" y="111.51" letter-spacing="-0.01em">c</tspan><tspan x="61.61" y="111.51" letter-spacing="0em">ommodo eu nisl. Nulla eges</tspan><tspan x="126.64" y="111.51" letter-spacing="-0.01em">t</tspan><tspan x="128.2" y="111.51">as odio purus, non eges</tspan><tspan x="184.11" y="111.51" letter-spacing="-0.01em">t</tspan><tspan x="185.67" y="111.51">as enim </tspan><tspan x="0" y="118.11">bibendum quis. Nunc mi nulla, mattis ac</tspan><tspan x="93.98" y="118.11" letter-spacing="-0.01em"> </tspan><tspan x="95.31" y="118.11" letter-spacing="-0.01em">t</tspan><tspan x="96.87" y="118.11">empus a, rhoncus</tspan><tspan x="138.51" y="118.11" letter-spacing="-0.02em"> </tspan><tspan x="139.77" y="118.11" letter-spacing="-0.01em">v</tspan><tspan x="142.33" y="118.11">el an</tspan><tspan x="153.9" y="118.11" letter-spacing="-0.01em">t</tspan><tspan x="155.46" y="118.11" letter-spacing="0em">e. Nulla ege</tspan><tspan x="183.48" y="118.11" letter-spacing="-0.02em">t</tspan><tspan x="184.98" y="118.11" xml:space="preserve"> pla</tspan><tspan x="193.93" y="118.11" letter-spacing="-0.01em">c</tspan><tspan x="196.48" y="118.11">e</tspan><tspan x="199.38" y="118.11" letter-spacing="-0.01em">r</tspan><tspan x="201.27" y="118.11" letter-spacing="0em">a</tspan><tspan x="204.45" y="118.11" letter-spacing="-0.02em">t</tspan><tspan x="205.96" y="118.11"> </tspan><tspan x="0" y="124.72">metus. Donec eu maximus sem.</tspan><tspan letter-spacing="-0.04em"><tspan x="0" y="137.13">V</tspan><tspan x="2.63" y="137.13" letter-spacing="0em">estibulum dictum nibh nisi, a </tspan><tspan x="70.6" y="137.13" letter-spacing="-0.01em">c</tspan><tspan x="73.15" y="137.13" letter-spacing="0em">ommodo lo</tspan><tspan x="100.4" y="137.13" letter-spacing="-0.01em">r</tspan><tspan x="102.3" y="137.13" letter-spacing="0em">em maximus a</tspan><tspan x="137.1" y="137.13" letter-spacing="-0.02em">t</tspan><tspan x="138.61" y="137.13" letter-spacing="0em">. Sed eu suscipi</tspan><tspan x="174.46" y="137.13" letter-spacing="-0.02em">t</tspan><tspan x="175.96" y="137.13" xml:space="preserve" letter-spacing="0em"> sapien. Quisque </tspan></tspan><tspan letter-spacing="-0.01em"><tspan x="0" y="143.74">f</tspan><tspan x="1.67" y="143.74" letter-spacing="0em">ermentum urna quis in</tspan><tspan x="54.85" y="143.74" letter-spacing="-0.01em">t</tspan><tspan x="56.41" y="143.74" letter-spacing="0em">e</tspan><tspan x="59.31" y="143.74" letter-spacing="-0.01em">r</tspan><tspan x="61.2" y="143.74" letter-spacing="0em">dum euismod. </tspan><tspan x="96.12" y="143.74" letter-spacing="0em">P</tspan><tspan x="99.22" y="143.74" letter-spacing="-0.01em">r</tspan><tspan x="101.11" y="143.74" letter-spacing="0em">oin nec in</tspan><tspan x="123.56" y="143.74" letter-spacing="-0.01em">t</tspan><tspan x="125.12" y="143.74" letter-spacing="0em">e</tspan><tspan x="128.01" y="143.74" letter-spacing="-0.01em">r</tspan><tspan x="129.91" y="143.74" letter-spacing="0em">dum nibh. Quisque ege</tspan><tspan x="184.76" y="143.74" letter-spacing="-0.02em">t</tspan><tspan x="186.26" y="143.74" xml:space="preserve" letter-spacing="0em"> dui ultricies, </tspan></tspan><tspan x="0" y="150.34">in</tspan><tspan x="4.1" y="150.34" letter-spacing="-0.01em">t</tspan><tspan x="5.65" y="150.34">e</tspan><tspan x="8.55" y="150.34" letter-spacing="-0.01em">r</tspan><tspan x="10.45" y="150.34">dum an</tspan><tspan x="28.66" y="150.34" letter-spacing="-0.01em">t</tspan><tspan x="30.22" y="150.34" letter-spacing="0em">e eu,</tspan><tspan x="41.59" y="150.34" letter-spacing="-0.02em"> </tspan><tspan x="42.88" y="150.34" letter-spacing="-0.01em">f</tspan><tspan x="44.55" y="150.34">eugia</tspan><tspan x="57.91" y="150.34" letter-spacing="-0.02em">t</tspan><tspan x="59.42" y="150.34" xml:space="preserve"> lo</tspan><tspan x="65.04" y="150.34" letter-spacing="-0.01em">r</tspan><tspan x="66.94" y="150.34" letter-spacing="0em">em. </tspan><tspan x="77.19" y="150.34" letter-spacing="0em">P</tspan><tspan x="80.29" y="150.34" letter-spacing="-0.01em">r</tspan><tspan x="82.18" y="150.34" letter-spacing="0em">aesen</tspan><tspan x="96.28" y="150.34" letter-spacing="-0.02em">t</tspan><tspan x="97.78" y="150.34" xml:space="preserve"> quis metus quis purus g</tspan><tspan x="154.32" y="150.34" letter-spacing="-0.01em">r</tspan><tspan x="156.21" y="150.34">avida hend</tspan><tspan x="182.87" y="150.34" letter-spacing="-0.01em">r</tspan><tspan x="184.76" y="150.34" letter-spacing="0em">eri</tspan><tspan x="190.81" y="150.34" letter-spacing="-0.02em">t</tspan><tspan x="192.32" y="150.34" xml:space="preserve"> non ege</tspan><tspan x="212.93" y="150.34" letter-spacing="-0.02em">t</tspan><tspan x="214.43" y="150.34"> </tspan><tspan letter-spacing="-0.01em"><tspan x="0" y="156.95">t</tspan><tspan x="1.56" y="156.95" letter-spacing="0em">ellus. C</tspan><tspan x="18.12" y="156.95" letter-spacing="-0.01em">r</tspan><tspan x="20.01" y="156.95" letter-spacing="0em">as </tspan><tspan x="26.79" y="156.95" letter-spacing="-0.01em">c</tspan><tspan x="29.34" y="156.95" letter-spacing="0em">ongue metus id enim finibus ullam</tspan><tspan x="110.12" y="156.95" letter-spacing="-0.01em">c</tspan><tspan x="112.67" y="156.95" letter-spacing="0em">orpe</tspan><tspan x="123.77" y="156.95" letter-spacing="-0.06em">r</tspan><tspan x="125.44" y="156.95" letter-spacing="0em">. In</tspan><tspan x="132.45" y="156.95" letter-spacing="-0.01em">t</tspan><tspan x="134.01" y="156.95" letter-spacing="0em">ege</tspan><tspan x="142.99" y="156.95" letter-spacing="-0.02em">r</tspan><tspan x="144.83" y="156.95" xml:space="preserve" letter-spacing="0em"> a sodales urna. </tspan><tspan x="183.78" y="156.95" letter-spacing="-0.01em">N</tspan><tspan x="187.29" y="156.95" letter-spacing="0em">am non </tspan></tspan><tspan x="0" y="163.55">pulvina</tspan><tspan x="17.19" y="163.55" letter-spacing="-0.02em">r</tspan><tspan x="19.03" y="163.55" xml:space="preserve"> enim. </tspan><tspan x="34.77" y="163.55" letter-spacing="-0.01em">M</tspan><tspan x="39.65" y="163.55">auris p</tspan><tspan x="55.68" y="163.55" letter-spacing="-0.01em">r</tspan><tspan x="57.57" y="163.55">etium</tspan><tspan x="70.82" y="163.55" letter-spacing="-0.02em"> </tspan><tspan x="72.08" y="163.55" letter-spacing="-0.01em">v</tspan><tspan x="74.64" y="163.55">ehicula lacus, u</tspan><tspan x="110.61" y="163.55" letter-spacing="-0.02em">t</tspan><tspan x="112.11" y="163.55" letter-spacing="-0.02em"> </tspan><tspan x="113.37" y="163.55" letter-spacing="0em">vulpu</tspan><tspan x="126.19" y="163.55" letter-spacing="-0.01em">t</tspan><tspan x="127.75" y="163.55">a</tspan><tspan x="130.93" y="163.55" letter-spacing="-0.01em">t</tspan><tspan x="132.49" y="163.55" letter-spacing="0em">e leo orna</tspan><tspan x="156.41" y="163.55" letter-spacing="-0.01em">r</tspan><tspan x="158.3" y="163.55" letter-spacing="0em">e id.</tspan><tspan letter-spacing="-0.01em"><tspan x="0" y="175.97">M</tspan><tspan x="4.88" y="175.97" letter-spacing="0em">ae</tspan><tspan x="10.97" y="175.97" letter-spacing="-0.01em">c</tspan><tspan x="13.51" y="175.97" letter-spacing="0em">enas ultri</tspan><tspan x="34.95" y="175.97" letter-spacing="-0.01em">c</tspan><tspan x="37.5" y="175.97" letter-spacing="0em">es sed</tspan><tspan x="52.29" y="175.97" letter-spacing="-0.02em"> </tspan><tspan x="53.59" y="175.97" letter-spacing="-0.01em">f</tspan><tspan x="55.26" y="175.97" letter-spacing="0em">elis ege</tspan><tspan x="73.12" y="175.97" letter-spacing="-0.02em">t</tspan><tspan x="74.62" y="175.97" xml:space="preserve" letter-spacing="0em"> bibendum. Nulla</tspan><tspan x="114.86" y="175.97" letter-spacing="-0.02em"> </tspan><tspan x="116.16" y="175.97" letter-spacing="-0.01em">f</tspan><tspan x="117.83" y="175.97" letter-spacing="0em">acilisi. Nulla</tspan><tspan x="145.35" y="175.97" letter-spacing="-0.02em"> </tspan><tspan x="146.65" y="175.97" letter-spacing="-0.01em">f</tspan><tspan x="148.32" y="175.97" letter-spacing="0em">eugia</tspan><tspan x="161.68" y="175.97" letter-spacing="-0.02em">t</tspan><tspan x="163.19" y="175.97" xml:space="preserve" letter-spacing="0em"> posue</tspan><tspan x="178.82" y="175.97" letter-spacing="-0.01em">r</tspan><tspan x="180.71" y="175.97" letter-spacing="0em">e eli</tspan><tspan x="190.28" y="175.97" letter-spacing="-0.02em">t</tspan><tspan x="191.79" y="175.97" letter-spacing="0em">, id </tspan></tspan><tspan x="0" y="182.57">eges</tspan><tspan x="11.19" y="182.57" letter-spacing="-0.01em">t</tspan><tspan x="12.75" y="182.57">as ipsum mollis ege</tspan><tspan x="58.9" y="182.57" letter-spacing="-0.02em">t</tspan><tspan x="60.4" y="182.57">. Donec eu dolo</tspan><tspan x="97.41" y="182.57" letter-spacing="-0.02em">r</tspan><tspan x="99.25" y="182.57" xml:space="preserve"> libe</tspan><tspan x="109.1" y="182.57" letter-spacing="-0.01em">r</tspan><tspan x="111" y="182.57">o. In</tspan><tspan x="121.05" y="182.57" letter-spacing="-0.01em">t</tspan><tspan x="122.61" y="182.57">ege</tspan><tspan x="131.59" y="182.57" letter-spacing="-0.02em">r</tspan><tspan x="133.43" y="182.57" xml:space="preserve" letter-spacing="0em"> alique</tspan><tspan x="149.37" y="182.57" letter-spacing="-0.02em">t</tspan><tspan x="150.88" y="182.57" xml:space="preserve" letter-spacing="0em"> sem neque, ege</tspan><tspan x="189.84" y="182.57" letter-spacing="-0.02em">t</tspan><tspan x="191.34" y="182.57" letter-spacing="-0.01em"> </tspan><tspan x="192.67" y="182.57" letter-spacing="0em">tincidun</tspan><tspan x="211.18" y="182.57" letter-spacing="-0.02em">t</tspan><tspan x="212.68" y="182.57" letter-spacing="0em"> </tspan><tspan x="0" y="189.18">augue</tspan><tspan x="15.08" y="189.18" letter-spacing="-0.02em"> </tspan><tspan x="16.38" y="189.18">fringilla</tspan><tspan x="34.09" y="189.18" letter-spacing="-0.02em"> </tspan><tspan x="35.39" y="189.18" letter-spacing="-0.01em">f</tspan><tspan x="37.06" y="189.18">ermentum. Sed enim enim, blandi</tspan><tspan x="116.84" y="189.18" letter-spacing="-0.02em">t</tspan><tspan x="118.34" y="189.18" letter-spacing="-0.02em"> </tspan><tspan x="119.6" y="189.18" letter-spacing="-0.01em">v</tspan><tspan x="122.17" y="189.18" letter-spacing="0em">el</tspan><tspan x="126.26" y="189.18" letter-spacing="-0.01em"> </tspan><tspan x="127.58" y="189.18" letter-spacing="0em">tincidun</tspan><tspan x="146.1" y="189.18" letter-spacing="-0.02em">t</tspan><tspan x="147.6" y="189.18" xml:space="preserve" letter-spacing="0em"> eu, molestie non e</tspan><tspan x="191.68" y="189.18" letter-spacing="-0.01em">r</tspan><tspan x="193.57" y="189.18">os. Sed si</tspan><tspan x="215.37" y="189.18" letter-spacing="-0.02em">t</tspan><tspan x="216.87" y="189.18"> </tspan><tspan x="0" y="195.79">ame</tspan><tspan x="10.73" y="195.79" letter-spacing="-0.02em">t</tspan><tspan x="12.23" y="195.79" xml:space="preserve" letter-spacing="0em"> urna ege</tspan><tspan x="34.95" y="195.79" letter-spacing="-0.02em">t</tspan><tspan x="36.45" y="195.79" xml:space="preserve"> sem por</tspan><tspan x="57.18" y="195.79" letter-spacing="-0.01em">t</tspan><tspan x="58.74" y="195.79" letter-spacing="0em">a aliquam eu nec ipsum.</tspan><tspan x="116.66" y="195.79" letter-spacing="-0.03em"> </tspan><tspan x="117.89" y="195.79">Vi</tspan><tspan x="121.94" y="195.79" letter-spacing="-0.01em">v</tspan><tspan x="124.51" y="195.79">amus quis</tspan><tspan x="148.34" y="195.79" letter-spacing="-0.02em"> </tspan><tspan x="149.63" y="195.79" letter-spacing="-0.01em">f</tspan><tspan x="151.3" y="195.79">elis e</tspan><tspan x="163.08" y="195.79" letter-spacing="-0.02em">t</tspan><tspan x="164.58" y="195.79" xml:space="preserve" letter-spacing="0em"> sem rhoncus g</tspan><tspan x="200.24" y="195.79" letter-spacing="-0.01em">r</tspan><tspan x="202.13" y="195.79">avida. </tspan><tspan x="0" y="202.39">Nunc quis</tspan><tspan x="22.88" y="202.39" letter-spacing="-0.02em"> </tspan><tspan x="24.18" y="202.39" letter-spacing="-0.01em">f</tspan><tspan x="25.84" y="202.39">eugia</tspan><tspan x="39.21" y="202.39" letter-spacing="-0.02em">t</tspan><tspan x="40.71" y="202.39"> </tspan><tspan x="42.1" y="202.39" letter-spacing="-0.01em">e</tspan><tspan x="44.95" y="202.39">x, eu molestie eli</tspan><tspan x="83.68" y="202.39" letter-spacing="-0.02em">t</tspan><tspan x="85.18" y="202.39">. Nulla lo</tspan><tspan x="105.56" y="202.39" letter-spacing="-0.01em">r</tspan><tspan x="107.45" y="202.39" letter-spacing="0em">em dui, maximus ege</tspan><tspan x="157.99" y="202.39" letter-spacing="-0.02em">t</tspan><tspan x="159.49" y="202.39" xml:space="preserve"> e</tspan><tspan x="163.78" y="202.39" letter-spacing="-0.01em">r</tspan><tspan x="165.67" y="202.39">a</tspan><tspan x="168.86" y="202.39" letter-spacing="-0.02em">t</tspan><tspan x="170.36" y="202.39" letter-spacing="-0.02em"> </tspan><tspan x="171.62" y="202.39">vi</tspan><tspan x="175.44" y="202.39" letter-spacing="-0.01em">t</tspan><tspan x="177" y="202.39">ae, cursus </tspan><tspan x="0" y="209">elei</tspan><tspan x="8.18" y="209" letter-spacing="-0.01em">f</tspan><tspan x="9.85" y="209">end leo. </tspan><tspan x="30.08" y="209" letter-spacing="-0.01em">E</tspan><tspan x="32.92" y="209" letter-spacing="0em">tiam</tspan><tspan x="43.55" y="209" letter-spacing="-0.01em"> </tspan><tspan x="44.88" y="209">tristique, jus</tspan><tspan x="72.6" y="209" letter-spacing="-0.01em">t</tspan><tspan x="74.16" y="209" letter-spacing="0em">o a</tspan><tspan x="81.78" y="209" letter-spacing="-0.02em">t</tspan><tspan x="83.29" y="209" xml:space="preserve"> alique</tspan><tspan x="99.23" y="209" letter-spacing="-0.02em">t</tspan><tspan x="100.73" y="209" letter-spacing="-0.02em"> </tspan><tspan x="102.03" y="209" letter-spacing="-0.01em">f</tspan><tspan x="103.7" y="209" letter-spacing="0em">acilisis, metus</tspan><tspan x="135.61" y="209" letter-spacing="-0.01em"> </tspan><tspan x="136.94" y="209" letter-spacing="-0.01em">t</tspan><tspan x="138.5" y="209">ellus elei</tspan><tspan x="158.46" y="209" letter-spacing="-0.01em">f</tspan><tspan x="160.13" y="209" letter-spacing="0em">end odio.</tspan></text>
  <text transform="translate(41.44 72.65)" font-size="5.2" fill="#231f20" font-family="SofiaProLight, Sofia Pro" letter-spacing="-0.04em">F<tspan x="2.51" y="0" letter-spacing="0em">ugi</tspan><tspan x="9.79" y="0" letter-spacing="-0.02em">t</tspan><tspan x="11.29" y="0" xml:space="preserve" letter-spacing="0em"> mi, odic</tspan><tspan x="31.22" y="0" letter-spacing="-0.01em">t</tspan><tspan x="32.78" y="0" letter-spacing="0em">a</tspan><tspan x="35.97" y="0" letter-spacing="-0.01em">t</tspan><tspan x="37.53" y="0" letter-spacing="0em">em </tspan><tspan letter-spacing="0em"><tspan x="0" y="6.61">vi</tspan><tspan x="3.82" y="6.61" letter-spacing="-0.02em">t</tspan><tspan x="5.32" y="6.61" xml:space="preserve"> arum</tspan><tspan x="19.41" y="6.61" letter-spacing="-0.02em"> </tspan><tspan x="20.71" y="6.61" letter-spacing="0em">fugia cum </tspan><tspan x="0" y="13.21">adipsusdam di</tspan><tspan x="34.85" y="13.21" letter-spacing="-0.01em">t</tspan><tspan x="36.41" y="13.21">as nis</tspan></tspan></text>
  <path id="uhealth-logo-red" d="M68.29,31.31v7.36H66.91v-3H64v3H62.61V31.31H64v3.09h2.95V31.31Zm2,7.36H75V37.45h-3.3v-1.8h2.8V34.44h-2.8V32.52h3.19V31.31H70.32Zm11.13,0h1.44l-2.75-7.36H78.66l-2.76,7.36h1.45L78,36.88h2.74Zm-2-5.79.93,2.81H78.49Zm4.7,5.79H88.3V37.45H85.46V31.31H84.1Zm4.31-6.11h2.07v6.11h1.38V32.56h2.07V31.31H88.41Zm11.33-1.25v3.09H96.79V31.31H95.44v7.36h1.36v-3h2.95v3h1.38V31.31ZM64.13,43V41.24h.42V43a1,1,0,0,1-2,0V41.24H63V43a.58.58,0,0,0,1.15,0m3.1-1.75h-.41v1.9l-1.14-1.9h-.4v2.68h.41V42l1.15,1.92h.39Zm.67,2.68h.41V41.24h-.41Zm.92-2.68.81,2.68H70l.81-2.68h-.43l-.58,2-.57-2Zm2.49,2.68H73v-.38H71.74v-.75h1.05v-.38H71.74v-.79h1.2v-.38H71.33Zm3.46-1a.76.76,0,0,0,.69-.83.79.79,0,0,0-.82-.85h-1v2.68H74v-1h.29l.67,1h.5Zm-.14-1.3a.47.47,0,0,1,0,.94H74v-.94ZM76,43.14A.88.88,0,0,0,77,44a.84.84,0,0,0,.92-.72c0-.38-.18-.69-.73-.83l-.34-.09c-.32-.08-.36-.24-.36-.35a.42.42,0,0,1,.46-.37.42.42,0,0,1,.47.4h.41a.8.8,0,0,0-.87-.79.82.82,0,0,0-.88.77c0,.24.09.56.67.72l.34.09c.25.06.44.19.43.44a.45.45,0,0,1-.51.37.5.5,0,0,1-.53-.44Zm2.4.78h.41V41.24h-.41Zm.88-2.3h.79v2.3h.42v-2.3h.79v-.39h-2Zm3.7,2.3V42.7l1-1.46h-.49l-.75,1.07-.74-1.07h-.49l1,1.45v1.23Zm3.64-2.72A1.38,1.38,0,1,0,88,42.59a1.36,1.36,0,0,0-1.36-1.38m0,2.35a1,1,0,1,1,.95-1,.95.95,0,0,1-.95,1m1.88.37H89V42.79h.93v-.38H89v-.79h1.18v-.38H88.55ZM93.17,43A.58.58,0,0,1,92,43V41.24H91.6V43a1,1,0,0,0,2,0V41.24h-.42V43m1-1.37h.79v2.3h.42v-2.3h.79v-.39h-2Zm4,2.3h.44l-1-2.68h-.45l-1,2.68h.44l.26-.67h1.08Zm-.8-2.17.4,1.13h-.8Zm3.35-.52V42.4H99.49V41.24h-.41v2.68h.41V42.78h1.21v1.14h.42V41.24Zm-46-6.3c.24-.22.51-.54.84-.8m1.59,5.78-1.39.56a.32.32,0,0,1-.22-.59l1.62-.65v-.88l-1.52-.07a.3.3,0,0,1,0-.59l1.48.07h0V37h0l-.72-.68a.3.3,0,0,1,.41-.42l.31.29V34c-1.3,1.9-4,3.84-1.65,8.48l1.65-1.64v-.93ZM55.83,29.17a5.19,5.19,0,0,0-.4.79l1.14.37a.18.18,0,1,1-.12.34l-1.14-.38A6,6,0,0,0,55,31.37l1.61,0a.19.19,0,1,1,0,.37L55,31.74A4.74,4.74,0,0,0,55.07,33h0l1.65-.64a.19.19,0,1,1,.14.36l-1.7.66a3.43,3.43,0,0,0,.35.8c-.33.26-.6.58-.84.8a5.31,5.31,0,0,1,1.21-6.65H50.83V33H52.4v6.25H47.68V33h1.57V28.29H41.42V33H43v7.84L46.13,44h7.82l.18-.21c-3.52-9.14,4.62-9,3-12.95a2.4,2.4,0,0,1,.43,2.2h1.06V28.29H56.61a3,3,0,0,0-.58.59l.48.51a.18.18,0,1,1-.26.23l-.42-.45" fill="#ac162c"/>
  <g id="address">
    <path id="serv-line" d="M229.7,30.08a.41.41,0,0,0,.45.37c.26,0,.42-.14.43-.31s-.11-.29-.36-.36l-.32-.08c-.57-.17-.66-.5-.66-.73a.81.81,0,0,1,.88-.76A.79.79,0,0,1,231,29h-.48a.34.34,0,0,0-.39-.34c-.22,0-.39.12-.39.31s0,.22.31.3l.32.09c.58.16.73.49.71.79a.83.83,0,0,1-.92.74.85.85,0,0,1-.93-.8Zm3.57,0h-1.35a.45.45,0,0,0,.49.38.5.5,0,0,0,.44-.23l.35.19a.95.95,0,0,1-1.74-.5.89.89,0,0,1,.92-.92.87.87,0,0,1,.9.92S233.27,30.07,233.27,30.11Zm-.44-.31a.42.42,0,0,0-.44-.37.44.44,0,0,0-.47.37Zm1.37,1h-.46V29.08h.46v.42a.54.54,0,0,1,.5-.45.62.62,0,0,1,.29.06l-.08.42a.66.66,0,0,0-.27,0c-.31,0-.44.28-.44.75Zm1-1.77h.49l.45,1.18.45-1.18h.5l-.75,1.77H236Zm2.49-1a.28.28,0,1,1,0,.56.28.28,0,1,1,0-.56Zm.23,2.73h-.46V29.08H238ZM239.36,29a.91.91,0,0,1,.73.34l-.37.28a.45.45,0,0,0-.37-.17.47.47,0,0,0-.5.47.49.49,0,0,0,.5.48.45.45,0,0,0,.37-.18l.37.27a.92.92,0,0,1-.74.35.92.92,0,0,1-1-.93A.92.92,0,0,1,239.36,29Zm2.83,1.07h-1.35a.45.45,0,0,0,.49.38.5.5,0,0,0,.44-.23l.35.19a.95.95,0,0,1-1.74-.5.89.89,0,0,1,.92-.92.87.87,0,0,1,.9.92S242.2,30.07,242.2,30.11Zm-.44-.31a.42.42,0,0,0-.44-.37.44.44,0,0,0-.47.37Zm1.85-1.56h.48v2.18h1v.43H243.6Zm2.13-.12a.28.28,0,1,1,0,.56.28.28,0,1,1,0-.56Zm.23,2.73h-.46V29.08H246Zm1,0h-.46V29.08H247v.26a.6.6,0,0,1,.53-.3c.41,0,.66.26.66.76v1h-.46v-1c0-.26-.14-.39-.34-.39a.36.36,0,0,0-.39.41Zm3.44-.73h-1.35a.45.45,0,0,0,.49.38.5.5,0,0,0,.44-.23l.35.19a.95.95,0,0,1-1.74-.5.89.89,0,0,1,.92-.92.87.87,0,0,1,.9.92S250.43,30.07,250.43,30.11ZM250,29.8a.42.42,0,0,0-.44-.37.44.44,0,0,0-.47.37Zm3.86-1.56v2.61h-.49V29.77h-1v1.08h-.48V28.24h.48v1.09h1V28.24Zm2.36,1.88h-1.35a.45.45,0,0,0,.49.38.5.5,0,0,0,.44-.23l.35.19a.95.95,0,0,1-1.74-.5.89.89,0,0,1,.92-.92.87.87,0,0,1,.9.92S256.21,30.07,256.21,30.11Zm-.44-.31a.42.42,0,0,0-.44-.37.44.44,0,0,0-.47.37Zm1.38,1h-.46V29.08h.46v.42a.54.54,0,0,1,.5-.45.62.62,0,0,1,.29.06l-.08.42a.66.66,0,0,0-.27,0c-.31,0-.44.28-.44.75Zm2.83-.73h-1.35a.45.45,0,0,0,.49.38.5.5,0,0,0,.44-.23l.35.19a.95.95,0,0,1-1.74-.5.89.89,0,0,1,.92-.92.87.87,0,0,1,.9.92S260,30.07,260,30.11Zm-.44-.31a.42.42,0,0,0-.44-.37.44.44,0,0,0-.47.37Z" fill="#414042"/>
    <path id="address-2" data-name="address" d="M225.83,34.75a.71.71,0,0,0,.63.42.57.57,0,0,0,.63-.57.54.54,0,0,0-.57-.54,1.33,1.33,0,0,0-.69.2l-.1-.13.22-1.25h1.23v.25h-1L226,34a1.15,1.15,0,0,1,.51-.15.78.78,0,0,1,.83.79.81.81,0,0,1-.89.83,1,1,0,0,1-.84-.53Zm2.94-1.9c.71,0,.89.58.89,1.29s-.18,1.29-.89,1.29-.9-.58-.9-1.29S228.06,32.85,228.77,32.85Zm0,2.33c.52,0,.64-.47.64-1s-.12-1-.64-1-.65.47-.65,1S228.25,35.18,228.77,35.18Zm4.12.21-1.33-2.18v2.18h-.25V32.79h.27L232.9,35V32.79h.25v2.61ZM234.1,35a.2.2,0,1,1-.21.2A.2.2,0,0,1,234.1,35Zm4.27-2.25h.25l.32,2.61h-.25l-.27-2.16-.92,1.88h-.25l-.92-1.88-.27,2.16h-.25l.32-2.61h.25l1,2Zm1.08,1.72a.87.87,0,0,1,.89-.92.85.85,0,0,1,.87.92,1.14,1.14,0,0,1,0,.12h-1.5a.64.64,0,0,0,1.19.25l.25.06a.86.86,0,0,1-.81.5A.88.88,0,0,1,239.45,34.5Zm1.5-.12a.6.6,0,0,0-.61-.55.62.62,0,0,0-.64.55Zm2.51,1h-.25v-.3a.78.78,0,0,1-.67.34.88.88,0,0,1-.9-.93.88.88,0,0,1,.9-.92.77.77,0,0,1,.67.33V32.67h.25Zm-.92-.22a.64.64,0,0,0,.67-.67.65.65,0,0,0-.67-.66.63.63,0,0,0-.65.66A.64.64,0,0,0,242.54,35.18Zm1.71-2.39a.18.18,0,1,1-.19.18A.18.18,0,0,1,244.25,32.79Zm.12.84h-.25v1.77h.25Zm2.1,1.56a.93.93,0,0,1-.64.24.9.9,0,0,1-.92-.93.89.89,0,0,1,.92-.92.94.94,0,0,1,.64.24l-.18.18a.69.69,0,0,0-.46-.17.65.65,0,0,0-.67.67.66.66,0,0,0,.67.68.68.68,0,0,0,.46-.17Zm2.16.2h-.25v-.3a.78.78,0,0,1-.67.34.88.88,0,0,1-.9-.93.88.88,0,0,1,.9-.92.77.77,0,0,1,.67.33v-.29h.25Zm-.92-.22a.64.64,0,0,0,.67-.67.65.65,0,0,0-.67-.66.63.63,0,0,0-.65.66A.64.64,0,0,0,247.71,35.18Zm1.83.22h-.25V32.67h.25Zm1.69,0V32.79h1a1.31,1.31,0,0,1,0,2.61Zm.25-.25h.73c.6,0,.9-.45.9-1s-.3-1.06-.9-1.06h-.73ZM255,33.9a.65.65,0,0,0-.26-.06c-.36,0-.51.42-.51.89v.66H254V33.63h.25V34c.09-.3.25-.44.51-.44a.57.57,0,0,1,.29.07Zm.6-1.12a.18.18,0,1,1-.19.18A.18.18,0,0,1,255.61,32.79Zm.12.84h-.25v1.77h.25Zm.71,0,.6,1.47.6-1.47h.27l-.73,1.77h-.27l-.73-1.77Zm1.74.88a.87.87,0,0,1,.89-.92.85.85,0,0,1,.87.92,1.14,1.14,0,0,1,0,.12h-1.5a.64.64,0,0,0,1.19.25l.25.06a.86.86,0,0,1-.81.5A.88.88,0,0,1,258.19,34.5Zm1.5-.12a.6.6,0,0,0-.61-.55.62.62,0,0,0-.64.55Zm-42.84,5.34a.6.6,0,0,0,.64-.43c0-.32-.2-.48-.5-.55l-.35-.08c-.54-.12-.61-.44-.61-.65a.77.77,0,0,1,.82-.71.75.75,0,0,1,.82.75h-.25a.51.51,0,0,0-.57-.5.52.52,0,0,0-.57.46c0,.14,0,.33.42.41l.36.08c.42.09.76.34.69.84a.84.84,0,0,1-.89.63.82.82,0,0,1-.84-.79h.25A.57.57,0,0,0,216.85,39.73Zm3.18.21h-.25v-.3a.78.78,0,0,1-.67.34.88.88,0,0,1-.9-.93.88.88,0,0,1,.9-.92.77.77,0,0,1,.67.33v-.29H220Zm-.92-.22a.64.64,0,0,0,.67-.67.65.65,0,0,0-.67-.66.63.63,0,0,0-.65.66A.64.64,0,0,0,219.12,39.73Zm1.83.22h-.25V37.22h.25Zm.78,0V38.4h-.32v-.23h.32v-.66H222v.66h.37v.23H222v1.54Zm2.38-2.61v2.36h1.11v.25h-1.35V37.34Zm3.25,2.61h-.25v-.3a.78.78,0,0,1-.67.34.88.88,0,0,1-.9-.93.88.88,0,0,1,.9-.92.77.77,0,0,1,.67.33v-.29h.25Zm-.92-.22a.64.64,0,0,0,.67-.67.65.65,0,0,0-.67-.66.63.63,0,0,0-.65.66A.64.64,0,0,0,226.43,39.73Zm1.83.22H228V37.22h.25v1.66l.7-.7h.36l-.76.76,1,1h-.34l-.91-1Zm1.43-.89a.87.87,0,0,1,.89-.92.85.85,0,0,1,.87.92,1.14,1.14,0,0,1,0,.12H230a.64.64,0,0,0,1.19.25l.25.06a.86.86,0,0,1-.81.5A.88.88,0,0,1,229.7,39.05Zm1.5-.12a.6.6,0,0,0-.61-.55.62.62,0,0,0-.64.55Zm3.83.65a1.29,1.29,0,0,1-.93.39,1.34,1.34,0,1,1,.93-2.29l-.17.17a1.06,1.06,0,0,0-.75-.31,1.09,1.09,0,0,0,0,2.18,1,1,0,0,0,.76-.32Zm.62-2.26a.18.18,0,1,1-.19.18A.18.18,0,0,1,235.65,37.34Zm.12.84h-.25v1.77h.25Zm.77,1.77V38.4h-.32v-.23h.32v-.66h.25v.66h.37v.23h-.37v1.54Zm1.35.86.35-.86-.73-1.76h.26l.6,1.44.6-1.44h.27l-1.1,2.62Zm1.39-.41a1.28,1.28,0,0,0,.24-.8h.29a1.23,1.23,0,0,1-.36.85Zm3.8-1.33V37.34h.25v1.73a.92.92,0,0,1-1.85,0V37.34h.25v1.73a.67.67,0,0,0,1.35,0Zm1.06.88V38.4h-.32v-.23h.32v-.66h.25v.66h.37v.23h-.37v1.54Zm2.76,0h-.25v-.3A.78.78,0,0,1,246,40a.88.88,0,0,1-.9-.93.88.88,0,0,1,.9-.92.77.77,0,0,1,.67.33v-.29h.25Zm-.92-.22a.64.64,0,0,0,.67-.67.65.65,0,0,0-.67-.66.63.63,0,0,0-.65.66A.64.64,0,0,0,246,39.73Zm1.84.22h-.25V37.22h.25v1.25a.65.65,0,0,1,.59-.33c.43,0,.69.3.68.78v1h-.25v-1c0-.33-.16-.53-.43-.53a.55.55,0,0,0-.59.59Zm3.63-2.55a.63.63,0,0,1,.65.62.59.59,0,0,1-.23.47.8.8,0,0,1,.43.7.85.85,0,0,1-1.7,0,.79.79,0,0,1,.42-.7.59.59,0,0,1-.22-.47A.62.62,0,0,1,251.46,37.4Zm0,2.33a.57.57,0,0,0,.6-.55.58.58,0,0,0-.6-.56h0a.58.58,0,0,0-.57.56A.57.57,0,0,0,251.46,39.73Zm0-1.34h0a.39.39,0,0,0,.39-.37.38.38,0,0,0-.4-.37.37.37,0,1,0,0,.74Zm2.87,1.56h-.25v-.54h-1.32l1.38-2h.19v1.75h.38v.23h-.38Zm-.25-.77V37.93l-.86,1.25Zm1.38-1.42-.43.15v-.23l.68-.25v2.52h-.25Zm1.66-.36a.65.65,0,0,1,.67.72.59.59,0,0,1-.36.48.68.68,0,0,1,.46.7.82.82,0,0,1-.9.69.84.84,0,0,1-.71-.47l.23-.1a.59.59,0,0,0,.5.32h0a.57.57,0,0,0,.63-.48.55.55,0,0,0-.56-.53h-.24v-.24h.24a.44.44,0,0,0,.46-.41c0-.23-.13-.41-.44-.42a.54.54,0,0,0-.49.23l-.2-.12A.75.75,0,0,1,257.09,37.39Zm2.3,1.19a.73.73,0,0,0,.2-.47.48.48,0,0,0-.52-.47.5.5,0,0,0-.53.4l-.23-.06a.78.78,0,0,1,1.53.13,1,1,0,0,1-.27.64l-.79.93h1.07v.25h-1.51v-.09Zm-22.77,3.36a.63.63,0,0,1,.65.62A.59.59,0,0,1,237,43a.8.8,0,0,1,.43.7.85.85,0,0,1-1.7,0,.79.79,0,0,1,.42-.7.59.59,0,0,1-.22-.47A.62.62,0,0,1,236.62,41.94Zm0,2.33a.57.57,0,0,0,.6-.55.58.58,0,0,0-.6-.56h0a.58.58,0,0,0-.57.56A.57.57,0,0,0,236.62,44.28Zm0-1.34h0a.39.39,0,0,0,.39-.37.38.38,0,0,0-.4-.37.37.37,0,1,0,0,.74Zm2.32-1c.71,0,.89.58.89,1.29s-.18,1.29-.89,1.29-.9-.58-.9-1.29S238.21,41.94,238.92,41.94Zm0,2.33c.52,0,.64-.47.64-1s-.12-1-.64-1-.65.47-.65,1S238.4,44.28,238.92,44.28Zm1.77-2-.43.15v-.23l.68-.25v2.52h-.25Zm1.19,1.84a.2.2,0,1,1-.21.2A.2.2,0,0,1,241.89,44.14Zm1.66-2.19c.71,0,.89.58.89,1.29s-.18,1.29-.89,1.29-.9-.58-.9-1.29S242.83,41.94,243.55,41.94Zm0,2.33c.52,0,.64-.47.64-1s-.12-1-.64-1-.65.47-.65,1S243,44.28,243.55,44.28ZM246,41.94c.71,0,.89.58.89,1.29s-.18,1.29-.89,1.29-.9-.58-.9-1.29S245.25,41.94,246,41.94Zm0,2.33c.52,0,.64-.47.64-1s-.12-1-.64-1-.65.47-.65,1S245.45,44.28,246,44.28Zm2.41-2.33c.71,0,.89.58.89,1.29s-.18,1.29-.89,1.29-.9-.58-.9-1.29S247.66,41.94,248.38,41.94Zm0,2.33c.52,0,.64-.47.64-1s-.12-1-.64-1-.65.47-.65,1S247.86,44.28,248.38,44.28Zm1.67-.14a.2.2,0,1,1-.21.2A.2.2,0,0,1,250,44.14Zm1.66-2.19c.71,0,.89.58.89,1.29s-.18,1.29-.89,1.29-.9-.58-.9-1.29S251,41.94,251.71,41.94Zm0,2.33c.52,0,.64-.47.64-1s-.12-1-.64-1-.65.47-.65,1S251.19,44.28,251.71,44.28Zm2.42-2.33c.71,0,.89.58.89,1.29s-.18,1.29-.89,1.29-.9-.58-.9-1.29S253.41,41.94,254.12,41.94Zm0,2.33c.52,0,.64-.47.64-1s-.12-1-.64-1-.65.47-.65,1S253.6,44.28,254.12,44.28Zm2.41-2.33c.71,0,.89.58.89,1.29s-.18,1.29-.89,1.29-.9-.58-.9-1.29S255.82,41.94,256.54,41.94Zm0,2.33c.52,0,.64-.47.64-1s-.12-1-.64-1-.65.47-.65,1S256,44.28,256.54,44.28ZM259,41.94c.71,0,.89.58.89,1.29s-.18,1.29-.89,1.29-.9-.58-.9-1.29S258.24,41.94,259,41.94Zm0,2.33c.52,0,.64-.47.64-1s-.12-1-.64-1-.65.47-.65,1S258.43,44.28,259,44.28Z" fill="#414042"/>
  </g>
</svg>
