<svg id="Layer_1" data-name="Layer 1" xmlns="http://www.w3.org/2000/svg" viewBox="0 0 612 216">
  <defs>
    <style>
      .cls-1 {
        fill: #aa182c;
      }

      .cls-2 {
        fill: #929497;
      }
    </style>
  </defs>
  <title>mychart</title>
  <path id="my" class="cls-1" d="M186.2,83.71h5.7l5,41.33h-6.36L187,95.53l-12.12,24.89h-5.4L157.34,95.53,153.8,125h-6.36l5-41.33h5.64l14,29.46ZM218.3,125v-19L202.58,83.71h7.62l11.4,16.44,11.52-16.44h7.62l-15.9,22.44V125Z"/>
  <path id="chart" class="cls-2" d="M280.37,119.46a20.41,20.41,0,0,1-14.76,6.18c-11.7,0-20-9.47-20-21.17s8.34-21.24,20-21.24a20.28,20.28,0,0,1,14.7,6.18l-2.76,2.76a16.72,16.72,0,0,0-11.94-5c-9.54,0-16.08,7.74-16.08,17.28s6.54,17.21,16.08,17.21a16.7,16.7,0,0,0,12-5Zm42,5.58h-4V106.39H295.73V125h-4V83.71h4v19h22.68v-19h4Zm11.22,0,15.9-41.33h4.2L369.59,125h-4.26l-4.2-10.85H342L337.85,125Zm18-35.81-8.16,21.23h16.32ZM407.38,125h-4.85l-11.4-16.13h-7V125h-4V83.71h15.36c8.4,0,11.45,6.3,11.45,12.66s-2.93,12.3-11,12.54ZM384.17,87.67V105h11c5.82,0,7.79-4.2,7.79-8.58s-2-8.7-7.49-8.7Zm59.93-4v4H430.84V125h-4V87.67H413.62v-4Z"/>
</svg>
