<svg xmlns="http://www.w3.org/2000/svg" xmlns:xlink="http://www.w3.org/1999/xlink" viewBox="0 0 136.01 155.41">
	<defs>
		<symbol id="uhealth-block-red" data-name="uhealth-block-red" viewBox="0 0 8.23 8.66">
		  <path id="uhealth-block-red-3" data-name="uhealth-block-red" d="M.42,8.46a.2.2,0,0,1-.21.21A.2.2,0,0,1,0,8.46V8.08H.09v.37a.12.12,0,0,0,.12.12.12.12,0,0,0,.12-.12V8.08H.42ZM1,8.08H.91v.41L.67,8.08H.58v.57H.67V8.24l.25.41H1Zm.14.57h.09V8.08H1.14Zm.63-.57H1.68l-.12.43-.12-.43H1.34l.17.57H1.6Zm.45,0H1.87v.57h.35V8.57H2V8.41h.22V8.33H2V8.16h.26Zm.37,0a.17.17,0,0,1,.17.18.16.16,0,0,1-.15.18l.15.21H2.65l-.14-.21H2.45v.21H2.36V8.08h.22m0,.28a.1.1,0,0,0,0-.2H2.45v.2Zm.5-.29a.18.18,0,0,0-.19.16c0,.05,0,.12.14.15l.07,0c.05,0,.09,0,.09.09a.1.1,0,0,1-.11.08A.11.11,0,0,1,3,8.49H2.88a.19.19,0,0,0,.2.17.18.18,0,0,0,.2-.15c0-.08,0-.15-.15-.18L3,8.31C3,8.3,3,8.26,3,8.24a.09.09,0,0,1,.1-.08.09.09,0,0,1,.1.09h.09a.17.17,0,0,0-.19-.17m.32.58h.09V8.08H3.39ZM4,8.08H3.58v.08h.17v.49h.09V8.16H4Zm.58,0H4.49l-.16.23-.16-.23H4.06l.22.31v.26h.09V8.39Zm.56,0a.29.29,0,1,1-.29.29.29.29,0,0,1,.29-.29m0,.5a.21.21,0,1,0-.2-.21.2.2,0,0,0,.2.21m.74-.49H5.55v.57h.09V8.41h.2V8.33h-.2V8.16h.25Zm.74,0H6.54v.37a.12.12,0,1,1-.25,0V8.08H6.2v.37a.21.21,0,0,0,.42,0Zm.54,0H6.74v.08h.17v.49H7V8.16h.17Zm.52.57H7.6l-.06-.14H7.31l-.05.14h-.1l.22-.57h.1Zm-.18-.22-.09-.24-.09.24Zm.72-.35H8.14v.25H7.89V8.08H7.8v.57h.09V8.41h.26v.24h.09Zm-7-.55H.93V6.88H.3v.65H0V6H.3v.66H.93V6h.29ZM2.63,6h-1V7.53h1V7.27h-.7V6.89h.6V6.63h-.6V6.22h.68ZM4.34,7.53H4l-.14-.38H3.3l-.14.38H2.85L3.44,6h.32ZM3.79,6.9l-.2-.6-.19.6ZM4.89,6H4.6V7.53h.9V7.27H4.89ZM6.7,6H5.52v.27H6v1.3h.29V6.23H6.7ZM8.23,6H7.94v.66H7.31V6H7V7.53h.29V6.88h.63v.65h.29Zm-2.76-4h0m.7-.27C5.8,2.23,5,2.8,5.7,4.16l.48-.48V3.41h0l-.41.16h0a.09.09,0,0,1-.09-.06.09.09,0,0,1,.05-.12l.47-.19V3l-.45,0a.09.09,0,0,1-.08-.09.09.09,0,0,1,.08-.08h0l.43,0h0V2.54h0L6,2.34A.09.09,0,0,1,6,2.2l.06,0,.09.09ZM6.64,0H6a.9.9,0,0,0-.17.17L6,.32V.4H5.93L5.81.26a1.53,1.53,0,0,0-.12.23L6,.6a.05.05,0,0,1,0,.07A.05.05,0,0,1,6,.71H6L5.65.59A1.67,1.67,0,0,0,5.58.9l.47,0h0a.06.06,0,0,1,.06.05A.05.05,0,0,1,6.05,1L5.57,1a1.35,1.35,0,0,0,0,.35l.48-.19h0a.06.06,0,0,1,.05,0,.06.06,0,0,1,0,.07l-.5.19a.94.94,0,0,0,.1.23c-.09.07-.17.16-.24.23h0A1.56,1.56,0,0,1,5.82,0H4.34V1.38H4.8V3.21H3.42V1.38h.46V0H1.59V1.38H2v2.3L3,4.59H5.26l.05-.06c-1-2.68,1.35-2.64.89-3.79a.7.7,0,0,1,.13.64h.31Z" fill="#ac162c"/>
		</symbol>
	</defs>
	<title>UHealth Shirt Department Front Pocket</title>
	<g id="body">
	  <path d="M133.1,58.4c-3.77-9-8.44-21.34-8.44-21.34s-.41-10.9-8.86-15.79c-8.29-4.79-10.11-5.49-13.24-6.68-2.44-.93-7-2.54-9.58-3.48-.07-2-.88-3.82-3.28-6C86,1.65,79.27,1.64,74.35,1.63l-2.87,0h-7.4l-2.92,0c-4.92,0-11.65,0-15.35,3.44-2.47,2.29-3.26,4.19-3.28,6.22-2.67,1-6.78,2.43-9.07,3.3-3.14,1.19-5.8,1.88-13.24,6.68C12,26.56,11.35,37.06,11.35,37.06S6.68,49.44,2.91,58.4c-2.75,6.54-2,7.3-2,7.3A34.33,34.33,0,0,0,26.76,80.59l3.78-11s3.48,9,1.54,29-2.83,44.91-2.83,44.91-.75,4.89,1.79,6,17.43,4.57,37,4.18c19.52.39,34.44-3,37-4.18s1.79-6,1.79-6-.9-24.9-2.83-44.91,1.54-29,1.54-29l3.78,11a34.33,34.33,0,0,0,25.89-14.88s.72-.76-2-7.3" fill="#231f20"/>
	  <path d="M133.55,62.43c-8.39,11.23-20.7,14-24.43,14.65l.84,2.44A33.66,33.66,0,0,0,134.2,65.26v0a10.17,10.17,0,0,0-.65-2.8" fill="#dae5eb"/>
	  <path d="M2.46,62.43a10.14,10.14,0,0,0-.65,2.8v0A33.66,33.66,0,0,0,26.05,79.52l.84-2.44c-3.73-.61-16-3.42-24.43-14.65" fill="#dae5eb"/>
	  <path d="M105.74,143.67v-.06c0-.25-.92-25.1-2.83-44.85s1.46-29.1,1.61-29.48l1-2.64,3.38,9.79c3.51-.56,16-3.3,24.38-14.79-.28-.78-.64-1.72-1.12-2.84-3.74-8.87-8.4-21.26-8.45-21.38l-.06-.15V37.1c0-.1-.51-10.4-8.36-14.94-8.25-4.77-10-5.42-13.09-6.61L90.71,11.39c-5.46,8.1-23.35,7.41-24.12,7.38-15.46,0-20.11-5.17-21.39-7.34L33.82,15.55,32.69,16c-2.69,1-5.47,2-11.93,6.17-7.66,4.94-8.39,14.89-8.4,15v.15l-.05.14c0,.12-4.71,12.51-8.45,21.38-.47,1.12-.84,2.06-1.12,2.84,8.35,11.49,20.88,14.23,24.39,14.79l3.37-9.77,1,2.6c.15.38,3.55,9.47,1.61,29.49-1.91,19.75-2.82,44.6-2.83,44.85v.12c-.16,1.07-.28,4.29,1.2,5,2.15,1,16.75,4.48,36.52,4.09,19.81.39,34.41-3.11,36.56-4.09,1.49-.68,1.36-3.89,1.2-5Z" fill="#fff"/>
	  <path d="M64.88,12.64,64.8,9.76c-2.72,0-5.69-.27-8.11-.46-1.58-.13-2.94-.24-3.68-.24a1.44,1.44,0,0,0-1.13.32.42.42,0,0,0-.07.31,9.2,9.2,0,0,0,4.47,2,60,60,0,0,0,8.59,1" fill="#dae5eb"/>
	  <path d="M65.89,12.44l3.87.21c4.81-.22,9.93-1,10-1a9.2,9.2,0,0,0,4.47-2,.42.42,0,0,0-.07-.31A1.45,1.45,0,0,0,83,9.05c-.74,0-2.1.11-3.67.24-2.18.18-4.81.39-7.3.45l-.1,2.18-.48-2.16H64.89Z" fill="#dae5eb"/>
	  <path d="M132.16,58.8c-.38-.89-.76-1.82-1.15-2.77-1.46,3.62-4.11,7.11-9.33,10.25-9.58,5.77-7.67-1.17-7.16-3.9s10.74-26.12,6.14-20.27S114,44.45,114,44.45s-2.74-17.61-5.14-16c.2,1.7.33,3.4.42,5.11a52.43,52.43,0,0,1-4.75,6.38l-1.16,10.93s-1.9,23.47-12.85,27.54c-3.77,1.4,7.94,4.3,7.94,4.3L93.36,98.27s4.19-5.92,5.12-5.92.74,7,.74,7c-2.45,59.5-45.43,42.28-45.66,39.21s7.67-18,7.67-18-9.53,8.07-12.32,10.9-6.52,6.84-9.08,1.42,17.46-30.42,16.76-32.31-3.49.94-3.49.94-16.52,16.75-17.22,11.08,18.85-20,18.85-20-10,4.72-14.43,6.13-2.85-8.49-3.09-12,4.25-4.25,4.25-4.25c7.68-1.42,13.48-4.66,3-5.82-8.16-.91-9.81-11.51-10.63-18.24-1.6-13.28.91-17.2.91-17.2s-1.69.93-3.79,1.87a4.74,4.74,0,0,1-.66.25c-1.27.36-.74-.72-.74-.72-.7-13.68-4-16.74-4-16.74,2.17,6.43,1.23,13.1.52,16.36-2.21-3.91-5.07-8.1-5.88-5.15-.57,2.1.62,5.79,2.36,9.91,0,0,1.34,5.29,3.19,16.71s-4.91,5.21-5,5.11c-6.2-9.72-8.24-24.27-7.57-35.93a22,22,0,0,0-.85,4.24v.15l-.05.14c0,.12-4.71,12.51-8.45,21.38-.47,1.12-.84,2.06-1.12,2.85,8.35,11.49,20.88,14.23,24.38,14.79l3.37-9.77,1,2.6c.15.38,3.55,9.47,1.61,29.49-1.91,19.75-2.82,44.6-2.83,44.85v.12c-.16,1.07-.28,4.29,1.2,5,2.15,1,16.75,4.48,36.52,4.09,19.81.39,34.41-3.11,36.56-4.09,1.49-.68,1.36-3.89,1.2-5v-.12c0-.25-.92-25.1-2.83-44.85s1.46-29.1,1.6-29.48l1-2.64,3.38,9.79c3.51-.55,16-3.3,24.38-14.79-.28-.78-.65-1.72-1.12-2.85M5.69,59.74c.19-3.65,3.86-10.06,3.86-10.06s.51,12.52,5.64,19.89c0,0-9.69-6.18-9.5-9.83" fill="#dae5eb"/>
	  <path d="M67.41,20.61s19.52.93,23.3-9.22c-5.46,8.1-23.35,7.41-24.12,7.38-15.46,0-20.11-5.18-21.39-7.34,0,0,2.07,9.18,22.2,9.18" fill="#dae5eb"/>
	  <path d="M39.54,78.53c-3.71-.86-7.2-10.39-8.69-18.28A126,126,0,0,1,29,45.83a19.74,19.74,0,0,0-1.31,8.61c.29,3,1.44,9.9,2.17,14.08l.64-1.87,1,2.6c.15.38,3.55,9.47,1.61,29.49-1.91,19.75-2.82,44.6-2.83,44.85v.12c-.16,1.07-.28,4.29,1.2,5a26.36,26.36,0,0,0,4,1.13,8.63,8.63,0,0,1-3.07-7.8c.73-6.29,1.35-25,1.62-31.31.27-6.56.64-13.85.64-13.85s-.05-7.18.32-11.11c.64-6.68,8.3-6.35,4.61-7.21m68-32s-1.19,10.63-2.19,15.06C103.12,71.26,100,76,97.42,77.55c-1.82,1.1,4.53.15,3.8,3.65s-2.78,6.29-2.63,7.31,1.92.95,1.92.95,1,14.7,1.25,21,.92,25.29,1.65,31.58a8.64,8.64,0,0,1-3.16,7.88,28.06,28.06,0,0,0,4.29-1.21c1.49-.68,1.36-3.89,1.2-5v-.12c0-.25-.92-25.1-2.83-44.85s1.46-29.1,1.61-29.48l1-2.64.49,1.43c.73-4.21,1.8-10.68,2.09-13.62a22.39,22.39,0,0,0-.58-7.9M45.46,147.94c30.79,6.42,48.74-.76,48.74-.76-19.27,4.38-48.74.76-48.74.76" fill="#c1c9ce"/>
	</g>
	<use width="8.23" height="8.66" transform="translate(81.86 39.33) scale(1.62)" xlink:href="#uhealth-block-red"/>
	<g id="collar">
	  <path d="M57.15,31.08l.36-.69s.94-1.84-2.81-.92S47,32.69,46.27,32a116.81,116.81,0,0,0-1.64-14.7C43.45,12,42.28,9.72,46.5,5.82s13.36-3,17.58-3.21h7.35c4.22.23,13.36-.69,17.58,3.21S92,12,90.88,17.3A116.93,116.93,0,0,0,89.24,32c-.7.69-4.69-1.61-8.44-2.53s-2.81.92-2.81.92l.08.69s-6.41-.69-8.52.69c0,0-4.3,1.38-4.3,18.14,0,0-2.34-9.87,2.11-17.91Z" fill="#c1c9ce"/>
	  <path d="M69.21,30.35l-.14.06-.13.07a1.13,1.13,0,0,1,.27-.13" fill="#fff"/>
	  <path d="M81,13.71c.4-2.36.94-5.55,1.09-7.48A2.11,2.11,0,0,0,81.94,6C80.55,4.52,70.5,4.75,66.72,5c-.08,0-8.3-.15-12.94.23-2.78.23-3.71.87-4,1.23a.62.62,0,0,0-.18.4h0C49.95,9,51.32,13,53.71,18.7c2.51,6,13,10.7,14.57,11.36,2.33-2.83,7.7-9.12,11.16-11.15,0,0,.86-.8,1.37-3.85Z" fill="#dae5eb"/>
	  <path d="M58.92,29.74l8.54.78a.94.94,0,0,1,.34.11l.11-.13c-1.5-.67-7.49-3.52-11.56-7.45,2.4,4,2.61,6,2.57,6.69" fill="#fff"/>
	  <path d="M88.24,5.71c-3.09-2.91-9.59-2.92-13.9-2.93l-3-.05H64.14l-3,.05c-4.31,0-10.81,0-13.9,2.93-2,1.86-2.62,3.22-2.62,4.91a19.43,19.43,0,0,0,.69,4.1l.38,1.67a111.61,111.61,0,0,1,1.61,14.12c.63-.19,1.54-.56,2.28-.85A38.13,38.13,0,0,1,54.44,28c1.17-.29,2.79-.57,3.71.24a37.1,37.1,0,0,0-3.78-7.39,11.73,11.73,0,0,1-1.17-1.91C47.28,6.48,49.55,5.22,49.55,5.22a2.46,2.46,0,0,0-.06.7c.7-.67,2.12-1.11,4.25-1.28,4.67-.38,12.91-.24,13-.23,1.37-.08,13.12-.69,15.45,1A1.7,1.7,0,0,0,82,4.58s1.22-.08.4,4.55l-1.09,6a10.18,10.18,0,0,1-1.18,3.68h0a37.26,37.26,0,0,0-2.64,9.25c.94-.64,2.43-.38,3.53-.11a38,38,0,0,1,4.84,1.69c.74.29,1.65.66,2.28.85A111.59,111.59,0,0,1,89.8,16.39l.38-1.67a19.43,19.43,0,0,0,.69-4.1c0-1.68-.65-3-2.62-4.91" fill="#fff"/>
	  <path d="M79.26,19.67c-3.62,2.42-9.06,8.9-11,11.26a3.22,3.22,0,0,1,.79-.53c1.84-1.11,5.63-1.05,7.72-.92a1.81,1.81,0,0,1,.11-.57,32.28,32.28,0,0,1,2.36-9.23" fill="#fff"/>
	  <rect x="73.83" y="26.2" width="3.19" height="0.61" transform="translate(40.55 98.44) rotate(-83.49)" fill="#c1c9ce"/>
	  <path d="M71.95,46.17c0,1.55,0,2.8,0,3.32l-6.75.14v.55L72.57,50v-.28c0-.09,0-11.8,0-11.8a39.21,39.21,0,0,0-.61,8.22" fill="#c1c9ce"/>
	  <path d="M67.67,35.46a1.81,1.81,0,1,0,3.49,0,1.81,1.81,0,1,0-3.49,0m.55,0c0-1,.53-1.73,1.19-1.73s1.19.78,1.19,1.73-.53,1.73-1.19,1.73-1.19-.77-1.19-1.73" fill="#c1c9ce"/>
	  <path d="M66.94,45.55a1.81,1.81,0,1,0,3.49,0,1.81,1.81,0,1,0-3.49,0m.55,0c0-1,.53-1.73,1.19-1.73s1.19.78,1.19,1.73-.53,1.73-1.19,1.73-1.19-.77-1.19-1.73" fill="#c1c9ce"/>
	  <path d="M82.16,5.46A1.71,1.71,0,0,0,82,4.58C80.8,3.33,72,3.33,61.2,3.33S49.55,5.22,49.55,5.22a2.5,2.5,0,0,0-.06.7c.7-.67,2.12-1.11,4.25-1.28,4.67-.38,12.91-.23,13-.23,1.37-.08,13.12-.69,15.45,1" fill="#dae5eb"/>
	</g>
	<g id="dept-pocket">
	  <text transform="translate(39.42 46.39)" font-size="2.1" fill="#ac162c" font-family="SofiaProSemiBold, Sofia Pro" font-weight="700">DEPARTMENT OF</text>
	  <text transform="translate(37.84 48.49)" font-size="2.1" fill="#ac162c" font-family="SofiaProSemiBold, Sofia Pro" font-weight="700">INTERNAL MEDICINE</text>
	</g>
</svg>
