<svg xmlns="http://www.w3.org/2000/svg" xmlns:xlink="http://www.w3.org/1999/xlink" viewBox="0 0 201.17 154.39">
  <defs>
    <symbol id="uhealth-block-red" data-name="uhealth-block-red" viewBox="0 0 8.23 8.66">
      <path id="uhealth-block-red-3" data-name="uhealth-block-red" d="M.42,8.46a.2.2,0,0,1-.21.21A.2.2,0,0,1,0,8.46V8.08H.09v.37a.12.12,0,0,0,.12.12.12.12,0,0,0,.12-.12V8.08H.42ZM1,8.08H.91v.41L.67,8.08H.58v.57H.67V8.24l.25.41H1Zm.14.57h.09V8.08H1.14Zm.63-.57H1.68l-.12.43-.12-.43H1.34l.17.57H1.6Zm.45,0H1.87v.57h.35V8.57H2V8.41h.22V8.33H2V8.16h.26Zm.37,0a.17.17,0,0,1,.17.18.16.16,0,0,1-.15.18l.15.21H2.65l-.14-.21H2.45v.21H2.36V8.08h.22m0,.28a.1.1,0,0,0,0-.2H2.45v.2Zm.5-.29a.18.18,0,0,0-.19.16c0,.05,0,.12.14.15l.07,0c.05,0,.09,0,.09.09a.1.1,0,0,1-.11.08A.11.11,0,0,1,3,8.49H2.88a.19.19,0,0,0,.2.17.18.18,0,0,0,.2-.15c0-.08,0-.15-.15-.18L3,8.31C3,8.3,3,8.26,3,8.24a.09.09,0,0,1,.1-.08.09.09,0,0,1,.1.09h.09a.17.17,0,0,0-.19-.17m.32.58h.09V8.08H3.39ZM4,8.08H3.58v.08h.17v.49h.09V8.16H4Zm.58,0H4.49l-.16.23-.16-.23H4.06l.22.31v.26h.09V8.39Zm.56,0a.29.29,0,1,1-.29.29.29.29,0,0,1,.29-.29m0,.5a.21.21,0,1,0-.2-.21.2.2,0,0,0,.2.21m.74-.49H5.55v.57h.09V8.41h.2V8.33h-.2V8.16h.25Zm.74,0H6.54v.37a.12.12,0,1,1-.25,0V8.08H6.2v.37a.21.21,0,0,0,.42,0Zm.54,0H6.74v.08h.17v.49H7V8.16h.17Zm.52.57H7.6l-.06-.14H7.31l-.05.14h-.1l.22-.57h.1Zm-.18-.22-.09-.24-.09.24Zm.72-.35H8.14v.25H7.89V8.08H7.8v.57h.09V8.41h.26v.24h.09Zm-7-.55H.93V6.88H.3v.65H0V6H.3v.66H.93V6h.29ZM2.63,6h-1V7.53h1V7.27h-.7V6.89h.6V6.63h-.6V6.22h.68ZM4.34,7.53H4l-.14-.38H3.3l-.14.38H2.85L3.44,6h.32ZM3.79,6.9l-.2-.6-.19.6ZM4.89,6H4.6V7.53h.9V7.27H4.89ZM6.7,6H5.52v.27H6v1.3h.29V6.23H6.7ZM8.23,6H7.94v.66H7.31V6H7V7.53h.29V6.88h.63v.65h.29Zm-2.76-4h0m.7-.27C5.8,2.23,5,2.8,5.7,4.16l.48-.48V3.41h0l-.41.16h0a.09.09,0,0,1-.09-.06.09.09,0,0,1,.05-.12l.47-.19V3l-.45,0a.09.09,0,0,1-.08-.09.09.09,0,0,1,.08-.08h0l.43,0h0V2.54h0L6,2.34A.09.09,0,0,1,6,2.2l.06,0,.09.09ZM6.64,0H6a.9.9,0,0,0-.17.17L6,.32V.4H5.93L5.81.26a1.53,1.53,0,0,0-.12.23L6,.6a.05.05,0,0,1,0,.07A.05.05,0,0,1,6,.71H6L5.65.59A1.67,1.67,0,0,0,5.58.9l.47,0h0a.06.06,0,0,1,.06.05A.05.05,0,0,1,6.05,1L5.57,1a1.35,1.35,0,0,0,0,.35l.48-.19h0a.06.06,0,0,1,.05,0,.06.06,0,0,1,0,.07l-.5.19a.94.94,0,0,0,.1.23c-.09.07-.17.16-.24.23h0A1.56,1.56,0,0,1,5.82,0H4.34V1.38H4.8V3.21H3.42V1.38h.46V0H1.59V1.38H2v2.3L3,4.59H5.26l.05-.06c-1-2.68,1.35-2.64.89-3.79a.7.7,0,0,1,.13.64h.31Z" fill="#ac162c"/>
    </symbol>
  </defs>
  <title>shirt-dept-sleeve</title>
  <g id="shirt-dept-sleeve">
    <g id="side-face">
      <path d="M197.28,103.22c-1.48,13.06,0,20.75,0,27.31s.35,15.81.35,17.88c-11,5.07-37.33,7.24-54.32,1.06-.69-3.45.48-10.31.48-14.45s-1.73-20.41-1.73-30.41-2.44-12.14-2.44-14.9-1.54-26.17,0-32.77c3.11-13.11,6.36-20.36,6.5-23.87s.14-6.87,1.9-9c.23-2.48.79-4.68,2-5.45C155.58,15.17,167.73,6,170.7,3.78c4.14-3.11,7.94-4.49,11.73-1.38,0,0,1,7.59,1,9.32s4.83,8.63,4.83,8.63,9.93,15.19,10.62,21.4.65,20.4.65,28.69-1,21.14-2.3,32.79"/>
      <path d="M196.11,102.45c-1.23,12.9-.17,19.88-.07,26.35s.25,16.46.28,18.5c-9.88,4.7-34.9,6.87-52,.84-.72-3.39.49-11.33.42-15.42s-1.46-18-1.61-27.89-2.59-12.64-2.63-15.36-1.25-27.87.46-34.33c2.17-8.2,4.52-14.13,5.57-19.8,1-5.41-.16-9.2,2.28-11.11,0-2.38,0-3.88,2.82-5.76C156.9,15,166.92,7.36,169.76,5.11,173.71,2,177.92,0,181.64,3c0,0,1.83,8.76.3,9.25,1-.2,4.8,8.44,4.8,8.44s9.82,14.83,10.58,20.95.94,20.12,1.07,28.29-1.18,21.06-2.27,32.57" fill="#fff"/>
      <path d="M199.37,78.08c.13-2.81.2-5.4.2-7.65,0-8.28,0-22.47-.65-28.69-.23-2.07-1.49-5.14-3.06-8.31,1.68,3.33,3,6.6,3.29,8.77.69,6.21.65,20.4.65,28.69,0,2-.17,4.45-.43,7.18" fill="#d3e1e9"/>
      <path d="M165.75,8.15l3.61-2.73c-.84.66-2.08,1.61-3.55,2.73h-.07m30.36,94.3h0c1.1-11.51,2.4-24.4,2.27-32.57s-.31-22.17-1.07-28.29-10.58-20.95-10.58-20.95S183,12.2,182,12.2h0c1.54-.49-.3-9.25-.3-9.25a6.19,6.19,0,0,0-4-1.47A11.65,11.65,0,0,0,171.3,4c2.4-1.77,4.53-3,6.65-3a6.55,6.55,0,0,1,4.21,1.7s.95,6.95.95,8.67,5.42,9.43,5.42,9.43,4.2,6.43,7.33,12.63c1.57,3.17,2.83,6.24,3.06,8.31.69,6.21.65,20.4.65,28.68,0,2.25-.07,4.84-.2,7.64-.86,8.83-2.73,20.18-3.26,24.37M191.76,149a31.28,31.28,0,0,0,4.56-1.69c0-1.4-.1-6.55-.18-11.73.14,4.45.39,8.31.39,9.77l.28,2.45-5,1.2m-7.08,1.68.51-.18,1-.19-1.54.36m-16.75,1.26.06-.11h.63a3.84,3.84,0,0,1-.69.11"/>
      <path d="M168.62,151.83H168c.75-1.27,1.48-1,.64-2.55-1.19-2.17-.91-4.4-.91-10.37a36.59,36.59,0,0,0-.28-4.84c-.23-3.22-3.66-5.93-3.89-10.3-.11-2.11-.09-2.83.23-2.83s1,.83,2.19,1.68a1.24,1.24,0,0,0,.63.29c.66,0,.26-1.83.07-4.83-.23-3.68-2-6.81-2.87-8.88-.79-1.78-4.58-6.73-2.67-6.73a3.78,3.78,0,0,1,1.41.42,1.06,1.06,0,0,0,.45.1c1.1,0,2.08-1.78,2.08-4,0-2.53-.69-2-2.3-4.76s-2.76-6-2.53-7.59,2.3-3.45,1.84-5.06-6-6.44-9.35-7.13c2.44-1.35,6.59-1.61,8.2-2.07s5.29-.92,2.53-2.3c-1.07-.54-1.31-.65-1.28-.65l.13,0,.16,0c.07,0,0-.07-.39-.34a10.24,10.24,0,0,1,3.41-.38c1.92,0,4.12.15,5.56.15,2.53,0,2.21-.61,2.71-1.56s.14-1.85-1.61-3.58-.87-2.78-.07-2.78a.79.79,0,0,1,.36.09c1.87,1,4,3.51,5,3.51a.48.48,0,0,0,.46-.33c.63-1.4-5.72-8.34-6.66-10.51s-.77-2.73-.17-2.73,2,.88,3.29,1.75,2.57,1.75,3.18,1.75h.07c1.61-.23.8-1.72.57-4.95s0-4.6-.69-6.67-1.38-1.84-2.53-3.45A19.76,19.76,0,0,0,171,35.3c-2.53-2.3-.23-2.3-.23-2.3a8.79,8.79,0,0,0-4.14-2.53,6,6,0,0,0-1.19-.11,12.49,12.49,0,0,0-1.34.09,12.77,12.77,0,0,1-1.35.09,6.41,6.41,0,0,1-2.55-.53c1.15-1.38,7.36-1.61,9-2.3s4.6-2.53,3.68-4.6c-.17-.38-1-.61-3-.61-1.34,0-3.2.1-5.73.33h0c-1,0,10.39-6.64,12-8.47s-1.15-4.14-.92-6.44c.09-.93-.5-1.25-1.45-1.25-2,0-5.71,1.45-7.92,1.48,1.47-1.12,2.71-2.08,3.55-2.73l1.56-1.18L171.3,4a11.64,11.64,0,0,1,6.35-2.48,6.18,6.18,0,0,1,4,1.47s1.83,8.76.3,9.25h0c1.07,0,4.76,8.44,4.76,8.44s9.82,14.83,10.58,20.95.94,20.12,1.07,28.29-1.18,21.06-2.27,32.57c-1.52,12-.07,20.78-.07,27.33,0,1.94,0,3.92.1,5.79.08,5.18.15,10.33.18,11.73a31.37,31.37,0,0,1-4.56,1.69l-5.54,1.31-1,.19c1.63-.59,6.71-2.58,8.25-5.08,1.84-3-1.21-5.63-1-8.62s-8-11.41-5.77-11.41a1.56,1.56,0,0,1,.37.05,11.14,11.14,0,0,0,2.64.39c4.76,0,2.82-5.68-5.45-18.33-2-3-1.9-3.89-.83-3.89a14.4,14.4,0,0,1,3.13.76,14.61,14.61,0,0,0,3.9.76,3.23,3.23,0,0,0,2.22-.7c5-4.48.1-16.19.56-21s-1.9-11.58-4.2-17.1c-.31-.75-.57-1.08-.77-1.08-1.31,0-.68,13.24-.88,15.42-.23,2.53-3.78,6.52-4.24,10.89-.1,1-.55,1.34-1.19,1.34a8.24,8.24,0,0,1-2.85-1,8.25,8.25,0,0,0-3-1c-.77,0-1.37.38-1.64,1.46-1.15,4.6,1.46,9.83-.84,13.74s.56,16.42.56,19.87c0,.74.22,1,.57,1a4.1,4.1,0,0,0,1.29-.43,4.28,4.28,0,0,1,1.6-.43c1,0,2,.77,2.43,3.76,1.15,7.82-4.95,13.48-6.1,16.47-1,2.7-3.22,5-5.34,5.5" fill="#d3e1e9"/>
      <path d="M196.15,42.81c.63,2.31.74,13.35.42,18s-.63,4.1-1.26,6.1.53,4.31.84,7.36.21,24.92-.53,26.7S195,111.77,193,112.19s-2.94-3.79-5.57-3.68,6.73,11.25,6.94,14.93,1.47,7.25.42,6.52-1.68.53-.84,3.36.42,5,.42,6.83.42,3.26.1,5.26-2.21,2-3.15,3-2.1,1.37-1.79,1.37,7-2.21,7-2.21c0-2.07-.49-9-.49-15.56s-1.45-15.32.07-27.33c.69-5.49,2.63-24.52,2.63-32.8s.06-22.07-.63-28.28-9.58-20.56-9.58-20.56c2.22,4.06,7.16,17.09,7.58,19.72" fill="#c1c9ce"/>
      <path d="M183,43.33c.35,1.65,3.34,7.41,1.79,10.72s-1.84,8.47-2,11.45-.34,3.82-.34,5-.21,2.81-.21,4.14.12,1.66-.91,2.87c-.66.78-2.52,2.38-6.66,1.05s-4.22-.06-7.15-.56a55.86,55.86,0,0,0-6.24-.7c-2.07-.17-6.28.13-7.48-.36a7.46,7.46,0,0,1-2.42-2.18c3.11-.83,3.11.52,10,.52s14.84-.17,14.84-.17a5.61,5.61,0,0,1,3.91-.2c1.29-5.36.77-11.81,2.56-17.7,1.44-4.75,1.35-8.58.32-13.88" fill="#b6bcc0"/>
      <path d="M151.72,20c1.67.78,2.24,2.93,2.76,5.75s.77,5,.77,5l7.22-7.15s-2.35,4.2-3.5,5.12-2,3.26-2.52,3.08-2,.74-3.11-1.33-.06-2.36-.75-2.7a4.54,4.54,0,0,0-1.5-.4,1.29,1.29,0,0,1,.92-.52c.69-.12,1-.12,1-.69s1.49-.29,0-.58-2.3-1.26-1.78-1.67-.46-4.37.52-3.91" fill="#d3e1e9"/>
      <path d="M169.19,77.64c0,1-.35,12.08-.35,17.95s-1,18.38-.34,28,1,11,1.73,19.67-.19,4.36.23,8.57h-.56c-.42-4.21.46.06-.23-8.57s-1-10-1.73-19.67.35-22.18.35-28,.35-16.91.35-17.95" fill="#96968f"/>
      <path d="M178.27,35.55c3.45,3.21,6.92,11.61,5.89,15.14s-.05,5.21-1.44,8.74a16.52,16.52,0,0,0-1.33,7.24c0,1.08-.35,3.36-.49,5.15-.11,1.41,0,2.95-.42,3.19-.95.56-2.66-.05-7.43.2a70,70,0,0,1-9.46.2c-2.23-.14-11,.49-12.21-.65a5.62,5.62,0,0,1-.24-3.09c-.12-2.15-.11-4.12-.11-4.77,0-1,.08-1.32,0-5.62-.06-3.86-.36-5.77-.36-10.26s2.74-12.94,8.63-14.57c0,0-3.42,2.61-3.79,2.8a20.47,20.47,0,0,0-2.52,4.5c-.54,1.62-1.21,2.58-1.26,7.76-.07,6.58.18,7.37.07,8.54s.07,5.51,0,6.58-.42,4.89,0,5a6.65,6.65,0,0,0,1.78-.27,10.19,10.19,0,0,1-1.92.72,6.41,6.41,0,0,0-.11.95c0,.36,0,1.17.56,1.24s10.27-.2,12.05-.16,8.73.13,9.85,0,5.82.62,5.92.07.56-1.56.24-1.92-3,0-1.79-.16-3,.23-3.4.2c1.12-.23,3-.26,3.71-.39a5.61,5.61,0,0,0,1.51-.33c0-.1,0-3.81,0-4.6a42.71,42.71,0,0,1,2-8c.58-1,1.29-8,1.32-9.06.11-3-1.69-10.2-5.25-14.4" fill="#96968f"/>
      <path d="M183.42,13.93c-.35-.35-.77-1.47-1.49-1.72-3.91,3.23-17.17,8.25-20.21,11.59-3.45,3.8-6.69,7.83-6.69,5.62,0-.73-1-8.9-3.32-9.42,0,0-.57.25-.62.52s-.42.05-.05.26.47-.32.84-.05a10.12,10.12,0,0,1,1.75,3.65c.42,1.73.67,3.92.77,4.56s.22,2.66.82,2.46.44-.15,1.44-1,4-4.84,4.94-5.57a72.52,72.52,0,0,1,8.57-5.52c2.47-1.16,7.57-3.71,8.62-4.14s3.29-2.17,4.63-1.19" fill="#96968f"/>
      <path d="M150.65,23.58l2.81-.33-.37-.47-2.1.37s-.62-.09-.34.43" fill="#96968f"/>
      <g id="dept-sleeve">
        <text transform="translate(158.96 48.07)" font-size="2.1" fill="#ac162c" font-family="SofiaProMedium, Sofia Pro">DEPARTMENT OF</text>
        <text transform="translate(156.59 50.17)" font-size="2.1" fill="#ac162c" font-family="SofiaProMedium, Sofia Pro">INTERNAL MEDICINE</text>
      </g>
    </g>
    <g id="front-face">
      <path d="M133.67,57.92c-3.77-9-8.44-21.34-8.44-21.34s-.41-10.9-8.86-15.79c-8.29-4.79-10.11-5.49-13.24-6.68-2.44-.93-7-2.54-9.58-3.48-.07-2-.88-3.82-3.28-6-3.7-3.42-10.43-3.43-15.35-3.44l-2.87,0h-7.4l-2.92,0c-4.92,0-11.65,0-15.35,3.44-2.47,2.29-3.25,4.19-3.28,6.22-2.67,1-6.78,2.43-9.07,3.3-3.14,1.19-5.8,1.88-13.24,6.68-8.21,5.29-8.86,15.79-8.86,15.79S7.26,49,3.48,57.92c-2.75,6.54-2,7.3-2,7.3A34.33,34.33,0,0,0,27.34,80.1l3.78-11s3.48,9,1.54,29-2.83,44.91-2.83,44.91-.75,4.89,1.79,6,17.43,4.57,37,4.18c19.52.39,34.44-3,37-4.18s1.79-6,1.79-6-.9-24.9-2.83-44.91,1.54-29,1.54-29l3.78,11a34.33,34.33,0,0,0,25.89-14.88s.72-.76-2-7.3" fill="#231f20"/>
      <path d="M134.12,61.94c-8.39,11.23-20.7,14-24.43,14.65l.84,2.44a33.66,33.66,0,0,0,24.24-14.26v0a10.17,10.17,0,0,0-.65-2.8" fill="#dae5eb"/>
      <path d="M3,61.94a10.19,10.19,0,0,0-.65,2.8v0A33.66,33.66,0,0,0,26.63,79l.84-2.44C23.74,76,11.42,73.17,3,61.94" fill="#dae5eb"/>
      <path d="M106.31,143.18v-.06c0-.25-.92-25.1-2.83-44.85s1.46-29.1,1.6-29.48l1-2.64,3.38,9.79c3.51-.56,16-3.3,24.38-14.79-.28-.78-.64-1.72-1.12-2.84-3.74-8.87-8.4-21.26-8.45-21.38l-.06-.15v-.17c0-.1-.51-10.4-8.36-14.94-8.25-4.77-10-5.42-13.09-6.61L91.28,10.9c-5.46,8.1-23.35,7.41-24.12,7.38-15.46,0-20.11-5.17-21.39-7.34L34.39,15.06l-1.13.42c-2.69,1-5.47,2-11.92,6.17-7.66,4.94-8.39,14.89-8.4,15v.15l-.05.14c0,.12-4.71,12.51-8.45,21.38-.47,1.12-.84,2.06-1.12,2.84,8.35,11.49,20.88,14.23,24.38,14.79l3.37-9.77,1,2.6c.15.38,3.55,9.47,1.61,29.49-1.91,19.75-2.82,44.6-2.83,44.85v.12c-.16,1.07-.28,4.29,1.2,5,2.15,1,16.75,4.48,36.52,4.09,19.81.39,34.41-3.11,36.56-4.09,1.49-.68,1.36-3.89,1.2-5Z" fill="#fff"/>
      <path d="M65.45,12.15l-.07-2.89c-2.72,0-5.69-.27-8.11-.46-1.58-.13-2.94-.24-3.67-.24a1.44,1.44,0,0,0-1.13.32.42.42,0,0,0-.07.31,9.2,9.2,0,0,0,4.47,2,60.19,60.19,0,0,0,8.59,1" fill="#dae5eb"/>
      <path d="M66.46,11.95l3.87.21c4.81-.22,9.93-1,10-1a9.2,9.2,0,0,0,4.47-2,.42.42,0,0,0-.07-.31,1.45,1.45,0,0,0-1.13-.32c-.74,0-2.1.11-3.67.24-2.18.18-4.81.39-7.3.45l-.1,2.18L72,9.27H65.47Z" fill="#dae5eb"/>
      <path d="M132.73,58.31c-.38-.89-.76-1.82-1.15-2.77-1.46,3.62-4.11,7.11-9.33,10.25-9.58,5.77-7.67-1.17-7.16-3.9s10.74-26.12,6.14-20.27S114.58,44,114.58,44s-2.74-17.61-5.14-16c.2,1.7.33,3.4.42,5.11a52.43,52.43,0,0,1-4.75,6.38L104,50.38s-1.9,23.47-12.85,27.54c-3.77,1.4,7.94,4.3,7.94,4.3L93.93,97.78s4.19-5.92,5.12-5.92.74,7,.74,7c-2.45,59.5-45.43,42.28-45.66,39.21s7.67-18,7.67-18-9.53,8.07-12.32,10.9-6.52,6.84-9.08,1.42S57.85,102,57.15,100.14s-3.49.94-3.49.94-16.52,16.75-17.22,11.08,18.85-20,18.85-20-10,4.72-14.43,6.13-2.85-8.49-3.08-12S42,82,42,82c7.68-1.42,13.48-4.66,3-5.82-8.16-.91-9.82-11.51-10.63-18.24-1.6-13.28.91-17.2.91-17.2s-1.69.93-3.79,1.87a4.74,4.74,0,0,1-.66.25c-1.27.36-.74-.72-.74-.72-.7-13.68-4-16.74-4-16.74,2.17,6.43,1.23,13.1.52,16.36-2.21-3.91-5.07-8.1-5.88-5.15-.57,2.1.62,5.79,2.35,9.91,0,0,1.34,5.29,3.19,16.71s-4.91,5.21-5,5.11c-6.2-9.72-8.24-24.27-7.57-35.93a22,22,0,0,0-.85,4.24v.15l-.05.14c0,.12-4.71,12.51-8.45,21.38-.47,1.12-.84,2.06-1.12,2.85,8.35,11.49,20.88,14.23,24.38,14.79l3.37-9.77,1,2.6c.14.38,3.55,9.47,1.61,29.49-1.91,19.75-2.82,44.6-2.83,44.85v.12c-.16,1.07-.28,4.29,1.2,5,2.15,1,16.75,4.48,36.52,4.09,19.81.39,34.41-3.11,36.56-4.09,1.49-.68,1.36-3.89,1.2-5v-.12c0-.25-.92-25.1-2.83-44.85s1.46-29.1,1.6-29.48l1-2.64,3.38,9.79c3.51-.55,16-3.3,24.38-14.79-.28-.78-.64-1.72-1.12-2.85M6.26,59.25c.2-3.65,3.86-10.06,3.86-10.06s.51,12.52,5.64,19.89c0,0-9.69-6.18-9.5-9.83" fill="#dae5eb"/>
      <path d="M68,20.12s19.52.93,23.3-9.22c-5.46,8.1-23.35,7.41-24.12,7.38-15.46,0-20.11-5.18-21.39-7.34,0,0,2.07,9.18,22.2,9.18" fill="#dae5eb"/>
      <path d="M40.11,78c-3.71-.86-7.2-10.39-8.69-18.28a126,126,0,0,1-1.86-14.42A19.74,19.74,0,0,0,28.25,54c.29,3,1.44,9.9,2.17,14.08l.64-1.87,1,2.6c.15.38,3.55,9.47,1.61,29.49-1.91,19.75-2.82,44.6-2.83,44.85v.12c-.16,1.07-.29,4.29,1.2,5a26.36,26.36,0,0,0,4,1.13,8.63,8.63,0,0,1-3.07-7.8c.73-6.29,1.35-25,1.62-31.31.27-6.56.64-13.85.64-13.85s-.05-7.18.32-11.11c.64-6.68,8.3-6.35,4.61-7.21m68-32s-1.19,10.63-2.19,15.06c-2.19,9.65-5.32,14.39-7.89,15.93-1.82,1.1,4.53.15,3.8,3.65S99,87,99.16,88s1.92.95,1.92.95,1,14.7,1.25,21,.92,25.29,1.65,31.58a8.63,8.63,0,0,1-3.16,7.88,28.07,28.07,0,0,0,4.29-1.21c1.49-.68,1.36-3.89,1.2-5v-.12c0-.25-.92-25.1-2.83-44.85s1.46-29.1,1.61-29.48l1-2.64.49,1.43c.73-4.21,1.81-10.68,2.09-13.62a22.38,22.38,0,0,0-.58-7.89M46,147.45c30.79,6.42,48.74-.76,48.74-.76-19.27,4.38-48.74.76-48.74.76" fill="#c1c9ce"/>
      <path d="M57.73,30.59l.36-.69S59,28.07,55.28,29s-7.73,3.22-8.44,2.53a116.81,116.81,0,0,0-1.64-14.7C44,11.53,42.86,9.23,47.07,5.33s13.36-3,17.58-3.21H72c4.22.23,13.36-.69,17.58,3.21s3,6.2,1.88,11.48a116.73,116.73,0,0,0-1.64,14.7c-.7.69-4.69-1.61-8.44-2.53s-2.81.92-2.81.92l.08.69s-6.41-.69-8.52.69c0,0-4.3,1.38-4.3,18.14,0,0-2.34-9.87,2.11-17.91Z" fill="#c1c9ce"/>
      <path d="M69.78,29.86l-.14.06-.13.07a1.13,1.13,0,0,1,.27-.13" fill="#fff"/>
      <path d="M81.61,13.22c.4-2.36.94-5.55,1.09-7.48a2.22,2.22,0,0,0-.18-.23C81.12,4,71.07,4.26,67.29,4.48c-.08,0-8.3-.15-12.94.23-2.78.23-3.71.87-4,1.22a.6.6,0,0,0-.18.4h0c.36,2.22,1.74,6.2,4.12,11.88,2.51,6,13,10.7,14.57,11.36,2.33-2.84,7.7-9.12,11.16-11.15,0,0,.86-.8,1.37-3.85Z" fill="#dae5eb"/>
      <path d="M59.49,29.26,68,30a.94.94,0,0,1,.34.11l.11-.13C67,29.34,61,26.5,56.92,22.57c2.4,4,2.61,6,2.57,6.69" fill="#fff"/>
      <path d="M88.82,5.23c-3.08-2.91-9.59-2.92-13.9-2.93l-3-.05H64.71l-3,.05c-4.3,0-10.81,0-13.9,2.93-2,1.86-2.62,3.22-2.62,4.91a19.37,19.37,0,0,0,.69,4.1l.38,1.67A111.42,111.42,0,0,1,47.88,30c.63-.19,1.55-.56,2.28-.85A38,38,0,0,1,55,27.49c1.17-.29,2.79-.57,3.71.24a37.13,37.13,0,0,0-3.78-7.39,11.66,11.66,0,0,1-1.17-1.91C47.85,6,50.12,4.74,50.12,4.74a2.46,2.46,0,0,0-.06.7c.7-.67,2.12-1.11,4.25-1.28,4.67-.38,12.91-.24,13-.23,1.37-.08,13.11-.69,15.45,1a1.72,1.72,0,0,0-.12-.87S83.84,4,83,8.64l-1.09,6a10.16,10.16,0,0,1-1.18,3.68h0a37.24,37.24,0,0,0-2.64,9.25c.93-.64,2.43-.38,3.53-.11a38,38,0,0,1,4.84,1.69c.74.29,1.65.66,2.28.85a111.58,111.58,0,0,1,1.61-14.12l.38-1.67a19.5,19.5,0,0,0,.69-4.1c0-1.68-.65-3-2.62-4.91" fill="#fff"/>
      <path d="M79.83,19.18c-3.62,2.42-9.06,8.9-11,11.26a3.25,3.25,0,0,1,.79-.53c1.84-1.11,5.63-1.05,7.73-.92a1.81,1.81,0,0,1,.11-.57,32.28,32.28,0,0,1,2.36-9.23" fill="#fff"/>
      <rect x="74.4" y="25.71" width="3.19" height="0.61" transform="translate(41.42 98.52) rotate(-83.4)" fill="#c1c9ce"/>
      <path d="M72.52,45.68c0,1.55,0,2.8,0,3.32l-6.75.14v.55l7.31-.16v-.28c0-.09,0-11.8,0-11.8a39.21,39.21,0,0,0-.61,8.22" fill="#c1c9ce"/>
      <path d="M68.24,35a1.81,1.81,0,1,0,3.49,0,1.81,1.81,0,1,0-3.49,0m.55,0c0-1,.53-1.73,1.19-1.73S71.18,34,71.18,35,70.64,36.7,70,36.7,68.8,35.92,68.8,35" fill="#c1c9ce"/>
      <path d="M67.51,45.06a1.81,1.81,0,1,0,3.48,0,1.81,1.81,0,1,0-3.48,0m.55,0c0-1,.53-1.73,1.19-1.73s1.19.78,1.19,1.73-.54,1.73-1.19,1.73-1.19-.77-1.19-1.73" fill="#c1c9ce"/>
      <path d="M82.73,5a1.71,1.71,0,0,0-.12-.87C81.37,2.85,72.53,2.84,61.77,2.84S50.12,4.74,50.12,4.74a2.5,2.5,0,0,0-.06.7c.7-.67,2.12-1.11,4.25-1.28,4.67-.38,12.91-.23,13-.23,1.37-.08,13.12-.69,15.45,1" fill="#dae5eb"/>
      <use width="8.23" height="8.66" transform="translate(82.47 38.87) scale(1.62)" xlink:href="#uhealth-block-red"/>
    </g>
  </g>
</svg>
