<svg id="Layer_1" data-name="Layer 1" xmlns="http://www.w3.org/2000/svg" viewBox="0 0 1044 216">
  <defs>
    <style>
      .cls-1 {
        fill: #ae132a;
      }

      .cls-2 {
        fill: #939598;
      }
    </style>
  </defs>
  <title>virtual-visits</title>
  <path id="virtual" class="cls-1" d="M158.36,73.45l14.7,51.2,14.8-51.2h11l-20.8,68.9h-9.9l-20.91-68.9Zm62.79,0h10.6v68.9h-10.6Zm85.41,68.9h-12.9l-17.2-25.3h-7.41v25.3h-10.7V73.45h26.91c14.8,0,21,10.9,21,21.9,0,10.1-5.1,19.9-17.8,21.3Zm-37.51-59.1v24.1h15.41c7.7,0,10.8-6.1,10.8-12s-3-12.1-10.4-12.1Zm51.4-9.8h51.41v9.9H351.55v59h-10.8v-59h-20.3Zm110.91,45v-45h10.7v45c0,15.1-11.81,24.9-25.51,24.9s-25.6-9.8-25.6-24.9v-45h10.8v45c0,8.9,6.9,14.7,14.8,14.7S431.36,127.35,431.36,118.45Zm69.69,6.7h-27.8l-6.6,17.2h-11.3l26-68.9h11.5l26,68.9h-11.2Zm-24.2-9.5h20.6l-10.3-28.9Zm61.2-42.2h10.6v59.2h27.6v9.7h-38.2Z"/>
  <path id="visits" class="cls-2" d="M616.45,131.55l17.3-58.1h6.8L620,142.35h-6.9l-20.7-68.9h6.8Zm55.2,10.8h-6.6V73.45h6.6Zm46.4-5.6c10.4,0,15.8-5.9,16.9-11.3,1.3-8.5-5.3-12.8-13.1-14.6l-9.3-2.1c-14.3-3.2-16.2-11.5-16.2-17.3,0-11.2,10.6-18.8,21.6-18.8,12.2,0,21.6,7.7,21.6,19.7H733c0-8-6.5-13.1-15-13.1-7.6,0-15,4.9-15,12.2,0,3.6,1.3,8.7,11,10.9l9.4,2.1c11,2.5,20.1,9,18.1,22.2-1.6,8-9.2,16.7-23.4,16.7-13.6,0-22.3-10.7-22.3-20.8h6.6C702.35,129.45,708.45,136.75,718.05,136.75Zm55.8,5.6h-6.6V73.45h6.6Zm72.7-68.9v6.6h-22.1v62.3h-6.6V80.05h-22.1v-6.6Zm37.3,63.3c10.4,0,15.8-5.9,16.9-11.3,1.3-8.5-5.3-12.8-13.1-14.6l-9.3-2.1c-14.3-3.2-16.2-11.5-16.2-17.3,0-11.2,10.6-18.8,21.6-18.8,12.2,0,21.6,7.7,21.6,19.7h-6.6c0-8-6.5-13.1-15-13.1-7.6,0-15,4.9-15,12.2,0,3.6,1.3,8.7,11,10.9l9.4,2.1c11,2.5,20.1,9,18.1,22.2-1.6,8-9.2,16.7-23.4,16.7-13.6,0-22.3-10.7-22.3-20.8h6.6C868.15,129.45,874.25,136.75,883.85,136.75Z"/>
</svg>
