<svg id="ublock-diagram" xmlns="http://www.w3.org/2000/svg" viewBox="0 0 500 472.94">
  <title>ublock-diagram</title>
  <polygon id="ublock-lg" points="93.57 23.97 93.57 121.54 126.1 121.54 126.1 283.75 191.15 348.38 352.94 348.38 417.98 283.75 417.98 121.54 450.51 121.54 450.51 23.97 288.3 23.97 288.3 121.54 320.84 121.54 320.84 250.81 223.26 250.81 223.26 121.54 255.78 121.54 255.78 23.97 93.57 23.97" fill="none" stroke="#a7a9ac" stroke-width="2.25"/>
  <polygon id="ublock-sm" points="32.48 346.52 32.48 373.71 41.55 373.71 41.55 418.94 59.68 436.95 104.78 436.95 122.91 418.94 122.91 373.71 131.98 373.71 131.98 346.52 86.76 346.52 86.76 373.71 95.83 373.71 95.83 409.75 68.63 409.75 68.63 373.71 77.7 373.71 77.7 346.52 32.48 346.52" fill="none" stroke="#a7a9ac" stroke-width="2.25"/>
  <path id="callout-blue" d="M215,128.94H329.47V243.41H215ZM360.54,406.73H475V292.27H360.54ZM25,449H139.46V334.5H25Z" fill="none" stroke="#00aeef" stroke-width="2.36"/>
</svg>
