<svg id="_1-line" data-name="1-line" xmlns="http://www.w3.org/2000/svg" viewBox="0 0 792 288">
  <defs>
    <style>
      .cls-1 {
        fill: #939598;
      }

      .cls-2 {
        fill: #ae132a;
      }
    </style>
  </defs>
  <title>wellu-1-line</title>
  <path id="well" class="cls-1" d="M224.85,107.72l-23.31,68.9h-6.3l-13.5-46.2-13.5,46.2h-6.3l-23.3-68.9h7l19.3,58.5,14.3-49.4h5l14.3,49.4,19.31-58.5Zm58.79,0v6.6h-32.7v25.2h28.6v6.6h-28.6V170h33.8v6.6h-40.4v-68.9Zm29.12,0V170H342v6.6h-35.8v-68.9Zm55.41,0V170h29.2v6.6h-35.8v-68.9Z"/>
  <path id="you" class="cls-2" d="M466.87,176.62V145l-26.2-37.3h12.7l19,27.4,19.2-27.4h12.7l-26.5,37.4v31.5Zm79.21-69.7c19.7,0,35,15.8,35,35.4a34.91,34.91,0,0,1-35,35.3c-19.6,0-34.8-15.8-34.8-35.3S526.48,106.92,546.08,106.92Zm0,60.3c13.7,0,24.3-11.1,24.3-24.9s-10.6-25-24.3-25-24.2,11.2-24.2,25S532.48,167.22,546.08,167.22Zm96.58-14.5v-45h10.7v45c0,15.1-11.8,24.9-25.5,24.9s-25.6-9.8-25.6-24.9v-45h10.8v45c0,8.9,6.9,14.7,14.8,14.7S642.66,161.62,642.66,152.72Z"/>
</svg>
