<svg xmlns="http://www.w3.org/2000/svg" viewBox="0 0 504 288">
  <defs>
    <style>
      .cls-1 {
        fill: #939598;
      }

      .cls-2 {
        fill: #ae132a;
      }
    </style>
  </defs>
  <title>wellu-2-line</title>
  <g id="_2-line" data-name="2-line">
    <path id="well" class="cls-1" d="M208.84,50.87l-23.3,68.9h-6.3l-13.5-46.2-13.5,46.2h-6.3l-23.31-68.9h7l19.31,58.5L163.24,60h5l14.3,49.4,19.3-58.5Zm58.8,0v6.6H234.93v25.2h28.61v6.6H234.93v23.9h33.81v6.6H228.33V50.87Zm29.11,0v62.3H326v6.6H290.15V50.87Zm55.41,0v62.3h29.21v6.6H345.56V50.87Z"/>
    <path id="you" class="cls-2" d="M159.28,222.77V186.28L129,143.2h14.67l21.94,31.64,22.18-31.64h14.67l-30.61,43.19v36.38Zm91.49-80.49c22.75,0,40.42,18.24,40.42,40.88s-17.67,40.77-40.42,40.77-40.19-18.25-40.19-40.77S228.13,142.28,250.77,142.28Zm0,69.64c15.82,0,28.06-12.82,28.06-28.76s-12.24-28.87-28.06-28.87-28,12.93-28,28.87S235.06,211.92,250.77,211.92Zm111.55-16.75v-52h12.35v52c0,17.44-13.63,28.76-29.45,28.76s-29.56-11.32-29.56-28.76v-52h12.47v52c0,10.28,8,17,17.09,17S362.32,205.45,362.32,195.17Z"/>
  </g>
</svg>
