<?xml version="1.0" encoding="utf-8"?>
<!-- Generator: Adobe Illustrator 22.1.0, SVG Export Plug-In . SVG Version: 6.00 Build 0)  -->
<!DOCTYPE svg PUBLIC "-//W3C//DTD SVG 1.1//EN" "http://www.w3.org/Graphics/SVG/1.1/DTD/svg11.dtd">
<svg version="1.1" id="Ebene_2" xmlns="http://www.w3.org/2000/svg" xmlns:xlink="http://www.w3.org/1999/xlink" x="0px" y="0px"
	 width="1622px" height="626px" viewBox="0 0 1622 626" enable-background="new 0 0 1622 626" xml:space="preserve">

<g opacity="0.4" fill="#FFFFFF">
	<circle cx="1413.4" cy="164.2" r="1.3"/>
	<circle cx="1422.5" cy="164.2" r="1.3"/>
	<path d="M1428.4,163.2L1428.4,163.2c0-0.4,0-0.7,0-1h0l0,0l-0.5-7.9c-0.1-1.5-1-2.9-2.3-3.6c-1.7-1-4.4-2.1-7.6-2.1
			s-5.9,1.1-7.6,2.1c-1.3,0.8-2.2,2.1-2.3,3.6l-0.5,7.9l0,0h0c0,0.3,0,0.6,0,0.9l0,0.1c-1.2,0.7-1.3,2-1.3,3c0,1.3,1.2,4.1,2.8,4.5
			c0.7,1.4,3.8,6.6,8.9,6.6c5,0,8.1-5.2,8.9-6.6c1.7-0.4,2.8-3.2,2.8-4.5C1429.7,165.3,1429.5,164,1428.4,163.2z M1409.4,154.5
			c0.1-1.1,0.7-2.1,1.6-2.6c1.5-0.9,4-1.9,7-1.9c2.9,0,5.4,1.1,7,1.9c0.9,0.5,1.6,1.5,1.6,2.6l0.5,6.8c-0.9-0.4-2.3-0.9-3.9-1.4
			c0.1-0.3,0.1-0.6,0.1-0.9c0-2.9-2.3-5.2-5.2-5.2c-2.9,0-5.2,2.3-5.2,5.2c0,0.3,0,0.6,0.1,0.9c-1.6,0.5-3,1-3.9,1.4L1409.4,154.5z
			M1421.9,159c0,2.2-1.8,3.9-3.9,3.9c-2.2,0-3.9-1.8-3.9-3.9s1.8-3.9,3.9-3.9C1420.1,155.1,1421.9,156.9,1421.9,159z M1418,175.9
			c-4,0-6.7-4.1-7.6-5.6c1.3-0.7,4.7-2.2,7.6-2.2c2.9,0,6.3,1.6,7.6,2.2C1424.7,171.9,1422,175.9,1418,175.9z M1426.5,169.4
			c-1-0.5-5-2.6-8.6-2.6s-7.6,2-8.6,2.6c-0.8-0.2-1.8-2.3-1.8-3.2c0-1.4,0.4-1.8,0.9-2c0.2-0.1,0.4-0.3,0.4-0.6l0-0.5
			c0-0.1,0-0.3,0-0.4c0.7-0.3,2.4-1,4.4-1.6c0.8,1.8,2.6,3.1,4.7,3.1c2.1,0,3.9-1.3,4.7-3.1c1.9,0.6,3.6,1.2,4.4,1.6
			c0,0.1,0,0.3,0,0.4l0,0.5c0,0.3,0.1,0.5,0.4,0.6c0.5,0.2,0.9,0.6,0.9,2C1428.4,167.1,1427.3,169.2,1426.5,169.4z"/>
	<path d="M1418,156.4c-1.4,0-2.6,1.2-2.6,2.6c0,1.4,1.2,2.6,2.6,2.6s2.6-1.2,2.6-2.6
				C1420.6,157.6,1419.4,156.4,1418,156.4z M1418,160.3c-0.7,0-1.3-0.6-1.3-1.3s0.6-1.3,1.3-1.3c0.7,0,1.3,0.6,1.3,1.3
				S1418.7,160.3,1418,160.3z"/>
</g>

<path opacity="0.4" fill="#FFFFFF" d="M1560.7,225.6c-0.3-0.3-0.9-0.3-1.2,0c-0.1,0.1-0.2,0.2-0.3,0.2l-9.1-9.1c0.1-0.1,0.1-0.2,0.2-0.3
				c0.3-0.3,0.3-0.9,0-1.2c-0.3-0.3-0.9-0.3-1.2,0c-2,2-2,4.7-2,6.9l0,0.6c0,0.6,0.2,1.5,0.4,2.8c0.4,2,1,4.8,0.9,7.5l-5.5-5.5
				c0.7,0,1.4,0,2.1,0.1c0.4,0,0.9-0.3,0.9-0.8c0-0.5-0.3-0.9-0.8-0.9c-4.2-0.3-7.1,0.4-9.1,2.4c-3.7,3.7-2.3,10.5-1.5,14.6
				c0.2,0.8,0.3,1.6,0.4,2.1l-3.9-3.9c0.1,0,0.2,0,0.3,0c0.5,0.1,0.9-0.3,1-0.7c0.1-0.5-0.3-0.9-0.7-1c-0.4-0.1-0.7-0.1-0.9-0.1l-0.6,0
				c-2.2,0-4.9,0-6.9,2c-0.3,0.3-0.3,0.9,0,1.2c0.2,0.2,0.4,0.3,0.6,0.3s0.4-0.1,0.6-0.3c0.1-0.1,0.2-0.2,0.3-0.2l9.1,9.1
				c-0.1,0.1-0.1,0.2-0.2,0.3c-0.3,0.3-0.3,0.9,0,1.2c0.2,0.2,0.4,0.3,0.6,0.3s0.4-0.1,0.6-0.3c2-2,2-4.7,2-6.9l0-0.6
				c0-0.6-0.2-1.5-0.4-2.8c0-0.2-0.1-0.4-0.1-0.6c1.3,0.2,2.8,0.4,4.2,0.4c2.7,0,5.4-0.6,7.3-2.5c2.9-2.9,2.7-7.6,2.1-11.5
				c0.2,0,0.4,0.1,0.6,0.1c1.2,0.3,2.2,0.4,2.8,0.4l0.6,0c0.2,0,0.4,0,0.6,0c2,0,4.4-0.2,6.3-2C1561.1,226.5,1561.1,226,1560.7,225.6z
				M1557.7,226.7c-0.7,0.2-1.5,0.3-2.3,0.4l-6.4-6.4c0-0.8,0.1-1.6,0.4-2.3L1557.7,226.7z M1545.9,239.1c-0.8,0.6-1.7,0.9-2.7,1.1
				l-7.4-7.4c0.2-1,0.6-1.9,1.1-2.7L1545.9,239.1z M1526.3,241.3c0.7-0.2,1.5-0.3,2.3-0.4l6.4,6.4c0,0.8-0.1,1.6-0.4,2.3L1526.3,241.3z
				M1535.9,240.1c-0.3-1.6-0.5-3.4-0.4-5.1l5.5,5.5C1539.3,240.6,1537.5,240.3,1535.9,240.1z M1547.1,237.9l-9-9
				c0.7-0.5,1.7-0.9,2.7-1.1l7.4,7.4C1548.1,236.2,1547.7,237.1,1547.1,237.9z M1549.6,226.4c-0.1-0.4-0.2-0.9-0.2-1.3
				c-0.2-0.8-0.3-1.6-0.4-2.1l3.9,3.9c-0.5-0.1-1.2-0.2-2.1-0.4C1550.4,226.6,1550,226.5,1549.6,226.4z"/>

<g opacity="0.4" fill="#FFFFFF">
	<path d="M1367,491.1c0-8.4-6.9-15.3-15.3-15.3s-15.3,6.9-15.3,15.3c0,7.7,5.8,14.1,13.2,15.1
						c-0.8,6.6-6.4,11.7-13.2,11.7h-1.9c-11.4,0-20.7-9.1-21-20.5l5.2-6.9c1.8-1.6,21.6-19.2,21.6-31.9v-7.7c0-4.2-3.4-7.7-7.7-7.7h-0.3
						c-0.9-3.3-3.8-5.7-7.4-5.7c-4.2,0-7.7,3.4-7.7,7.7c0,4.2,3.4,7.7,7.7,7.7c3.6,0,6.5-2.5,7.4-5.7h0.3c2.1,0,3.8,1.7,3.8,3.8v7.7
						c0,9.1-13.9,23.4-19.9,28.7h-10c-6-5.4-19.9-19.6-19.9-28.7v-7.7c0-2.1,1.7-3.8,3.8-3.8h0.3c0.9,3.3,3.8,5.7,7.4,5.7
						c4.2,0,7.7-3.4,7.7-7.7c0-4.2-3.4-7.7-7.7-7.7c-3.6,0-6.5,2.5-7.4,5.7h-0.3c-4.2,0-7.7,3.4-7.7,7.7v7.7c0,12.7,19.8,30.4,21.6,31.9
						l5.3,7c0.4,13.4,11.4,24.2,24.9,24.2h1.9c8.9,0,16.2-6.8,17.1-15.5C1361,505.4,1367,499,1367,491.1z M1324.8,449
						c-2.1,0-3.8-1.7-3.8-3.8c0-2.1,1.7-3.8,3.8-3.8c2.1,0,3.8,1.7,3.8,3.8C1328.7,447.3,1326.9,449,1324.8,449z M1298,441.3
						c2.1,0,3.8,1.7,3.8,3.8c0,2.1-1.7,3.8-3.8,3.8s-3.8-1.7-3.8-3.8C1294.2,443,1295.9,441.3,1298,441.3z M1311.4,493.7l-1.9-2.6h3.8
						L1311.4,493.7z M1351.6,502.6c-6.3,0-11.5-5.2-11.5-11.5s5.2-11.5,11.5-11.5s11.5,5.2,11.5,11.5S1358,502.6,1351.6,502.6z"/>
	<path d="M1351.6,483.5c-4.2,0-7.7,3.4-7.7,7.7s3.4,7.7,7.7,7.7s7.7-3.4,7.7-7.7S1355.9,483.5,1351.6,483.5z
							M1351.6,494.9c-2.1,0-3.8-1.7-3.8-3.8s1.7-3.8,3.8-3.8s3.8,1.7,3.8,3.8S1353.7,494.9,1351.6,494.9z"/>
</g>

<g opacity="0.4" fill="#FFFFFF">
	<path d="M211.2,112.3c-1.4-3.3-4.6-5.5-8.2-5.5c-0.4,0-0.8,0-1.1,0.1c-1.5-1.2-3.3-1.9-5.1-1.9c-2.7,0-5.2,1.4-6.7,3.6
								c-0.2,0-0.3,0-0.5,0c-5.4,0-9.8,4.4-9.8,9.8c0,0.8,0.1,1.6,0.3,2.5c-1.3,1.2-2.1,2.9-2.1,4.7c0,3.2,2.4,5.8,5.4,6.2
								c0,0.2-0.1,0.3-0.1,0.5c0,2.9,3,5.3,6.9,5.7l-1.5,5.2c-0.1,0.3,0,0.6,0.1,0.8c0.2,0.2,0.4,0.4,0.7,0.4h4.5c0.4,0,0.7-0.3,0.9-0.6
								c1.2-3.9,4.1-10.1,6.7-10.1c5,0,9.5-3.1,11.3-7.7c2.6-1.1,4.4-3.7,4.4-6.6C217.3,115.8,214.7,112.8,211.2,112.3z M185.2,132.3
								c0-0.1,0-0.3,0.1-0.4c4.2,0.1,6.6,0.7,7.1,1.1c0.1,0.4,0.4,0.7,0.9,0.7c0.5,0,0.9-0.4,0.9-0.9c0-2-4.6-2.5-7.9-2.6
								c1.1-1.1,3.1-1.8,5.2-1.8c3.4,0,6.3,1.8,6.3,4s-2.9,4-6.3,4S185.2,134.4,185.2,132.3z M193.4,142.5h-2.6l1.3-4.5
								c1.3-0.1,2.6-0.4,3.7-0.9C194.6,139.3,193.8,141.4,193.4,142.5z M211.9,124.3c-0.3,0.1-0.5,0.3-0.5,0.6c-0.3,1-0.8,1.9-1.4,2.7
								c-0.7-2.7-3.1-4.7-6-4.7c-0.5,0-0.9,0.4-0.9,0.9s0.4,0.9,0.9,0.9c0.6,0,1.2,0.1,1.8,0.4c-0.2,1.8-1.7,3.2-3.5,3.2
								c-0.5,0-0.9,0.4-0.9,0.9s0.4,0.9,0.9,0.9c2.4,0,4.5-1.6,5.1-3.8c0.7,0.8,1.1,1.8,1.1,3c0,0,0,0.1,0,0.1c-1.8,1.6-4.2,2.6-6.7,2.6
								c-0.8,0-1.6-0.1-2.3-0.3c-0.5-2.8-3.9-5.1-7.9-5.1c-3.3,0-6.2,1.5-7.4,3.5c-2.3-0.1-4.2-2.1-4.2-4.4c0-1.4,0.7-2.8,1.9-3.6
								c0,0,0-0.1,0.1-0.1c0,0,0.1,0,0.1,0c1-0.6,2.1-0.8,3.3-0.6c-0.2,2-1.3,3.5-2.6,3.5c-0.5,0-0.9,0.4-0.9,0.9s0.4,0.9,0.9,0.9
								c2.2,0,3.9-1.9,4.3-4.6c0.5,0.3,0.9,0.8,1.2,1.3c0.2,0.3,0.5,0.4,0.8,0.4c0.2,0,0.3,0,0.5-0.1c0.4-0.3,0.5-0.8,0.3-1.2
								c-0.9-1.4-2.3-2.4-3.9-2.7c-1.3-0.3-2.7-0.1-3.9,0.4c-0.1-0.5-0.2-1-0.2-1.4c0-4.3,3.4-7.8,7.6-8c-0.4,1.2-0.5,2.4-0.4,3.6
								c-2.1,0.2-3.7,1.3-3.7,2.6c0,0.5,0.4,0.9,0.9,0.9s0.9-0.4,0.9-0.9c0-0.2,0.8-0.8,2.3-0.9c0.6,1.7,1.7,3.2,3.4,4.2
								c0.1,0.1,0.3,0.1,0.5,0.1c0.3,0,0.6-0.2,0.8-0.4c0.3-0.4,0.1-1-0.3-1.2c-2.9-1.7-3.9-5.4-2.2-8.4c0,0,0,0,0,0
								c1.1-2,3.2-3.2,5.4-3.2c1.6,0,3.1,0.6,4.2,1.7c0.2,0.2,0.5,0.3,0.8,0.2c0.5-0.1,0.9-0.1,1.2-0.1c2.6,0,5,1.4,6.2,3.7
								c-2.2,0.3-4.1,1.6-5.2,3.5c0,0-0.1,0-0.1,0c-1.7,0-2.7-0.7-2.7-0.9c0-0.5-0.4-0.9-0.9-0.9s-0.9,0.4-0.9,0.9c0,1.4,1.6,2.5,3.8,2.6
								c-0.2,0.6-0.3,1.2-0.3,1.8c0,0.5,0.4,0.9,0.9,0.9s0.9-0.4,0.9-0.9c0-3,2.4-5.4,5.4-5.4c0.1,0,0.1,0,0.2,0c0.1,0,0.1,0.1,0.2,0.1
								c2.5,0.2,4.5,2,4.9,4.4c-3.4-0.2-5.3-1.3-5.3-1.7c0-0.5-0.4-0.9-0.9-0.9s-0.9,0.4-0.9,0.9c0,2.2,3.4,3.4,7.1,3.5
								C215.2,122.1,213.8,123.7,211.9,124.3z"/>
	<path d="M196.3,116.2c0.8-1.1,1.3-2.9,1.3-4.9c0-0.5-0.4-0.9-0.9-0.9c-0.5,0-0.9,0.4-0.9,0.9c0,2.7-1.1,4.5-1.8,4.5
									c-0.5,0-0.9,0.4-0.9,0.9c0,0.5,0.4,0.9,0.9,0.9c3,0,5.4,2.8,5.4,6.3c0,0.5,0.4,0.9,0.9,0.9s0.9-0.4,0.9-0.9
									C201.2,120.2,199.2,117.2,196.3,116.2z"/>
	<path d="M196.8,122.9c-1.8,0-2.7-0.7-2.7-0.9c0-0.5-0.4-0.9-0.9-0.9s-0.9,0.4-0.9,0.9c0,1.6,1.9,2.7,4.5,2.7
										c0.5,0,0.9-0.4,0.9-0.9S197.3,122.9,196.8,122.9z"/>
</g>

<g opacity="0.4" fill="#FFFFFF">
	<path  d="M113.8,267.5h-13v-13c0-3.6-2.9-6.5-6.5-6.5H74.9c-3.6,0-6.5,2.9-6.5,6.5v13h-13c-3.6,0-6.5,2.9-6.5,6.5v19.5
											c0,3.6,2.9,6.5,6.5,6.5h13v13c0,3.6,2.9,6.5,6.5,6.5h19.5c3.6,0,6.5-2.9,6.5-6.5v-13h13c3.6,0,6.5-2.9,6.5-6.5v-19.5
											C120.3,270.4,117.4,267.5,113.8,267.5z M71.7,254.5c0-1.8,1.5-3.2,3.2-3.2h19.5c1.8,0,3.2,1.5,3.2,3.2v13H71.7V254.5z M97.6,270.7
											v25.9H71.7v-25.9H97.6z M55.5,296.6c-1.8,0-3.2-1.5-3.2-3.2v-19.5c0-1.8,1.5-3.2,3.2-3.2h13v25.9H55.5z M97.6,312.8
											c0,1.8-1.5,3.2-3.2,3.2H74.9c-1.8,0-3.2-1.5-3.2-3.2v-13h25.9V312.8z M117.1,293.4c0,1.8-1.5,3.2-3.2,3.2h-13v-25.9h13
											c1.8,0,3.2,1.5,3.2,3.2V293.4z"/>
	<circle cx="78.2" cy="277.2" r="3.2"/>
	<circle cx="91.2" cy="277.2" r="3.2"/>
	<circle cx="78.2" cy="290.2" r="3.2"/>
	<circle cx="91.2" cy="290.2" r="3.2"/>
	<circle cx="84.7" cy="283.7" r="3.2"/>
</g>

<path opacity="0.4" fill="#FFFFFF" d="M225.9,526.9c0-1.4-1.1-2.6-2.6-2.6h-7.7c-1.4,0-2.6,1.1-2.6,2.6c0,0.9,0.5,1.8,1.3,2.2v20.8
											c0,2.8,2.3,5.1,5.1,5.1s5.1-2.3,5.1-5.1v-20.8C225.4,528.6,225.9,527.8,225.9,526.9z M219.5,553.7c-2.1,0-3.8-1.7-3.8-3.8v-10.2h7.7
											v10.2C223.4,552,221.6,553.7,219.5,553.7z M223.4,538.4h-7.7v-8.9h7.7V538.4z M223.4,528.2h-7.7c-0.7,0-1.3-0.6-1.3-1.3
											c0-0.7,0.6-1.3,1.3-1.3h7.7c0.7,0,1.3,0.6,1.3,1.3C224.6,527.6,224.1,528.2,223.4,528.2z"/>

<path opacity="0.4" fill="#FFFFFF" d="M296.3,462.1L291,459l5.3-3.1c0.2-0.1,0.3-0.4,0.2-0.7l-2.5-4.5c-0.1-0.1-0.2-0.2-0.3-0.2c-0.1,0-0.3,0-0.4,0.1
												l-5.2,3.2v-6.3c0-0.3-0.2-0.5-0.5-0.5h-5c-0.3,0-0.5,0.2-0.5,0.5v6.3l-5.2-3.2c-0.1-0.1-0.3-0.1-0.4-0.1c-0.1,0-0.2,0.1-0.3,0.2
												l-2.5,4.4c-0.1,0.2-0.1,0.5,0.2,0.7l5.3,3.2l-5.3,3.1c-0.2,0.1-0.3,0.4-0.2,0.7l2.5,4.5c0.1,0.1,0.2,0.2,0.3,0.2
												c0.1,0,0.3,0,0.4-0.1l5.2-3.2v6.3c0,0.3,0.2,0.5,0.5,0.5h5c0.3,0,0.5-0.2,0.5-0.5v-6.3l5.2,3.2c0.1,0.1,0.3,0.1,0.4,0.1
												c0.1,0,0.2-0.1,0.3-0.2l2.5-4.5C296.6,462.5,296.5,462.2,296.3,462.1z M293.3,466.3l-5.6-3.4c-0.2-0.1-0.3-0.1-0.5,0
												c-0.2,0.1-0.3,0.3-0.3,0.4v6.7h-4v-6.7c0-0.2-0.1-0.3-0.3-0.4c-0.2-0.1-0.4-0.1-0.5,0l-5.6,3.4l-2-3.6l5.6-3.3
												c0.2-0.1,0.2-0.3,0.2-0.4c0-0.2-0.1-0.3-0.2-0.4l-5.6-3.4l2-3.5l5.6,3.4c0.2,0.1,0.3,0.1,0.5,0c0.2-0.1,0.3-0.3,0.3-0.4V448h4v6.7
												c0,0.2,0.1,0.3,0.3,0.4c0.2,0.1,0.4,0.1,0.5,0l5.6-3.4l2,3.6l-5.6,3.3c-0.2,0.1-0.2,0.3-0.2,0.4s0.1,0.3,0.2,0.4l5.6,3.3
												L293.3,466.3z"/>

<g opacity="0.4" fill="#FFFFFF">
	<path d="M1455.5,399h-1.3l0.2-0.2c1.1-1.2,1.6-2.7,1.6-4.3c0-3.6-2.9-6.5-6.5-6.5c-1.7,0-3.3,0.7-4.5,1.8
	c-1.2-1.2-2.8-1.8-4.5-1.8c-3.6,0-6.5,2.9-6.5,6.5c0,1.6,0.6,3.1,1.6,4.3l0.2,0.2h-1.3c-0.3,0-0.5,0.2-0.5,0.5s0.2,0.5,0.5,0.5h6.7
	l2.4,4.7c0.1,0.2,0.3,0.3,0.4,0.3c0,0,0,0,0.1,0c0.2,0,0.4-0.2,0.4-0.4l2.1-9.3l1.4,4.3c0.1,0.2,0.3,0.3,0.5,0.3h7
	c0.3,0,0.5-0.2,0.5-0.5S1455.8,399,1455.5,399z M1447,393.3c-0.1-0.2-0.3-0.4-0.5-0.3c-0.2,0-0.4,0.2-0.5,0.4l-2.2,9.6l-1.9-3.8
	c-0.1-0.2-0.3-0.3-0.4-0.3h-4.4l-0.7-0.9c-0.9-1-1.4-2.3-1.4-3.6c0-3,2.5-5.5,5.5-5.5c1.6,0,3.1,0.7,4.1,1.9c0.2,0.2,0.6,0.2,0.8,0
	c1-1.2,2.6-1.9,4.1-1.9c3,0,5.5,2.5,5.5,5.5c0,1.3-0.5,2.6-1.4,3.7l-0.7,0.8h-4.1L1447,393.3z"/>
	<path d="M1451.1,401.2l-6.1,7.5l-6.1-7.5c-0.2-0.2-0.5-0.2-0.7-0.1c-0.2,0.2-0.2,0.5-0.1,0.7l6.5,8
	c0.1,0.1,0.2,0.2,0.4,0.2s0.3-0.1,0.4-0.2l6.5-8c0.2-0.2,0.1-0.5-0.1-0.7C1451.6,400.9,1451.3,401,1451.1,401.2z"/>
</g>

</svg>
