<svg width="157" height="143" viewBox="0 0 157.3 143" xmlns="http://www.w3.org/2000/svg">
    <path fill="#fff" d="M115.2 62l-.2.2c0-.1.1-.2.2-.2M134 54.7c-10.2 15-31.3 30.1-13 66.6l13-12.8v-7.3l-10.9 4.4c-.3.1-.5.2-.8.2-.9 0-1.9-.6-2.3-1.6-.5-1.3.1-2.7 1.4-3.2l12.6-5.1V89l-12-.5c-1.2-.1-2.2-1.2-2.1-2.5.1-1.2 1-2.2 2.2-2.2h.1l11.6.5V78l-5.6-5.3c-.9-.9-.9-2.3 0-3.2.4-.5 1.1-.7 1.7-.7.5 0 1.1.2 1.5.6l2.4 2.3.2-17z"/>
    <path fill="#fff" d="M146.3 10h-16.1c-1.6 1.2-3.1 2.8-4.6 4.6l3.8 4-.1 2-2-.2L124 17c-1.2 1.9-2.2 4-3.2 6.2l8.9 2.9c.8.3 1.2 1.1.9 1.8-.2.6-.8.9-1.4.9-.2 0-.3 0-.5-.1l-8.9-2.9c-.9 2.7-1.5 5.5-2 8.3l12.6-.3c.8 0 1.5.6 1.5 1.5 0 .8-.6 1.5-1.5 1.5l-13 .4c-.3 3.2-.1 6.5.5 9.5l12.9-5c.2-.1.3-.1.5-.1.6 0 1.2.3 1.4.9.3.8-.1 1.6-.9 2l-13.3 5.2c.6 2.2 1.5 4.3 2.8 6.3-2.5 2-4.6 4.4-6.4 6.1l-.2.2c-11.4-17.5-3.4-42.5 9.5-52.1H84.8v37h12.3v49h-37V47h12.3V10H11v37h12.3v61.5L48 133h61.3l1.5-1.7C83.2 59.5 147 60.6 134.7 29.7c4.5 6.6 5 12.1 3.4 17.3h8.3l-.1-37zm-28.2 36.6z"/>
</svg>
